<mxfile host="Electron" modified="2024-05-23T16:29:03.699Z" agent="Mozilla/5.0 (Windows NT 10.0; Win64; x64) AppleWebKit/537.36 (KHTML, like Gecko) draw.io/21.6.8 Chrome/114.0.5735.289 Electron/25.5.0 Safari/537.36" etag="R0LAFwzXuPrsa8g9e1Iu" version="21.6.8" type="device" pages="2">
  <diagram name="iira" id="FcbVmzILL0Qksh8CTQDr">
    <mxGraphModel dx="1177" dy="680" grid="1" gridSize="10" guides="1" tooltips="1" connect="1" arrows="1" fold="1" page="1" pageScale="1" pageWidth="827" pageHeight="1169" math="1" shadow="0">
      <root>
        <mxCell id="0" />
        <mxCell id="1" parent="0" />
        <mxCell id="7y8PsLZq6kF9a2uQAZg5-432" value="" style="rounded=0;whiteSpace=wrap;html=1;shadow=1;" parent="1" vertex="1">
          <mxGeometry x="80" y="280" width="240" height="210" as="geometry" />
        </mxCell>
        <mxCell id="7y8PsLZq6kF9a2uQAZg5-339" value="" style="rounded=0;whiteSpace=wrap;html=1;glass=0;sketch=0;fillStyle=auto;sketchStyle=rough;fontSize=20;strokeColor=none;strokeWidth=1;fillColor=#EDEDED;gradientColor=none;gradientDirection=north;container=0;movable=1;resizable=1;rotatable=1;deletable=1;editable=1;locked=0;connectable=1;" parent="1" vertex="1">
          <mxGeometry x="90" y="430" width="220" height="50" as="geometry" />
        </mxCell>
        <mxCell id="7y8PsLZq6kF9a2uQAZg5-374" value="" style="rounded=0;whiteSpace=wrap;html=1;fontSize=20;strokeWidth=1;fillColor=#CCFFCC;strokeColor=none;gradientColor=none;gradientDirection=north;sketchStyle=rough;fillStyle=auto;perimeterSpacing=0;labelBackgroundColor=none;disableMultiStroke=0;disableMultiStrokeFill=0;dashOffset=10;dashGap=3;hachureGap=5;fillWeight=1;hachureAngle=-45;simplification=1;zigzagOffset=-10;fontStyle=0;container=0;" parent="1" vertex="1">
          <mxGeometry x="230" y="435" width="40" height="40" as="geometry" />
        </mxCell>
        <mxCell id="7y8PsLZq6kF9a2uQAZg5-337" value="" style="rounded=0;whiteSpace=wrap;html=1;shadow=1;" parent="1" vertex="1">
          <mxGeometry x="460" y="240" width="260" height="250" as="geometry" />
        </mxCell>
        <mxCell id="7y8PsLZq6kF9a2uQAZg5-326" value="" style="rounded=0;whiteSpace=wrap;html=1;glass=0;sketch=0;fillStyle=auto;sketchStyle=rough;fontSize=20;strokeColor=none;strokeWidth=1;fillColor=#EDEDED;gradientColor=none;gradientDirection=north;container=0;movable=1;resizable=1;rotatable=1;deletable=1;editable=1;locked=0;connectable=1;" parent="1" vertex="1">
          <mxGeometry x="470" y="425" width="240" height="50" as="geometry" />
        </mxCell>
        <mxCell id="7y8PsLZq6kF9a2uQAZg5-311" value="" style="rounded=0;whiteSpace=wrap;html=1;glass=0;sketch=0;fillStyle=auto;sketchStyle=rough;fontSize=20;strokeColor=none;strokeWidth=1;fillColor=#EDEDED;gradientColor=none;gradientDirection=north;container=0;movable=1;resizable=1;rotatable=1;deletable=1;editable=1;locked=0;connectable=1;" parent="1" vertex="1">
          <mxGeometry x="470" y="345" width="240" height="50" as="geometry" />
        </mxCell>
        <mxCell id="7y8PsLZq6kF9a2uQAZg5-289" value="" style="rounded=0;whiteSpace=wrap;html=1;glass=0;sketch=0;fillStyle=auto;sketchStyle=rough;fontSize=20;strokeColor=none;strokeWidth=1;fillColor=#EDEDED;gradientColor=none;gradientDirection=north;container=0;movable=1;resizable=1;rotatable=1;deletable=1;editable=1;locked=0;connectable=1;" parent="1" vertex="1">
          <mxGeometry x="470" y="265" width="240" height="50" as="geometry" />
        </mxCell>
        <mxCell id="7y8PsLZq6kF9a2uQAZg5-258" value="" style="rounded=0;whiteSpace=wrap;html=1;shadow=1;" parent="1" vertex="1">
          <mxGeometry x="480" y="40" width="240" height="130" as="geometry" />
        </mxCell>
        <mxCell id="7y8PsLZq6kF9a2uQAZg5-214" value="" style="rounded=0;whiteSpace=wrap;html=1;shadow=1;" parent="1" vertex="1">
          <mxGeometry x="80" y="40" width="240" height="210" as="geometry" />
        </mxCell>
        <mxCell id="7y8PsLZq6kF9a2uQAZg5-213" value="" style="rounded=0;whiteSpace=wrap;html=1;glass=0;sketch=0;fillStyle=auto;sketchStyle=rough;fontSize=20;strokeColor=none;strokeWidth=1;fillColor=#EDEDED;gradientColor=none;gradientDirection=north;container=0;movable=1;resizable=1;rotatable=1;deletable=1;editable=1;locked=0;connectable=1;" parent="1" vertex="1">
          <mxGeometry x="90" y="190" width="220" height="50" as="geometry" />
        </mxCell>
        <mxCell id="7y8PsLZq6kF9a2uQAZg5-212" value="" style="rounded=0;whiteSpace=wrap;html=1;glass=0;sketch=0;fillStyle=auto;sketchStyle=rough;fontSize=20;strokeColor=none;strokeWidth=1;fillColor=#EDEDED;gradientColor=none;gradientDirection=north;container=0;movable=1;resizable=1;rotatable=1;deletable=1;editable=1;locked=0;connectable=1;" parent="1" vertex="1">
          <mxGeometry x="90" y="130" width="220" height="50" as="geometry" />
        </mxCell>
        <mxCell id="7y8PsLZq6kF9a2uQAZg5-211" value="" style="rounded=0;whiteSpace=wrap;html=1;glass=0;sketch=0;fillStyle=auto;sketchStyle=rough;fontSize=20;strokeColor=none;strokeWidth=1;fillColor=#EDEDED;gradientColor=none;gradientDirection=north;container=0;movable=1;resizable=1;rotatable=1;deletable=1;editable=1;locked=0;connectable=1;" parent="1" vertex="1">
          <mxGeometry x="90" y="50" width="220" height="70" as="geometry" />
        </mxCell>
        <mxCell id="7y8PsLZq6kF9a2uQAZg5-154" value="" style="rounded=1;whiteSpace=wrap;html=1;fontStyle=0;fontSize=20;strokeWidth=2;fillColor=#E6FFCC;" parent="1" vertex="1">
          <mxGeometry x="110" y="55" width="20" height="20" as="geometry" />
        </mxCell>
        <mxCell id="7y8PsLZq6kF9a2uQAZg5-155" value="" style="rounded=1;whiteSpace=wrap;html=1;fontStyle=0;fontSize=20;strokeWidth=2;fillColor=#E6FFCC;" parent="1" vertex="1">
          <mxGeometry x="150" y="55" width="35" height="20" as="geometry" />
        </mxCell>
        <mxCell id="7y8PsLZq6kF9a2uQAZg5-156" value="" style="rounded=1;whiteSpace=wrap;html=1;fontStyle=0;fontSize=20;strokeWidth=2;fillColor=#E6FFCC;" parent="1" vertex="1">
          <mxGeometry x="110" y="75" width="40" height="20" as="geometry" />
        </mxCell>
        <mxCell id="7y8PsLZq6kF9a2uQAZg5-157" value="" style="rounded=1;whiteSpace=wrap;html=1;fontStyle=0;fontSize=20;strokeWidth=2;fillColor=#E6FFCC;" parent="1" vertex="1">
          <mxGeometry x="230" y="75" width="50" height="20" as="geometry" />
        </mxCell>
        <mxCell id="7y8PsLZq6kF9a2uQAZg5-158" value="" style="rounded=1;whiteSpace=wrap;html=1;fontStyle=0;fontSize=20;strokeWidth=2;fillColor=#E6FFCC;" parent="1" vertex="1">
          <mxGeometry x="180" y="75" width="30" height="20" as="geometry" />
        </mxCell>
        <mxCell id="7y8PsLZq6kF9a2uQAZg5-159" value="" style="rounded=1;whiteSpace=wrap;html=1;fontStyle=0;fontSize=20;strokeWidth=2;fillColor=#E6FFCC;strokeColor=#000000;shadow=0;" parent="1" vertex="1">
          <mxGeometry x="280" y="55" width="30" height="20" as="geometry" />
        </mxCell>
        <mxCell id="7y8PsLZq6kF9a2uQAZg5-160" value="" style="rounded=1;whiteSpace=wrap;html=1;fontStyle=0;fontSize=20;strokeWidth=2;fillColor=#CCFFFF;" parent="1" vertex="1">
          <mxGeometry x="150" y="95" width="30" height="20" as="geometry" />
        </mxCell>
        <mxCell id="7y8PsLZq6kF9a2uQAZg5-161" value="" style="rounded=1;whiteSpace=wrap;html=1;fontStyle=0;fontSize=20;strokeWidth=2;fillColor=#CCFFFF;" parent="1" vertex="1">
          <mxGeometry x="185" y="95" width="40" height="20" as="geometry" />
        </mxCell>
        <mxCell id="7y8PsLZq6kF9a2uQAZg5-162" value="" style="rounded=1;whiteSpace=wrap;html=1;fontStyle=0;fontSize=20;strokeWidth=2;fillColor=#CCFFFF;strokeColor=#000000;perimeterSpacing=0;glass=0;shadow=0;" parent="1" vertex="1">
          <mxGeometry x="270" y="95" width="20" height="20" as="geometry" />
        </mxCell>
        <mxCell id="7y8PsLZq6kF9a2uQAZg5-167" value="" style="rounded=0;whiteSpace=wrap;html=1;fontSize=20;strokeWidth=1;fillColor=#99FFCC;strokeColor=none;gradientColor=none;gradientDirection=north;sketch=1;sketchStyle=rough;fillStyle=dashed;perimeterSpacing=0;labelBackgroundColor=none;disableMultiStroke=0;disableMultiStrokeFill=0;dashOffset=10;dashGap=3;hachureGap=5;fillWeight=1;hachureAngle=-45;curveFitting=-5.05;simplification=1;zigzagOffset=-10;fontStyle=0;container=0;" parent="1" vertex="1">
          <mxGeometry x="90" y="195" width="20" height="40" as="geometry" />
        </mxCell>
        <mxCell id="7y8PsLZq6kF9a2uQAZg5-168" value="" style="rounded=0;whiteSpace=wrap;html=1;fontSize=20;strokeWidth=1;fillColor=#99FFCC;strokeColor=none;gradientColor=none;gradientDirection=north;sketch=1;sketchStyle=rough;fillStyle=dashed;perimeterSpacing=0;labelBackgroundColor=none;disableMultiStroke=0;disableMultiStrokeFill=0;dashOffset=10;dashGap=3;hachureGap=5;fillWeight=1;hachureAngle=-45;curveFitting=-5.05;simplification=1;zigzagOffset=-10;fontStyle=0;container=0;" parent="1" vertex="1">
          <mxGeometry x="230" y="135" width="80" height="40" as="geometry" />
        </mxCell>
        <mxCell id="7y8PsLZq6kF9a2uQAZg5-169" value="" style="rounded=0;whiteSpace=wrap;html=1;fontSize=20;strokeWidth=1;fillColor=#99FFCC;strokeColor=none;gradientColor=none;gradientDirection=north;sketch=1;sketchStyle=rough;fillStyle=dashed;perimeterSpacing=0;labelBackgroundColor=none;disableMultiStroke=0;disableMultiStrokeFill=0;dashOffset=10;dashGap=3;hachureGap=5;fillWeight=1;hachureAngle=-45;curveFitting=-5.05;simplification=1;zigzagOffset=-10;fontStyle=0;container=0;" parent="1" vertex="1">
          <mxGeometry x="150" y="195" width="80" height="40" as="geometry" />
        </mxCell>
        <mxCell id="7y8PsLZq6kF9a2uQAZg5-170" value="" style="rounded=0;whiteSpace=wrap;html=1;fontSize=20;strokeWidth=1;fillColor=#99FFCC;strokeColor=none;gradientColor=none;gradientDirection=north;sketch=1;sketchStyle=rough;fillStyle=dashed;perimeterSpacing=0;labelBackgroundColor=none;disableMultiStroke=0;disableMultiStrokeFill=0;dashOffset=10;dashGap=3;hachureGap=5;fillWeight=1;hachureAngle=-45;curveFitting=-5.05;simplification=1;zigzagOffset=-10;fontStyle=0;container=0;" parent="1" vertex="1">
          <mxGeometry x="110" y="135" width="80" height="40" as="geometry" />
        </mxCell>
        <mxCell id="7y8PsLZq6kF9a2uQAZg5-171" value="" style="rounded=0;whiteSpace=wrap;html=1;fontSize=20;strokeWidth=1;fillColor=#99FFCC;strokeColor=none;gradientColor=none;gradientDirection=north;sketch=1;sketchStyle=rough;fillStyle=dashed;perimeterSpacing=0;labelBackgroundColor=none;disableMultiStroke=0;disableMultiStrokeFill=0;dashOffset=10;dashGap=3;hachureGap=5;fillWeight=1;hachureAngle=-45;curveFitting=-5.05;simplification=1;zigzagOffset=-10;fontStyle=0;container=0;" parent="1" vertex="1">
          <mxGeometry x="270" y="195" width="40" height="40" as="geometry" />
        </mxCell>
        <mxCell id="7y8PsLZq6kF9a2uQAZg5-191" value="" style="rounded=0;whiteSpace=wrap;html=1;fillColor=#E6FFCC;" parent="1" vertex="1">
          <mxGeometry x="110" y="160" width="40" height="15" as="geometry" />
        </mxCell>
        <mxCell id="7y8PsLZq6kF9a2uQAZg5-192" value="" style="rounded=0;whiteSpace=wrap;html=1;fillColor=#E6FFCC;" parent="1" vertex="1">
          <mxGeometry x="110" y="140" width="20" height="20" as="geometry" />
        </mxCell>
        <mxCell id="7y8PsLZq6kF9a2uQAZg5-193" value="" style="rounded=0;whiteSpace=wrap;html=1;fillColor=#E6FFCC;" parent="1" vertex="1">
          <mxGeometry x="150" y="150" width="35" height="25" as="geometry" />
        </mxCell>
        <mxCell id="7y8PsLZq6kF9a2uQAZg5-194" value="" style="rounded=0;whiteSpace=wrap;html=1;fillColor=#E6FFCC;" parent="1" vertex="1">
          <mxGeometry x="150" y="225" width="35" height="10" as="geometry" />
        </mxCell>
        <mxCell id="7y8PsLZq6kF9a2uQAZg5-195" value="" style="rounded=0;whiteSpace=wrap;html=1;fillColor=#CCFFFF;" parent="1" vertex="1">
          <mxGeometry x="150" y="135" width="30" height="15" as="geometry" />
        </mxCell>
        <mxCell id="7y8PsLZq6kF9a2uQAZg5-196" value="" style="rounded=0;whiteSpace=wrap;html=1;fillColor=#CCFFFF;" parent="1" vertex="1">
          <mxGeometry x="150" y="200" width="30" height="25" as="geometry" />
        </mxCell>
        <mxCell id="7y8PsLZq6kF9a2uQAZg5-197" value="" style="rounded=0;whiteSpace=wrap;html=1;fillColor=#E6FFCC;" parent="1" vertex="1">
          <mxGeometry x="180" y="195" width="30" height="30" as="geometry" />
        </mxCell>
        <mxCell id="7y8PsLZq6kF9a2uQAZg5-198" value="" style="rounded=0;whiteSpace=wrap;html=1;fillColor=#CCFFFF;" parent="1" vertex="1">
          <mxGeometry x="185" y="225" width="40" height="10" as="geometry" />
        </mxCell>
        <mxCell id="7y8PsLZq6kF9a2uQAZg5-199" value="" style="rounded=0;whiteSpace=wrap;html=1;fillColor=#CCFFFF;" parent="1" vertex="1">
          <mxGeometry x="270" y="210" width="20" height="25" as="geometry" />
        </mxCell>
        <mxCell id="7y8PsLZq6kF9a2uQAZg5-201" value="" style="rounded=0;whiteSpace=wrap;html=1;fillColor=#E6FFCC;" parent="1" vertex="1">
          <mxGeometry x="230" y="160" width="50" height="15" as="geometry" />
        </mxCell>
        <mxCell id="7y8PsLZq6kF9a2uQAZg5-202" value="" style="rounded=0;whiteSpace=wrap;html=1;fillColor=#E6FFCC;" parent="1" vertex="1">
          <mxGeometry x="280" y="195" width="30" height="15" as="geometry" />
        </mxCell>
        <mxCell id="7y8PsLZq6kF9a2uQAZg5-203" value="" style="rounded=0;whiteSpace=wrap;html=1;fillColor=#E6FFCC;" parent="1" vertex="1">
          <mxGeometry x="280" y="165" width="30" height="10" as="geometry" />
        </mxCell>
        <mxCell id="7y8PsLZq6kF9a2uQAZg5-172" value="" style="endArrow=oval;html=1;rounded=0;fontSize=20;targetPerimeterSpacing=0;strokeWidth=1.5;startArrow=oval;startFill=1;endSize=5;startSize=5;endFill=0;movable=1;resizable=1;rotatable=1;deletable=1;editable=1;locked=0;connectable=1;" parent="1" edge="1">
          <mxGeometry width="50" height="50" relative="1" as="geometry">
            <mxPoint x="110" y="135" as="sourcePoint" />
            <mxPoint x="190" y="135" as="targetPoint" />
          </mxGeometry>
        </mxCell>
        <mxCell id="7y8PsLZq6kF9a2uQAZg5-173" value="" style="endArrow=oval;html=1;rounded=0;fontSize=20;targetPerimeterSpacing=0;strokeWidth=1.5;startArrow=oval;startFill=0;endSize=5;startSize=5;jumpStyle=none;jumpSize=6;dashed=1;dashPattern=1 1;endFill=1;movable=1;resizable=1;rotatable=1;deletable=1;editable=1;locked=0;connectable=1;" parent="1" edge="1">
          <mxGeometry width="50" height="50" relative="1" as="geometry">
            <mxPoint x="110" y="175" as="sourcePoint" />
            <mxPoint x="110" y="135" as="targetPoint" />
          </mxGeometry>
        </mxCell>
        <mxCell id="7y8PsLZq6kF9a2uQAZg5-174" value="" style="endArrow=oval;html=1;rounded=0;fontSize=20;targetPerimeterSpacing=0;strokeWidth=1.5;startArrow=oval;startFill=0;endSize=5;startSize=5;jumpStyle=none;jumpSize=6;dashed=1;dashPattern=1 1;endFill=1;movable=1;resizable=1;rotatable=1;deletable=1;editable=1;locked=0;connectable=1;" parent="1" edge="1">
          <mxGeometry width="50" height="50" relative="1" as="geometry">
            <mxPoint x="190" y="135" as="sourcePoint" />
            <mxPoint x="190" y="175" as="targetPoint" />
          </mxGeometry>
        </mxCell>
        <mxCell id="7y8PsLZq6kF9a2uQAZg5-175" value="" style="endArrow=oval;html=1;rounded=0;fontSize=20;targetPerimeterSpacing=0;strokeWidth=1.5;startArrow=oval;startFill=0;endSize=5;startSize=5;jumpStyle=none;jumpSize=6;dashed=1;dashPattern=1 1;endFill=1;movable=1;resizable=1;rotatable=1;deletable=1;editable=1;locked=0;connectable=1;" parent="1" edge="1">
          <mxGeometry width="50" height="50" relative="1" as="geometry">
            <mxPoint x="230" y="175" as="sourcePoint" />
            <mxPoint x="230" y="135" as="targetPoint" />
          </mxGeometry>
        </mxCell>
        <mxCell id="7y8PsLZq6kF9a2uQAZg5-176" value="" style="endArrow=none;html=1;rounded=0;fontSize=20;targetPerimeterSpacing=0;strokeWidth=1.5;startArrow=oval;startFill=1;endSize=5;startSize=5;endFill=0;movable=1;resizable=1;rotatable=1;deletable=1;editable=1;locked=0;connectable=1;" parent="1" edge="1">
          <mxGeometry width="50" height="50" relative="1" as="geometry">
            <mxPoint x="230" y="135.14499999999998" as="sourcePoint" />
            <mxPoint x="310" y="135" as="targetPoint" />
          </mxGeometry>
        </mxCell>
        <mxCell id="7y8PsLZq6kF9a2uQAZg5-177" value="" style="endArrow=oval;html=1;rounded=0;fontSize=20;targetPerimeterSpacing=0;strokeWidth=1.5;startArrow=oval;startFill=1;endSize=5;startSize=5;endFill=0;movable=1;resizable=1;rotatable=1;deletable=1;editable=1;locked=0;connectable=1;" parent="1" edge="1">
          <mxGeometry width="50" height="50" relative="1" as="geometry">
            <mxPoint x="150" y="195" as="sourcePoint" />
            <mxPoint x="230" y="195" as="targetPoint" />
          </mxGeometry>
        </mxCell>
        <mxCell id="7y8PsLZq6kF9a2uQAZg5-178" value="" style="endArrow=oval;html=1;rounded=0;fontSize=20;targetPerimeterSpacing=0;strokeWidth=1.5;startArrow=oval;startFill=0;endSize=5;startSize=5;jumpStyle=none;jumpSize=6;dashed=1;dashPattern=1 1;endFill=1;movable=1;resizable=1;rotatable=1;deletable=1;editable=1;locked=0;connectable=1;" parent="1" edge="1">
          <mxGeometry width="50" height="50" relative="1" as="geometry">
            <mxPoint x="150" y="235" as="sourcePoint" />
            <mxPoint x="150" y="195" as="targetPoint" />
          </mxGeometry>
        </mxCell>
        <mxCell id="7y8PsLZq6kF9a2uQAZg5-179" value="" style="endArrow=oval;html=1;rounded=0;fontSize=20;targetPerimeterSpacing=0;strokeWidth=1.5;startArrow=oval;startFill=0;endSize=5;startSize=5;jumpStyle=none;jumpSize=6;dashed=1;dashPattern=1 1;endFill=1;movable=1;resizable=1;rotatable=1;deletable=1;editable=1;locked=0;connectable=1;" parent="1" edge="1">
          <mxGeometry width="50" height="50" relative="1" as="geometry">
            <mxPoint x="230" y="195" as="sourcePoint" />
            <mxPoint x="230" y="235" as="targetPoint" />
          </mxGeometry>
        </mxCell>
        <mxCell id="7y8PsLZq6kF9a2uQAZg5-180" value="" style="endArrow=oval;html=1;rounded=0;fontSize=20;targetPerimeterSpacing=0;strokeWidth=1.5;startArrow=oval;startFill=0;endSize=5;startSize=5;jumpStyle=none;jumpSize=6;dashed=1;dashPattern=1 1;endFill=1;movable=1;resizable=1;rotatable=1;deletable=1;editable=1;locked=0;connectable=1;" parent="1" edge="1">
          <mxGeometry width="50" height="50" relative="1" as="geometry">
            <mxPoint x="270" y="235" as="sourcePoint" />
            <mxPoint x="270" y="195" as="targetPoint" />
          </mxGeometry>
        </mxCell>
        <mxCell id="7y8PsLZq6kF9a2uQAZg5-181" value="" style="endArrow=none;html=1;rounded=0;fontSize=20;targetPerimeterSpacing=0;strokeWidth=1.5;startArrow=oval;startFill=1;endSize=5;startSize=5;endFill=0;movable=1;resizable=1;rotatable=1;deletable=1;editable=1;locked=0;connectable=1;" parent="1" edge="1">
          <mxGeometry width="50" height="50" relative="1" as="geometry">
            <mxPoint x="270" y="195.14499999999998" as="sourcePoint" />
            <mxPoint x="310" y="195" as="targetPoint" />
          </mxGeometry>
        </mxCell>
        <mxCell id="7y8PsLZq6kF9a2uQAZg5-182" value="" style="endArrow=oval;html=1;rounded=0;fontSize=20;targetPerimeterSpacing=0;strokeWidth=1.5;startArrow=none;startFill=0;endSize=5;startSize=5;endFill=0;fontStyle=0" parent="1" edge="1">
          <mxGeometry width="50" height="50" relative="1" as="geometry">
            <mxPoint x="90" y="195.265" as="sourcePoint" />
            <mxPoint x="110" y="195.265" as="targetPoint" />
          </mxGeometry>
        </mxCell>
        <mxCell id="7y8PsLZq6kF9a2uQAZg5-183" value="" style="endArrow=oval;html=1;rounded=0;fontSize=20;targetPerimeterSpacing=0;strokeWidth=1.5;startArrow=oval;startFill=0;endSize=5;startSize=5;jumpStyle=none;jumpSize=6;dashed=1;dashPattern=1 1;endFill=1;movable=1;resizable=1;rotatable=1;deletable=1;editable=1;locked=0;connectable=1;" parent="1" edge="1">
          <mxGeometry width="50" height="50" relative="1" as="geometry">
            <mxPoint x="110" y="195" as="sourcePoint" />
            <mxPoint x="110" y="235" as="targetPoint" />
          </mxGeometry>
        </mxCell>
        <mxCell id="7y8PsLZq6kF9a2uQAZg5-204" value="" style="endArrow=oval;html=1;rounded=0;fontSize=20;targetPerimeterSpacing=0;strokeWidth=1.5;startArrow=oval;startFill=1;endSize=5;startSize=5;endFill=0;movable=1;resizable=1;rotatable=1;deletable=1;editable=1;locked=0;connectable=1;" parent="1" edge="1">
          <mxGeometry width="50" height="50" relative="1" as="geometry">
            <mxPoint x="110" y="235" as="sourcePoint" />
            <mxPoint x="150" y="235" as="targetPoint" />
          </mxGeometry>
        </mxCell>
        <mxCell id="7y8PsLZq6kF9a2uQAZg5-205" value="" style="endArrow=oval;html=1;rounded=0;fontSize=20;targetPerimeterSpacing=0;strokeWidth=1.5;startArrow=oval;startFill=1;endSize=5;startSize=5;endFill=0;movable=1;resizable=1;rotatable=1;deletable=1;editable=1;locked=0;connectable=1;" parent="1" edge="1">
          <mxGeometry width="50" height="50" relative="1" as="geometry">
            <mxPoint x="230" y="235" as="sourcePoint" />
            <mxPoint x="270" y="235" as="targetPoint" />
          </mxGeometry>
        </mxCell>
        <mxCell id="7y8PsLZq6kF9a2uQAZg5-206" value="" style="endArrow=oval;html=1;rounded=0;fontSize=20;targetPerimeterSpacing=0;strokeWidth=1.5;startArrow=oval;startFill=1;endSize=5;startSize=5;endFill=0;movable=1;resizable=1;rotatable=1;deletable=1;editable=1;locked=0;connectable=1;" parent="1" edge="1">
          <mxGeometry width="50" height="50" relative="1" as="geometry">
            <mxPoint x="190" y="175" as="sourcePoint" />
            <mxPoint x="230" y="175" as="targetPoint" />
          </mxGeometry>
        </mxCell>
        <mxCell id="7y8PsLZq6kF9a2uQAZg5-208" value="" style="endArrow=oval;html=1;rounded=0;fontSize=20;targetPerimeterSpacing=0;strokeWidth=1.5;startArrow=none;startFill=0;endSize=5;startSize=5;endFill=0;fontStyle=0" parent="1" edge="1">
          <mxGeometry width="50" height="50" relative="1" as="geometry">
            <mxPoint x="90" y="175.265" as="sourcePoint" />
            <mxPoint x="110" y="175.265" as="targetPoint" />
          </mxGeometry>
        </mxCell>
        <mxCell id="7y8PsLZq6kF9a2uQAZg5-215" value="" style="shape=flexArrow;endArrow=classic;html=1;rounded=0;endWidth=8;endSize=9.332799999999999;shadow=1;fillColor=#66B2FF;" parent="1" edge="1">
          <mxGeometry width="50" height="50" relative="1" as="geometry">
            <mxPoint x="330" y="100" as="sourcePoint" />
            <mxPoint x="470" y="99.84" as="targetPoint" />
          </mxGeometry>
        </mxCell>
        <mxCell id="7y8PsLZq6kF9a2uQAZg5-217" value="" style="rounded=0;whiteSpace=wrap;html=1;glass=0;sketch=0;fillStyle=auto;sketchStyle=rough;fontSize=20;strokeColor=none;strokeWidth=1;fillColor=#EDEDED;gradientColor=none;gradientDirection=north;container=0;movable=1;resizable=1;rotatable=1;deletable=1;editable=1;locked=0;connectable=1;" parent="1" vertex="1">
          <mxGeometry x="490" y="110" width="220" height="50" as="geometry" />
        </mxCell>
        <mxCell id="7y8PsLZq6kF9a2uQAZg5-218" value="" style="rounded=0;whiteSpace=wrap;html=1;glass=0;sketch=0;fillStyle=auto;sketchStyle=rough;fontSize=20;strokeColor=none;strokeWidth=1;fillColor=#EDEDED;gradientColor=none;gradientDirection=north;container=0;movable=1;resizable=1;rotatable=1;deletable=1;editable=1;locked=0;connectable=1;" parent="1" vertex="1">
          <mxGeometry x="490" y="50" width="220" height="50" as="geometry" />
        </mxCell>
        <mxCell id="7y8PsLZq6kF9a2uQAZg5-219" value="" style="rounded=0;whiteSpace=wrap;html=1;fontSize=20;strokeWidth=1;fillColor=#B3B3B3;strokeColor=none;gradientColor=none;gradientDirection=north;sketch=1;sketchStyle=rough;fillStyle=dashed;perimeterSpacing=0;labelBackgroundColor=none;disableMultiStroke=0;disableMultiStrokeFill=0;dashOffset=10;dashGap=3;hachureGap=5;fillWeight=1;hachureAngle=-45;curveFitting=-5.05;simplification=1;zigzagOffset=-10;fontStyle=0;container=0;" parent="1" vertex="1">
          <mxGeometry x="490" y="115" width="20" height="40" as="geometry" />
        </mxCell>
        <mxCell id="7y8PsLZq6kF9a2uQAZg5-220" value="" style="rounded=0;whiteSpace=wrap;html=1;fontSize=20;strokeWidth=1;fillColor=#B3B3B3;strokeColor=none;gradientColor=none;gradientDirection=north;sketch=1;sketchStyle=rough;fillStyle=dashed;perimeterSpacing=0;labelBackgroundColor=none;disableMultiStroke=0;disableMultiStrokeFill=0;dashOffset=10;dashGap=3;hachureGap=5;fillWeight=1;hachureAngle=-45;curveFitting=-5.05;simplification=1;zigzagOffset=-10;fontStyle=0;container=0;" parent="1" vertex="1">
          <mxGeometry x="630" y="55" width="80" height="40" as="geometry" />
        </mxCell>
        <mxCell id="7y8PsLZq6kF9a2uQAZg5-221" value="" style="rounded=0;whiteSpace=wrap;html=1;fontSize=20;strokeWidth=1;fillColor=#B3B3B3;strokeColor=none;gradientColor=none;gradientDirection=north;sketch=1;sketchStyle=rough;fillStyle=dashed;perimeterSpacing=0;labelBackgroundColor=none;disableMultiStroke=0;disableMultiStrokeFill=0;dashOffset=10;dashGap=3;hachureGap=5;fillWeight=1;hachureAngle=-45;curveFitting=-5.05;simplification=1;zigzagOffset=-10;fontStyle=0;container=0;" parent="1" vertex="1">
          <mxGeometry x="550" y="115" width="80" height="40" as="geometry" />
        </mxCell>
        <mxCell id="7y8PsLZq6kF9a2uQAZg5-222" value="" style="rounded=0;whiteSpace=wrap;html=1;fontSize=20;strokeWidth=1;fillColor=#B3B3B3;strokeColor=none;gradientColor=none;gradientDirection=north;sketch=1;sketchStyle=rough;fillStyle=dashed;perimeterSpacing=0;labelBackgroundColor=none;disableMultiStroke=0;disableMultiStrokeFill=0;dashOffset=10;dashGap=3;hachureGap=5;fillWeight=1;hachureAngle=-45;curveFitting=-5.05;simplification=1;zigzagOffset=-10;fontStyle=0;container=0;" parent="1" vertex="1">
          <mxGeometry x="510" y="55" width="80" height="40" as="geometry" />
        </mxCell>
        <mxCell id="7y8PsLZq6kF9a2uQAZg5-223" value="" style="rounded=0;whiteSpace=wrap;html=1;fontSize=20;strokeWidth=1;fillColor=#B3B3B3;strokeColor=none;gradientColor=none;gradientDirection=north;sketch=1;sketchStyle=rough;fillStyle=dashed;perimeterSpacing=0;labelBackgroundColor=none;disableMultiStroke=0;disableMultiStrokeFill=0;dashOffset=10;dashGap=3;hachureGap=5;fillWeight=1;hachureAngle=-45;curveFitting=-5.05;simplification=1;zigzagOffset=-10;fontStyle=0;container=0;" parent="1" vertex="1">
          <mxGeometry x="670" y="115" width="40" height="40" as="geometry" />
        </mxCell>
        <mxCell id="7y8PsLZq6kF9a2uQAZg5-224" value="" style="rounded=0;whiteSpace=wrap;html=1;fillColor=#999999;" parent="1" vertex="1">
          <mxGeometry x="510" y="80" width="40" height="15" as="geometry" />
        </mxCell>
        <mxCell id="7y8PsLZq6kF9a2uQAZg5-225" value="" style="rounded=0;whiteSpace=wrap;html=1;fillColor=#999999;" parent="1" vertex="1">
          <mxGeometry x="510" y="60" width="20" height="20" as="geometry" />
        </mxCell>
        <mxCell id="7y8PsLZq6kF9a2uQAZg5-226" value="" style="rounded=0;whiteSpace=wrap;html=1;fillColor=#999999;" parent="1" vertex="1">
          <mxGeometry x="550" y="70" width="35" height="25" as="geometry" />
        </mxCell>
        <mxCell id="7y8PsLZq6kF9a2uQAZg5-227" value="" style="rounded=0;whiteSpace=wrap;html=1;fillColor=#999999;" parent="1" vertex="1">
          <mxGeometry x="550" y="145" width="35" height="10" as="geometry" />
        </mxCell>
        <mxCell id="7y8PsLZq6kF9a2uQAZg5-228" value="" style="rounded=0;whiteSpace=wrap;html=1;fillColor=#999999;" parent="1" vertex="1">
          <mxGeometry x="550" y="55" width="30" height="15" as="geometry" />
        </mxCell>
        <mxCell id="7y8PsLZq6kF9a2uQAZg5-229" value="" style="rounded=0;whiteSpace=wrap;html=1;fillColor=#999999;" parent="1" vertex="1">
          <mxGeometry x="550" y="120" width="30" height="25" as="geometry" />
        </mxCell>
        <mxCell id="7y8PsLZq6kF9a2uQAZg5-230" value="" style="rounded=0;whiteSpace=wrap;html=1;fillColor=#999999;" parent="1" vertex="1">
          <mxGeometry x="580" y="115" width="30" height="30" as="geometry" />
        </mxCell>
        <mxCell id="7y8PsLZq6kF9a2uQAZg5-231" value="" style="rounded=0;whiteSpace=wrap;html=1;fillColor=#999999;" parent="1" vertex="1">
          <mxGeometry x="585" y="145" width="40" height="10" as="geometry" />
        </mxCell>
        <mxCell id="7y8PsLZq6kF9a2uQAZg5-232" value="" style="rounded=0;whiteSpace=wrap;html=1;fillColor=#999999;" parent="1" vertex="1">
          <mxGeometry x="670" y="130" width="20" height="25" as="geometry" />
        </mxCell>
        <mxCell id="7y8PsLZq6kF9a2uQAZg5-234" value="" style="rounded=0;whiteSpace=wrap;html=1;fillColor=#999999;" parent="1" vertex="1">
          <mxGeometry x="630" y="80" width="50" height="15" as="geometry" />
        </mxCell>
        <mxCell id="7y8PsLZq6kF9a2uQAZg5-235" value="" style="rounded=0;whiteSpace=wrap;html=1;fillColor=#999999;" parent="1" vertex="1">
          <mxGeometry x="680" y="115" width="30" height="15" as="geometry" />
        </mxCell>
        <mxCell id="7y8PsLZq6kF9a2uQAZg5-236" value="" style="rounded=0;whiteSpace=wrap;html=1;fillColor=#999999;" parent="1" vertex="1">
          <mxGeometry x="680" y="85" width="30" height="10" as="geometry" />
        </mxCell>
        <mxCell id="7y8PsLZq6kF9a2uQAZg5-237" value="" style="endArrow=oval;html=1;rounded=0;fontSize=20;targetPerimeterSpacing=0;strokeWidth=1.5;startArrow=oval;startFill=1;endSize=5;startSize=5;endFill=0;movable=1;resizable=1;rotatable=1;deletable=1;editable=1;locked=0;connectable=1;" parent="1" edge="1">
          <mxGeometry width="50" height="50" relative="1" as="geometry">
            <mxPoint x="510" y="55" as="sourcePoint" />
            <mxPoint x="590" y="55" as="targetPoint" />
          </mxGeometry>
        </mxCell>
        <mxCell id="7y8PsLZq6kF9a2uQAZg5-238" value="" style="endArrow=oval;html=1;rounded=0;fontSize=20;targetPerimeterSpacing=0;strokeWidth=1.5;startArrow=oval;startFill=0;endSize=5;startSize=5;jumpStyle=none;jumpSize=6;dashed=1;dashPattern=1 1;endFill=1;movable=1;resizable=1;rotatable=1;deletable=1;editable=1;locked=0;connectable=1;" parent="1" edge="1">
          <mxGeometry width="50" height="50" relative="1" as="geometry">
            <mxPoint x="510" y="95" as="sourcePoint" />
            <mxPoint x="510" y="55" as="targetPoint" />
          </mxGeometry>
        </mxCell>
        <mxCell id="7y8PsLZq6kF9a2uQAZg5-239" value="" style="endArrow=oval;html=1;rounded=0;fontSize=20;targetPerimeterSpacing=0;strokeWidth=1.5;startArrow=oval;startFill=0;endSize=5;startSize=5;jumpStyle=none;jumpSize=6;dashed=1;dashPattern=1 1;endFill=1;movable=1;resizable=1;rotatable=1;deletable=1;editable=1;locked=0;connectable=1;" parent="1" edge="1">
          <mxGeometry width="50" height="50" relative="1" as="geometry">
            <mxPoint x="590" y="55" as="sourcePoint" />
            <mxPoint x="590" y="95" as="targetPoint" />
          </mxGeometry>
        </mxCell>
        <mxCell id="7y8PsLZq6kF9a2uQAZg5-240" value="" style="endArrow=oval;html=1;rounded=0;fontSize=20;targetPerimeterSpacing=0;strokeWidth=1.5;startArrow=oval;startFill=0;endSize=5;startSize=5;jumpStyle=none;jumpSize=6;dashed=1;dashPattern=1 1;endFill=1;movable=1;resizable=1;rotatable=1;deletable=1;editable=1;locked=0;connectable=1;" parent="1" edge="1">
          <mxGeometry width="50" height="50" relative="1" as="geometry">
            <mxPoint x="630" y="95" as="sourcePoint" />
            <mxPoint x="630" y="55" as="targetPoint" />
          </mxGeometry>
        </mxCell>
        <mxCell id="7y8PsLZq6kF9a2uQAZg5-241" value="" style="endArrow=none;html=1;rounded=0;fontSize=20;targetPerimeterSpacing=0;strokeWidth=1.5;startArrow=oval;startFill=1;endSize=5;startSize=5;endFill=0;movable=1;resizable=1;rotatable=1;deletable=1;editable=1;locked=0;connectable=1;" parent="1" edge="1">
          <mxGeometry width="50" height="50" relative="1" as="geometry">
            <mxPoint x="630" y="55.14499999999998" as="sourcePoint" />
            <mxPoint x="710" y="55" as="targetPoint" />
          </mxGeometry>
        </mxCell>
        <mxCell id="7y8PsLZq6kF9a2uQAZg5-242" value="" style="endArrow=oval;html=1;rounded=0;fontSize=20;targetPerimeterSpacing=0;strokeWidth=1.5;startArrow=oval;startFill=1;endSize=5;startSize=5;endFill=0;movable=1;resizable=1;rotatable=1;deletable=1;editable=1;locked=0;connectable=1;" parent="1" edge="1">
          <mxGeometry width="50" height="50" relative="1" as="geometry">
            <mxPoint x="550" y="115" as="sourcePoint" />
            <mxPoint x="630" y="115" as="targetPoint" />
          </mxGeometry>
        </mxCell>
        <mxCell id="7y8PsLZq6kF9a2uQAZg5-243" value="" style="endArrow=oval;html=1;rounded=0;fontSize=20;targetPerimeterSpacing=0;strokeWidth=1.5;startArrow=oval;startFill=0;endSize=5;startSize=5;jumpStyle=none;jumpSize=6;dashed=1;dashPattern=1 1;endFill=1;movable=1;resizable=1;rotatable=1;deletable=1;editable=1;locked=0;connectable=1;" parent="1" edge="1">
          <mxGeometry width="50" height="50" relative="1" as="geometry">
            <mxPoint x="550" y="155" as="sourcePoint" />
            <mxPoint x="550" y="115" as="targetPoint" />
          </mxGeometry>
        </mxCell>
        <mxCell id="7y8PsLZq6kF9a2uQAZg5-244" value="" style="endArrow=oval;html=1;rounded=0;fontSize=20;targetPerimeterSpacing=0;strokeWidth=1.5;startArrow=oval;startFill=0;endSize=5;startSize=5;jumpStyle=none;jumpSize=6;dashed=1;dashPattern=1 1;endFill=1;movable=1;resizable=1;rotatable=1;deletable=1;editable=1;locked=0;connectable=1;" parent="1" edge="1">
          <mxGeometry width="50" height="50" relative="1" as="geometry">
            <mxPoint x="630" y="115" as="sourcePoint" />
            <mxPoint x="630" y="155" as="targetPoint" />
          </mxGeometry>
        </mxCell>
        <mxCell id="7y8PsLZq6kF9a2uQAZg5-245" value="" style="endArrow=oval;html=1;rounded=0;fontSize=20;targetPerimeterSpacing=0;strokeWidth=1.5;startArrow=oval;startFill=0;endSize=5;startSize=5;jumpStyle=none;jumpSize=6;dashed=1;dashPattern=1 1;endFill=1;movable=1;resizable=1;rotatable=1;deletable=1;editable=1;locked=0;connectable=1;" parent="1" edge="1">
          <mxGeometry width="50" height="50" relative="1" as="geometry">
            <mxPoint x="670" y="155" as="sourcePoint" />
            <mxPoint x="670" y="115" as="targetPoint" />
          </mxGeometry>
        </mxCell>
        <mxCell id="7y8PsLZq6kF9a2uQAZg5-246" value="" style="endArrow=none;html=1;rounded=0;fontSize=20;targetPerimeterSpacing=0;strokeWidth=1.5;startArrow=oval;startFill=1;endSize=5;startSize=5;endFill=0;movable=1;resizable=1;rotatable=1;deletable=1;editable=1;locked=0;connectable=1;" parent="1" edge="1">
          <mxGeometry width="50" height="50" relative="1" as="geometry">
            <mxPoint x="670" y="115.14499999999998" as="sourcePoint" />
            <mxPoint x="710" y="115" as="targetPoint" />
          </mxGeometry>
        </mxCell>
        <mxCell id="7y8PsLZq6kF9a2uQAZg5-247" value="" style="endArrow=oval;html=1;rounded=0;fontSize=20;targetPerimeterSpacing=0;strokeWidth=1.5;startArrow=none;startFill=0;endSize=5;startSize=5;endFill=0;fontStyle=0" parent="1" edge="1">
          <mxGeometry width="50" height="50" relative="1" as="geometry">
            <mxPoint x="490" y="115.26499999999999" as="sourcePoint" />
            <mxPoint x="510" y="115.26499999999999" as="targetPoint" />
          </mxGeometry>
        </mxCell>
        <mxCell id="7y8PsLZq6kF9a2uQAZg5-248" value="" style="endArrow=oval;html=1;rounded=0;fontSize=20;targetPerimeterSpacing=0;strokeWidth=1.5;startArrow=oval;startFill=0;endSize=5;startSize=5;jumpStyle=none;jumpSize=6;dashed=1;dashPattern=1 1;endFill=1;movable=1;resizable=1;rotatable=1;deletable=1;editable=1;locked=0;connectable=1;" parent="1" edge="1">
          <mxGeometry width="50" height="50" relative="1" as="geometry">
            <mxPoint x="510" y="115" as="sourcePoint" />
            <mxPoint x="510" y="155" as="targetPoint" />
          </mxGeometry>
        </mxCell>
        <mxCell id="7y8PsLZq6kF9a2uQAZg5-249" value="" style="endArrow=oval;html=1;rounded=0;fontSize=20;targetPerimeterSpacing=0;strokeWidth=1.5;startArrow=oval;startFill=1;endSize=5;startSize=5;endFill=0;movable=1;resizable=1;rotatable=1;deletable=1;editable=1;locked=0;connectable=1;" parent="1" edge="1">
          <mxGeometry width="50" height="50" relative="1" as="geometry">
            <mxPoint x="510" y="155" as="sourcePoint" />
            <mxPoint x="550" y="155" as="targetPoint" />
          </mxGeometry>
        </mxCell>
        <mxCell id="7y8PsLZq6kF9a2uQAZg5-250" value="" style="endArrow=oval;html=1;rounded=0;fontSize=20;targetPerimeterSpacing=0;strokeWidth=1.5;startArrow=oval;startFill=1;endSize=5;startSize=5;endFill=0;movable=1;resizable=1;rotatable=1;deletable=1;editable=1;locked=0;connectable=1;" parent="1" edge="1">
          <mxGeometry width="50" height="50" relative="1" as="geometry">
            <mxPoint x="630" y="155" as="sourcePoint" />
            <mxPoint x="670" y="155" as="targetPoint" />
          </mxGeometry>
        </mxCell>
        <mxCell id="7y8PsLZq6kF9a2uQAZg5-251" value="" style="endArrow=oval;html=1;rounded=0;fontSize=20;targetPerimeterSpacing=0;strokeWidth=1.5;startArrow=oval;startFill=1;endSize=5;startSize=5;endFill=0;movable=1;resizable=1;rotatable=1;deletable=1;editable=1;locked=0;connectable=1;" parent="1" edge="1">
          <mxGeometry width="50" height="50" relative="1" as="geometry">
            <mxPoint x="590" y="95" as="sourcePoint" />
            <mxPoint x="630" y="95" as="targetPoint" />
          </mxGeometry>
        </mxCell>
        <mxCell id="7y8PsLZq6kF9a2uQAZg5-252" value="" style="endArrow=oval;html=1;rounded=0;fontSize=20;targetPerimeterSpacing=0;strokeWidth=1.5;startArrow=none;startFill=0;endSize=5;startSize=5;endFill=0;fontStyle=0" parent="1" edge="1">
          <mxGeometry width="50" height="50" relative="1" as="geometry">
            <mxPoint x="490" y="95.26499999999999" as="sourcePoint" />
            <mxPoint x="510" y="95.26499999999999" as="targetPoint" />
          </mxGeometry>
        </mxCell>
        <mxCell id="7y8PsLZq6kF9a2uQAZg5-259" value="&lt;span style=&quot;color: rgb(0, 0, 0); font-family: Helvetica; font-size: 12px; font-style: normal; font-variant-ligatures: normal; font-variant-caps: normal; font-weight: 400; letter-spacing: normal; orphans: 2; text-align: center; text-indent: 0px; text-transform: none; widows: 2; word-spacing: 0px; -webkit-text-stroke-width: 0px; text-decoration-thickness: initial; text-decoration-style: initial; text-decoration-color: initial; float: none; display: inline !important;&quot;&gt;Identify bottleneck resource&lt;/span&gt;" style="rounded=0;whiteSpace=wrap;html=1;verticalAlign=middle;gradientColor=none;shadow=1;fillColor=#FFFFFF;labelBackgroundColor=none;" parent="1" vertex="1">
          <mxGeometry x="330" y="40" width="140" height="40" as="geometry" />
        </mxCell>
        <mxCell id="7y8PsLZq6kF9a2uQAZg5-262" value="" style="shape=flexArrow;endArrow=classic;html=1;rounded=0;endWidth=8;endSize=9.332799999999999;shadow=1;fillColor=#66B2FF;" parent="1" edge="1">
          <mxGeometry width="50" height="50" relative="1" as="geometry">
            <mxPoint x="600" y="180" as="sourcePoint" />
            <mxPoint x="600" y="230" as="targetPoint" />
          </mxGeometry>
        </mxCell>
        <mxCell id="7y8PsLZq6kF9a2uQAZg5-263" value="&lt;span style=&quot;color: rgb(0, 0, 0); font-family: Helvetica; font-size: 12px; font-style: normal; font-variant-ligatures: normal; font-variant-caps: normal; font-weight: 400; letter-spacing: normal; orphans: 2; text-align: center; text-indent: 0px; text-transform: none; widows: 2; word-spacing: 0px; -webkit-text-stroke-width: 0px; text-decoration-thickness: initial; text-decoration-style: initial; text-decoration-color: initial; float: none; display: inline !important;&quot;&gt;Identify improvement period&lt;br&gt;&lt;/span&gt;" style="rounded=0;whiteSpace=wrap;html=1;verticalAlign=middle;gradientColor=none;shadow=1;fillColor=#FFFFFF;labelBackgroundColor=none;" parent="1" vertex="1">
          <mxGeometry x="620" y="180" width="100" height="50" as="geometry" />
        </mxCell>
        <mxCell id="7y8PsLZq6kF9a2uQAZg5-265" value="" style="rounded=0;whiteSpace=wrap;html=1;fillColor=#99FF99;strokeColor=none;" parent="1" vertex="1">
          <mxGeometry x="550" y="275" width="30" height="35" as="geometry" />
        </mxCell>
        <mxCell id="7y8PsLZq6kF9a2uQAZg5-281" value="" style="rounded=0;whiteSpace=wrap;html=1;fillColor=#99FF99;strokeColor=none;" parent="1" vertex="1">
          <mxGeometry x="580" y="270" width="30" height="40" as="geometry" />
        </mxCell>
        <mxCell id="7y8PsLZq6kF9a2uQAZg5-282" value="" style="rounded=0;whiteSpace=wrap;html=1;fillColor=#99FF99;strokeColor=none;" parent="1" vertex="1">
          <mxGeometry x="610" y="300" width="15" height="10" as="geometry" />
        </mxCell>
        <mxCell id="7y8PsLZq6kF9a2uQAZg5-283" value="" style="rounded=0;whiteSpace=wrap;html=1;fillColor=#99FF99;strokeColor=none;" parent="1" vertex="1">
          <mxGeometry x="670" y="285" width="10" height="25" as="geometry" />
        </mxCell>
        <mxCell id="7y8PsLZq6kF9a2uQAZg5-284" value="" style="rounded=0;whiteSpace=wrap;html=1;fillColor=#99FF99;strokeColor=none;" parent="1" vertex="1">
          <mxGeometry x="680" y="270" width="10" height="40" as="geometry" />
        </mxCell>
        <mxCell id="7y8PsLZq6kF9a2uQAZg5-285" value="" style="rounded=0;whiteSpace=wrap;html=1;fillColor=#99FF99;strokeColor=none;" parent="1" vertex="1">
          <mxGeometry x="690" y="295" width="20" height="15" as="geometry" />
        </mxCell>
        <mxCell id="7y8PsLZq6kF9a2uQAZg5-286" value="" style="endArrow=none;html=1;rounded=0;" parent="1" edge="1">
          <mxGeometry width="50" height="50" relative="1" as="geometry">
            <mxPoint x="470" y="310" as="sourcePoint" />
            <mxPoint x="710" y="310" as="targetPoint" />
            <Array as="points">
              <mxPoint x="550" y="310" />
              <mxPoint x="550" y="275" />
              <mxPoint x="580" y="275" />
              <mxPoint x="580" y="270" />
              <mxPoint x="610" y="270" />
              <mxPoint x="610" y="300" />
              <mxPoint x="625" y="300" />
              <mxPoint x="625" y="310" />
              <mxPoint x="670" y="310" />
              <mxPoint x="670" y="285" />
              <mxPoint x="680" y="285" />
              <mxPoint x="680" y="270" />
              <mxPoint x="690" y="270" />
              <mxPoint x="690" y="295" />
              <mxPoint x="710" y="295" />
            </Array>
          </mxGeometry>
        </mxCell>
        <mxCell id="7y8PsLZq6kF9a2uQAZg5-288" value="" style="endArrow=none;dashed=1;html=1;rounded=0;dashPattern=1 1;" parent="1" edge="1">
          <mxGeometry width="50" height="50" relative="1" as="geometry">
            <mxPoint x="470" y="310" as="sourcePoint" />
            <mxPoint x="710" y="310" as="targetPoint" />
          </mxGeometry>
        </mxCell>
        <mxCell id="7y8PsLZq6kF9a2uQAZg5-297" value="" style="rounded=0;whiteSpace=wrap;html=1;fillColor=#99FF99;strokeColor=default;" parent="1" vertex="1">
          <mxGeometry x="550" y="355" width="40" height="35" as="geometry" />
        </mxCell>
        <mxCell id="7y8PsLZq6kF9a2uQAZg5-298" value="" style="rounded=0;whiteSpace=wrap;html=1;fillColor=#99FF99;strokeColor=default;" parent="1" vertex="1">
          <mxGeometry x="590" y="365" width="40" height="25" as="geometry" />
        </mxCell>
        <mxCell id="7y8PsLZq6kF9a2uQAZg5-299" value="" style="rounded=0;whiteSpace=wrap;html=1;fillColor=#99FF99;strokeColor=default;" parent="1" vertex="1">
          <mxGeometry x="670" y="365" width="40" height="25" as="geometry" />
        </mxCell>
        <mxCell id="7y8PsLZq6kF9a2uQAZg5-301" value="" style="endArrow=none;html=1;rounded=0;" parent="1" edge="1">
          <mxGeometry width="50" height="50" relative="1" as="geometry">
            <mxPoint x="470" y="390" as="sourcePoint" />
            <mxPoint x="710" y="390" as="targetPoint" />
          </mxGeometry>
        </mxCell>
        <mxCell id="7y8PsLZq6kF9a2uQAZg5-302" value="" style="rounded=0;whiteSpace=wrap;html=1;fillColor=#99FF99;strokeColor=default;" parent="1" vertex="1">
          <mxGeometry x="510" y="441" width="40" height="29" as="geometry" />
        </mxCell>
        <mxCell id="7y8PsLZq6kF9a2uQAZg5-305" value="\(0\)" style="rounded=0;whiteSpace=wrap;html=1;align=center;fontSize=10;" parent="1" vertex="1">
          <mxGeometry x="520" y="380" width="20" height="20" as="geometry" />
        </mxCell>
        <mxCell id="7y8PsLZq6kF9a2uQAZg5-306" value="\(58\)" style="rounded=0;whiteSpace=wrap;html=1;align=center;fontSize=10;" parent="1" vertex="1">
          <mxGeometry x="560" y="379.5" width="20" height="20" as="geometry" />
        </mxCell>
        <mxCell id="7y8PsLZq6kF9a2uQAZg5-307" value="\(38\)" style="rounded=0;whiteSpace=wrap;html=1;align=center;fontSize=10;" parent="1" vertex="1">
          <mxGeometry x="600" y="379.5" width="20" height="20" as="geometry" />
        </mxCell>
        <mxCell id="7y8PsLZq6kF9a2uQAZg5-308" value="\(0\)" style="rounded=0;whiteSpace=wrap;html=1;align=center;fontSize=10;" parent="1" vertex="1">
          <mxGeometry x="640" y="379.5" width="20" height="20" as="geometry" />
        </mxCell>
        <mxCell id="7y8PsLZq6kF9a2uQAZg5-309" value="\(38\)" style="rounded=0;whiteSpace=wrap;html=1;align=center;fontSize=10;" parent="1" vertex="1">
          <mxGeometry x="680" y="380" width="20" height="20" as="geometry" />
        </mxCell>
        <mxCell id="7y8PsLZq6kF9a2uQAZg5-313" value="\(0\)" style="rounded=0;whiteSpace=wrap;html=1;align=center;fontSize=10;" parent="1" vertex="1">
          <mxGeometry x="480" y="380" width="20" height="20" as="geometry" />
        </mxCell>
        <mxCell id="7y8PsLZq6kF9a2uQAZg5-314" value="\(404\)" style="rounded=0;whiteSpace=wrap;html=1;align=center;fontSize=10;" parent="1" vertex="1">
          <mxGeometry x="515" y="460" width="30" height="20" as="geometry" />
        </mxCell>
        <mxCell id="7y8PsLZq6kF9a2uQAZg5-315" value="" style="rounded=0;whiteSpace=wrap;html=1;fillColor=#99FF99;strokeColor=default;" parent="1" vertex="1">
          <mxGeometry x="550" y="443" width="40" height="27" as="geometry" />
        </mxCell>
        <mxCell id="7y8PsLZq6kF9a2uQAZg5-316" value="\(402\)" style="rounded=0;whiteSpace=wrap;html=1;align=center;fontSize=10;" parent="1" vertex="1">
          <mxGeometry x="555" y="460" width="30" height="20" as="geometry" />
        </mxCell>
        <mxCell id="7y8PsLZq6kF9a2uQAZg5-317" value="" style="rounded=0;whiteSpace=wrap;html=1;fillColor=#99FF99;strokeColor=default;" parent="1" vertex="1">
          <mxGeometry x="590" y="433" width="40" height="37" as="geometry" />
        </mxCell>
        <mxCell id="7y8PsLZq6kF9a2uQAZg5-318" value="\(518\)" style="rounded=0;whiteSpace=wrap;html=1;align=center;fontSize=10;" parent="1" vertex="1">
          <mxGeometry x="595" y="460" width="30" height="20" as="geometry" />
        </mxCell>
        <mxCell id="7y8PsLZq6kF9a2uQAZg5-319" value="" style="rounded=0;whiteSpace=wrap;html=1;fillColor=#FF9999;strokeColor=default;" parent="1" vertex="1">
          <mxGeometry x="630" y="430" width="40" height="40" as="geometry" />
        </mxCell>
        <mxCell id="7y8PsLZq6kF9a2uQAZg5-320" value="\(554\)" style="rounded=0;whiteSpace=wrap;html=1;align=center;fontSize=10;fillColor=#FFE0E0;" parent="1" vertex="1">
          <mxGeometry x="635" y="460" width="30" height="20" as="geometry" />
        </mxCell>
        <mxCell id="7y8PsLZq6kF9a2uQAZg5-322" value="" style="rounded=0;whiteSpace=wrap;html=1;fillColor=#99FF99;strokeColor=default;" parent="1" vertex="1">
          <mxGeometry x="670" y="450" width="40" height="20" as="geometry" />
        </mxCell>
        <mxCell id="7y8PsLZq6kF9a2uQAZg5-323" value="\(286\)" style="rounded=0;whiteSpace=wrap;html=1;align=center;fontSize=10;" parent="1" vertex="1">
          <mxGeometry x="675" y="460" width="30" height="20" as="geometry" />
        </mxCell>
        <mxCell id="7y8PsLZq6kF9a2uQAZg5-329" value="" style="rounded=0;whiteSpace=wrap;html=1;fillColor=#99FF99;strokeColor=default;" parent="1" vertex="1">
          <mxGeometry x="470" y="455" width="40" height="15" as="geometry" />
        </mxCell>
        <mxCell id="7y8PsLZq6kF9a2uQAZg5-328" value="\(212\)" style="rounded=0;whiteSpace=wrap;html=1;align=center;fontSize=10;" parent="1" vertex="1">
          <mxGeometry x="475" y="460" width="30" height="20" as="geometry" />
        </mxCell>
        <mxCell id="7y8PsLZq6kF9a2uQAZg5-338" value="" style="shape=flexArrow;endArrow=classic;html=1;rounded=0;endWidth=8;endSize=9.332799999999999;shadow=1;fillColor=#66B2FF;" parent="1" edge="1">
          <mxGeometry width="50" height="50" relative="1" as="geometry">
            <mxPoint x="450" y="420" as="sourcePoint" />
            <mxPoint x="330" y="420" as="targetPoint" />
          </mxGeometry>
        </mxCell>
        <mxCell id="7y8PsLZq6kF9a2uQAZg5-340" value="" style="rounded=0;whiteSpace=wrap;html=1;fontSize=20;strokeWidth=1;fillColor=#99FFCC;strokeColor=none;gradientColor=none;gradientDirection=north;sketch=1;sketchStyle=rough;fillStyle=dashed;perimeterSpacing=0;labelBackgroundColor=none;disableMultiStroke=0;disableMultiStrokeFill=0;dashOffset=10;dashGap=3;hachureGap=5;fillWeight=1;hachureAngle=-45;curveFitting=-5.05;simplification=1;zigzagOffset=-10;fontStyle=0;container=0;" parent="1" vertex="1">
          <mxGeometry x="90" y="435" width="20" height="40" as="geometry" />
        </mxCell>
        <mxCell id="7y8PsLZq6kF9a2uQAZg5-341" value="" style="rounded=0;whiteSpace=wrap;html=1;fontSize=20;strokeWidth=1;fillColor=#99FFCC;strokeColor=none;gradientColor=none;gradientDirection=north;sketch=1;sketchStyle=rough;fillStyle=dashed;perimeterSpacing=0;labelBackgroundColor=none;disableMultiStroke=0;disableMultiStrokeFill=0;dashOffset=10;dashGap=3;hachureGap=5;fillWeight=1;hachureAngle=-45;curveFitting=-5.05;simplification=1;zigzagOffset=-10;fontStyle=0;container=0;" parent="1" vertex="1">
          <mxGeometry x="150" y="435" width="80" height="40" as="geometry" />
        </mxCell>
        <mxCell id="7y8PsLZq6kF9a2uQAZg5-342" value="" style="rounded=0;whiteSpace=wrap;html=1;fontSize=20;strokeWidth=1;fillColor=#99FFCC;strokeColor=none;gradientColor=none;gradientDirection=north;sketch=1;sketchStyle=rough;fillStyle=dashed;perimeterSpacing=0;labelBackgroundColor=none;disableMultiStroke=0;disableMultiStrokeFill=0;dashOffset=10;dashGap=3;hachureGap=5;fillWeight=1;hachureAngle=-45;curveFitting=-5.05;simplification=1;zigzagOffset=-10;fontStyle=0;container=0;" parent="1" vertex="1">
          <mxGeometry x="270" y="435" width="40" height="40" as="geometry" />
        </mxCell>
        <mxCell id="7y8PsLZq6kF9a2uQAZg5-358" value="" style="rounded=0;whiteSpace=wrap;html=1;fontSize=20;strokeWidth=1;fillColor=#00FF00;strokeColor=none;gradientColor=none;gradientDirection=north;sketch=1;sketchStyle=rough;fillStyle=dashed;perimeterSpacing=0;labelBackgroundColor=none;disableMultiStroke=0;disableMultiStrokeFill=0;dashOffset=10;dashGap=3;hachureGap=5;fillWeight=1;hachureAngle=-45;curveFitting=-5.05;simplification=1;zigzagOffset=-10;fontStyle=0;container=0;" parent="1" vertex="1">
          <mxGeometry x="230" y="435" width="40" height="40" as="geometry" />
        </mxCell>
        <mxCell id="7y8PsLZq6kF9a2uQAZg5-361" value="" style="rounded=0;whiteSpace=wrap;html=1;fillColor=#E6FFCC;" parent="1" vertex="1">
          <mxGeometry x="150" y="465" width="35" height="10" as="geometry" />
        </mxCell>
        <mxCell id="7y8PsLZq6kF9a2uQAZg5-362" value="" style="rounded=0;whiteSpace=wrap;html=1;fillColor=#CCFFFF;" parent="1" vertex="1">
          <mxGeometry x="150" y="440" width="30" height="25" as="geometry" />
        </mxCell>
        <mxCell id="7y8PsLZq6kF9a2uQAZg5-363" value="" style="rounded=0;whiteSpace=wrap;html=1;fillColor=#E6FFCC;" parent="1" vertex="1">
          <mxGeometry x="185" y="445" width="30" height="30" as="geometry" />
        </mxCell>
        <mxCell id="7y8PsLZq6kF9a2uQAZg5-364" value="" style="rounded=0;whiteSpace=wrap;html=1;fillColor=#CCFFFF;" parent="1" vertex="1">
          <mxGeometry x="180" y="435" width="40" height="10" as="geometry" />
        </mxCell>
        <mxCell id="7y8PsLZq6kF9a2uQAZg5-365" value="" style="rounded=0;whiteSpace=wrap;html=1;fillColor=#CCFFFF;" parent="1" vertex="1">
          <mxGeometry x="220" y="450" width="20" height="25" as="geometry" />
        </mxCell>
        <mxCell id="7y8PsLZq6kF9a2uQAZg5-366" value="" style="rounded=0;whiteSpace=wrap;html=1;fillColor=#E6FFCC;" parent="1" vertex="1">
          <mxGeometry x="280" y="460" width="30" height="15" as="geometry" />
        </mxCell>
        <mxCell id="7y8PsLZq6kF9a2uQAZg5-350" value="" style="endArrow=oval;html=1;rounded=0;fontSize=20;targetPerimeterSpacing=0;strokeWidth=1.5;startArrow=oval;startFill=0;endSize=5;startSize=5;jumpStyle=none;jumpSize=6;dashed=1;dashPattern=1 1;endFill=1;movable=1;resizable=1;rotatable=1;deletable=1;editable=1;locked=0;connectable=1;" parent="1" edge="1">
          <mxGeometry width="50" height="50" relative="1" as="geometry">
            <mxPoint x="150" y="475" as="sourcePoint" />
            <mxPoint x="150" y="435" as="targetPoint" />
          </mxGeometry>
        </mxCell>
        <mxCell id="7y8PsLZq6kF9a2uQAZg5-354" value="" style="endArrow=oval;html=1;rounded=0;fontSize=20;targetPerimeterSpacing=0;strokeWidth=1.5;startArrow=none;startFill=0;endSize=5;startSize=5;endFill=0;fontStyle=0" parent="1" edge="1">
          <mxGeometry width="50" height="50" relative="1" as="geometry">
            <mxPoint x="90" y="435.265" as="sourcePoint" />
            <mxPoint x="110" y="435.265" as="targetPoint" />
          </mxGeometry>
        </mxCell>
        <mxCell id="7y8PsLZq6kF9a2uQAZg5-355" value="" style="endArrow=oval;html=1;rounded=0;fontSize=20;targetPerimeterSpacing=0;strokeWidth=1.5;startArrow=oval;startFill=0;endSize=5;startSize=5;jumpStyle=none;jumpSize=6;dashed=1;dashPattern=1 1;endFill=1;movable=1;resizable=1;rotatable=1;deletable=1;editable=1;locked=0;connectable=1;" parent="1" edge="1">
          <mxGeometry width="50" height="50" relative="1" as="geometry">
            <mxPoint x="110" y="435" as="sourcePoint" />
            <mxPoint x="110" y="475" as="targetPoint" />
          </mxGeometry>
        </mxCell>
        <mxCell id="7y8PsLZq6kF9a2uQAZg5-356" value="" style="endArrow=oval;html=1;rounded=0;fontSize=20;targetPerimeterSpacing=0;strokeWidth=1.5;startArrow=oval;startFill=1;endSize=5;startSize=5;endFill=0;movable=1;resizable=1;rotatable=1;deletable=1;editable=1;locked=0;connectable=1;" parent="1" edge="1">
          <mxGeometry width="50" height="50" relative="1" as="geometry">
            <mxPoint x="110" y="475" as="sourcePoint" />
            <mxPoint x="150" y="475" as="targetPoint" />
          </mxGeometry>
        </mxCell>
        <mxCell id="7y8PsLZq6kF9a2uQAZg5-375" value="Compute&lt;br&gt;granular &lt;br&gt;resource load" style="shape=manualInput;whiteSpace=wrap;html=1;rotation=90;size=27;textDirection=ltr;horizontal=0;align=left;spacingRight=0;spacingLeft=4;shadow=1;" parent="1" vertex="1">
          <mxGeometry x="363.26" y="195.92" width="50.8" height="117.71" as="geometry" />
        </mxCell>
        <mxCell id="7y8PsLZq6kF9a2uQAZg5-376" value="Convolve with&lt;br&gt;improvement &lt;br&gt;kernel function" style="shape=manualInput;whiteSpace=wrap;html=1;rotation=90;size=27;textDirection=ltr;horizontal=0;align=left;spacingRight=0;spacingLeft=4;shadow=1;" parent="1" vertex="1">
          <mxGeometry x="362.5" y="276.75" width="51.75" height="117" as="geometry" />
        </mxCell>
        <mxCell id="7y8PsLZq6kF9a2uQAZg5-378" value="Relax capacity&lt;br&gt;over identified&lt;br&gt;improvement period" style="rounded=0;whiteSpace=wrap;html=1;verticalAlign=middle;gradientColor=none;shadow=1;fillColor=#FFFFFF;labelBackgroundColor=none;" parent="1" vertex="1">
          <mxGeometry x="330" y="440" width="120" height="50" as="geometry" />
        </mxCell>
        <mxCell id="7y8PsLZq6kF9a2uQAZg5-383" value="" style="endArrow=none;dashed=1;html=1;rounded=0;strokeWidth=0.5;" parent="1" edge="1">
          <mxGeometry width="50" height="50" relative="1" as="geometry">
            <mxPoint x="470" y="480" as="sourcePoint" />
            <mxPoint x="470" y="260" as="targetPoint" />
          </mxGeometry>
        </mxCell>
        <mxCell id="7y8PsLZq6kF9a2uQAZg5-384" value="" style="endArrow=none;dashed=1;html=1;rounded=0;strokeWidth=0.5;" parent="1" edge="1">
          <mxGeometry width="50" height="50" relative="1" as="geometry">
            <mxPoint x="510" y="480" as="sourcePoint" />
            <mxPoint x="510" y="260" as="targetPoint" />
          </mxGeometry>
        </mxCell>
        <mxCell id="7y8PsLZq6kF9a2uQAZg5-385" value="" style="endArrow=none;dashed=1;html=1;rounded=0;strokeWidth=0.5;" parent="1" edge="1">
          <mxGeometry width="50" height="50" relative="1" as="geometry">
            <mxPoint x="550" y="480" as="sourcePoint" />
            <mxPoint x="550" y="260" as="targetPoint" />
          </mxGeometry>
        </mxCell>
        <mxCell id="7y8PsLZq6kF9a2uQAZg5-386" value="" style="endArrow=none;dashed=1;html=1;rounded=0;strokeWidth=0.5;" parent="1" edge="1">
          <mxGeometry width="50" height="50" relative="1" as="geometry">
            <mxPoint x="590" y="480" as="sourcePoint" />
            <mxPoint x="590" y="260" as="targetPoint" />
          </mxGeometry>
        </mxCell>
        <mxCell id="7y8PsLZq6kF9a2uQAZg5-387" value="" style="endArrow=none;dashed=1;html=1;rounded=0;strokeWidth=0.5;" parent="1" edge="1">
          <mxGeometry width="50" height="50" relative="1" as="geometry">
            <mxPoint x="630" y="480" as="sourcePoint" />
            <mxPoint x="630" y="260" as="targetPoint" />
          </mxGeometry>
        </mxCell>
        <mxCell id="7y8PsLZq6kF9a2uQAZg5-388" value="" style="endArrow=none;dashed=1;html=1;rounded=0;strokeWidth=0.5;" parent="1" edge="1">
          <mxGeometry width="50" height="50" relative="1" as="geometry">
            <mxPoint x="670" y="480" as="sourcePoint" />
            <mxPoint x="670" y="260" as="targetPoint" />
          </mxGeometry>
        </mxCell>
        <mxCell id="7y8PsLZq6kF9a2uQAZg5-389" value="" style="endArrow=none;dashed=1;html=1;rounded=0;strokeWidth=0.5;" parent="1" edge="1">
          <mxGeometry width="50" height="50" relative="1" as="geometry">
            <mxPoint x="710" y="480" as="sourcePoint" />
            <mxPoint x="710" y="260" as="targetPoint" />
          </mxGeometry>
        </mxCell>
        <mxCell id="7y8PsLZq6kF9a2uQAZg5-381" value="" style="shape=flexArrow;endArrow=classic;html=1;rounded=0;endWidth=10;fillColor=#66B2FF;shadow=1;" parent="1" edge="1">
          <mxGeometry width="50" height="50" relative="1" as="geometry">
            <mxPoint x="480" y="289.8" as="sourcePoint" />
            <mxPoint x="480" y="350" as="targetPoint" />
            <Array as="points">
              <mxPoint x="440" y="290" />
            </Array>
          </mxGeometry>
        </mxCell>
        <mxCell id="7y8PsLZq6kF9a2uQAZg5-382" value="" style="shape=flexArrow;endArrow=classic;html=1;rounded=0;endWidth=10;fillColor=#66B2FF;shadow=1;" parent="1" edge="1">
          <mxGeometry width="50" height="50" relative="1" as="geometry">
            <mxPoint x="480" y="369.8" as="sourcePoint" />
            <mxPoint x="480" y="430" as="targetPoint" />
            <Array as="points">
              <mxPoint x="440" y="370" />
            </Array>
          </mxGeometry>
        </mxCell>
        <mxCell id="7y8PsLZq6kF9a2uQAZg5-391" value="" style="rounded=0;whiteSpace=wrap;html=1;glass=0;sketch=0;fillStyle=auto;sketchStyle=rough;fontSize=20;strokeColor=none;strokeWidth=1;fillColor=#EDEDED;gradientColor=none;gradientDirection=north;container=0;movable=1;resizable=1;rotatable=1;deletable=1;editable=1;locked=0;connectable=1;" parent="1" vertex="1">
          <mxGeometry x="90" y="290" width="220" height="70" as="geometry" />
        </mxCell>
        <mxCell id="7y8PsLZq6kF9a2uQAZg5-392" value="" style="rounded=1;whiteSpace=wrap;html=1;fontStyle=0;fontSize=20;strokeWidth=2;fillColor=#E6FFCC;" parent="1" vertex="1">
          <mxGeometry x="110" y="295" width="20" height="20" as="geometry" />
        </mxCell>
        <mxCell id="7y8PsLZq6kF9a2uQAZg5-393" value="" style="rounded=1;whiteSpace=wrap;html=1;fontStyle=0;fontSize=20;strokeWidth=2;fillColor=#E6FFCC;" parent="1" vertex="1">
          <mxGeometry x="150" y="295" width="35" height="20" as="geometry" />
        </mxCell>
        <mxCell id="7y8PsLZq6kF9a2uQAZg5-394" value="" style="rounded=1;whiteSpace=wrap;html=1;fontStyle=0;fontSize=20;strokeWidth=2;fillColor=#E6FFCC;" parent="1" vertex="1">
          <mxGeometry x="110" y="315" width="40" height="20" as="geometry" />
        </mxCell>
        <mxCell id="7y8PsLZq6kF9a2uQAZg5-395" value="" style="rounded=1;whiteSpace=wrap;html=1;fontStyle=0;fontSize=20;strokeWidth=2;fillColor=#E6FFCC;" parent="1" vertex="1">
          <mxGeometry x="230" y="315" width="50" height="20" as="geometry" />
        </mxCell>
        <mxCell id="7y8PsLZq6kF9a2uQAZg5-396" value="" style="rounded=1;whiteSpace=wrap;html=1;fontStyle=0;fontSize=20;strokeWidth=2;fillColor=#E6FFCC;" parent="1" vertex="1">
          <mxGeometry x="185" y="315" width="30" height="20" as="geometry" />
        </mxCell>
        <mxCell id="7y8PsLZq6kF9a2uQAZg5-397" value="" style="rounded=1;whiteSpace=wrap;html=1;fontStyle=0;fontSize=20;strokeWidth=2;fillColor=#E6FFCC;strokeColor=#000000;shadow=0;" parent="1" vertex="1">
          <mxGeometry x="280" y="295" width="30" height="20" as="geometry" />
        </mxCell>
        <mxCell id="v2SeikoonyQqtqL5z6n4-1" value="" style="endArrow=none;html=1;rounded=0;fontSize=20;startSize=5;endSize=14;targetPerimeterSpacing=0;strokeWidth=1.5;jumpStyle=none;jumpSize=6;fontStyle=0;fontFamily=Verdana;endFill=0;labelBackgroundColor=none;spacingLeft=0;spacing=2;labelPosition=center;verticalLabelPosition=middle;align=center;verticalAlign=middle;movable=1;resizable=1;rotatable=1;deletable=1;editable=1;locked=0;connectable=1;entryX=1;entryY=1;entryDx=0;entryDy=0;" edge="1" parent="1">
          <mxGeometry x="0.8179" y="-16" width="50" height="50" relative="1" as="geometry">
            <mxPoint x="632" y="95" as="sourcePoint" />
            <mxPoint x="710" y="95" as="targetPoint" />
            <mxPoint as="offset" />
          </mxGeometry>
        </mxCell>
        <mxCell id="7y8PsLZq6kF9a2uQAZg5-398" value="" style="rounded=1;whiteSpace=wrap;html=1;fontStyle=0;fontSize=20;strokeWidth=2;fillColor=#CCFFFF;" parent="1" vertex="1">
          <mxGeometry x="150" y="335" width="30" height="20" as="geometry" />
        </mxCell>
        <mxCell id="7y8PsLZq6kF9a2uQAZg5-399" value="" style="rounded=1;whiteSpace=wrap;html=1;fontStyle=0;fontSize=20;strokeWidth=2;fillColor=#CCFFFF;" parent="1" vertex="1">
          <mxGeometry x="180" y="335" width="40" height="20" as="geometry" />
        </mxCell>
        <mxCell id="7y8PsLZq6kF9a2uQAZg5-400" value="" style="rounded=1;whiteSpace=wrap;html=1;fontStyle=0;fontSize=20;strokeWidth=2;fillColor=#CCFFFF;strokeColor=#000000;perimeterSpacing=0;glass=0;shadow=0;" parent="1" vertex="1">
          <mxGeometry x="220" y="335" width="20" height="20" as="geometry" />
        </mxCell>
        <mxCell id="7y8PsLZq6kF9a2uQAZg5-353" value="" style="endArrow=none;html=1;rounded=0;fontSize=20;targetPerimeterSpacing=0;strokeWidth=1.5;startArrow=oval;startFill=1;endSize=5;startSize=5;endFill=0;movable=1;resizable=1;rotatable=1;deletable=1;editable=1;locked=0;connectable=1;exitX=0;exitY=0;exitDx=0;exitDy=0;" parent="1" source="7y8PsLZq6kF9a2uQAZg5-341" edge="1">
          <mxGeometry width="50" height="50" relative="1" as="geometry">
            <mxPoint x="270" y="435.145" as="sourcePoint" />
            <mxPoint x="310" y="435" as="targetPoint" />
          </mxGeometry>
        </mxCell>
        <mxCell id="7y8PsLZq6kF9a2uQAZg5-402" value="" style="endArrow=none;html=1;rounded=0;fontSize=20;startSize=5;endSize=14;targetPerimeterSpacing=0;strokeWidth=1.5;jumpStyle=none;jumpSize=6;fontStyle=0;fontFamily=Verdana;endFill=0;labelBackgroundColor=none;spacingLeft=0;spacing=2;labelPosition=center;verticalLabelPosition=middle;align=center;verticalAlign=middle;movable=1;resizable=1;rotatable=1;deletable=1;editable=1;locked=0;connectable=1;" parent="1" edge="1">
          <mxGeometry x="0.8179" y="-16" width="50" height="50" relative="1" as="geometry">
            <mxPoint x="89" y="475" as="sourcePoint" />
            <mxPoint x="110" y="475" as="targetPoint" />
            <mxPoint as="offset" />
          </mxGeometry>
        </mxCell>
        <mxCell id="7y8PsLZq6kF9a2uQAZg5-403" value="" style="endArrow=none;html=1;rounded=0;fontSize=20;startSize=5;endSize=14;targetPerimeterSpacing=0;strokeWidth=1.5;jumpStyle=none;jumpSize=6;fontStyle=0;fontFamily=Verdana;endFill=0;labelBackgroundColor=none;spacingLeft=0;spacing=2;labelPosition=center;verticalLabelPosition=middle;align=center;verticalAlign=middle;movable=1;resizable=1;rotatable=1;deletable=1;editable=1;locked=0;connectable=1;entryX=1;entryY=1;entryDx=0;entryDy=0;" parent="1" target="7y8PsLZq6kF9a2uQAZg5-342" edge="1">
          <mxGeometry x="0.8179" y="-16" width="50" height="50" relative="1" as="geometry">
            <mxPoint x="152" y="475" as="sourcePoint" />
            <mxPoint x="173" y="475" as="targetPoint" />
            <mxPoint as="offset" />
          </mxGeometry>
        </mxCell>
        <mxCell id="7y8PsLZq6kF9a2uQAZg5-404" value="" style="endArrow=none;html=1;rounded=0;fontSize=20;startSize=5;endSize=14;targetPerimeterSpacing=0;strokeWidth=1.5;jumpStyle=none;jumpSize=6;fontStyle=0;fontFamily=Verdana;endFill=0;labelBackgroundColor=none;spacingLeft=0;spacing=2;labelPosition=center;verticalLabelPosition=middle;align=center;verticalAlign=middle;movable=1;resizable=1;rotatable=1;deletable=1;editable=1;locked=0;connectable=1;" parent="1" edge="1">
          <mxGeometry x="0.8179" y="-16" width="50" height="50" relative="1" as="geometry">
            <mxPoint x="89" y="235" as="sourcePoint" />
            <mxPoint x="110" y="235" as="targetPoint" />
            <mxPoint as="offset" />
          </mxGeometry>
        </mxCell>
        <mxCell id="7y8PsLZq6kF9a2uQAZg5-405" value="" style="endArrow=none;html=1;rounded=0;fontSize=20;startSize=5;endSize=14;targetPerimeterSpacing=0;strokeWidth=1.5;jumpStyle=none;jumpSize=6;fontStyle=0;fontFamily=Verdana;endFill=0;labelBackgroundColor=none;spacingLeft=0;spacing=2;labelPosition=center;verticalLabelPosition=middle;align=center;verticalAlign=middle;movable=1;resizable=1;rotatable=1;deletable=1;editable=1;locked=0;connectable=1;" parent="1" edge="1">
          <mxGeometry x="0.8179" y="-16" width="50" height="50" relative="1" as="geometry">
            <mxPoint x="152" y="235" as="sourcePoint" />
            <mxPoint x="230" y="235" as="targetPoint" />
            <mxPoint as="offset" />
          </mxGeometry>
        </mxCell>
        <mxCell id="7y8PsLZq6kF9a2uQAZg5-406" value="" style="endArrow=none;html=1;rounded=0;fontSize=20;startSize=5;endSize=14;targetPerimeterSpacing=0;strokeWidth=1.5;jumpStyle=none;jumpSize=6;fontStyle=0;fontFamily=Verdana;endFill=0;labelBackgroundColor=none;spacingLeft=0;spacing=2;labelPosition=center;verticalLabelPosition=middle;align=center;verticalAlign=middle;movable=1;resizable=1;rotatable=1;deletable=1;editable=1;locked=0;connectable=1;" parent="1" edge="1">
          <mxGeometry x="0.8179" y="-16" width="50" height="50" relative="1" as="geometry">
            <mxPoint x="272" y="235" as="sourcePoint" />
            <mxPoint x="310" y="235" as="targetPoint" />
            <mxPoint as="offset" />
          </mxGeometry>
        </mxCell>
        <mxCell id="7y8PsLZq6kF9a2uQAZg5-407" value="" style="endArrow=none;html=1;rounded=0;fontSize=20;startSize=5;endSize=14;targetPerimeterSpacing=0;strokeWidth=1.5;jumpStyle=none;jumpSize=6;fontStyle=0;fontFamily=Verdana;endFill=0;labelBackgroundColor=none;spacingLeft=0;spacing=2;labelPosition=center;verticalLabelPosition=middle;align=center;verticalAlign=middle;movable=1;resizable=1;rotatable=1;deletable=1;editable=1;locked=0;connectable=1;entryX=1;entryY=1;entryDx=0;entryDy=0;" parent="1" target="7y8PsLZq6kF9a2uQAZg5-168" edge="1">
          <mxGeometry x="0.8179" y="-16" width="50" height="50" relative="1" as="geometry">
            <mxPoint x="232" y="175" as="sourcePoint" />
            <mxPoint x="270" y="175" as="targetPoint" />
            <mxPoint as="offset" />
          </mxGeometry>
        </mxCell>
        <mxCell id="7y8PsLZq6kF9a2uQAZg5-408" value="" style="endArrow=none;html=1;rounded=0;fontSize=20;startSize=5;endSize=14;targetPerimeterSpacing=0;strokeWidth=1.5;jumpStyle=none;jumpSize=6;fontStyle=0;fontFamily=Verdana;endFill=0;labelBackgroundColor=none;spacingLeft=0;spacing=2;labelPosition=center;verticalLabelPosition=middle;align=center;verticalAlign=middle;movable=1;resizable=1;rotatable=1;deletable=1;editable=1;locked=0;connectable=1;entryX=1;entryY=1;entryDx=0;entryDy=0;" parent="1" edge="1">
          <mxGeometry x="0.8179" y="-16" width="50" height="50" relative="1" as="geometry">
            <mxPoint x="112" y="175" as="sourcePoint" />
            <mxPoint x="190" y="175" as="targetPoint" />
            <mxPoint as="offset" />
          </mxGeometry>
        </mxCell>
        <mxCell id="7y8PsLZq6kF9a2uQAZg5-434" value="" style="rounded=0;whiteSpace=wrap;html=1;glass=0;sketch=0;fillStyle=auto;sketchStyle=rough;fontSize=20;strokeColor=none;strokeWidth=1;fillColor=#EDEDED;gradientColor=none;gradientDirection=north;container=0;movable=1;resizable=1;rotatable=1;deletable=1;editable=1;locked=0;connectable=1;" parent="1" vertex="1">
          <mxGeometry x="90" y="370" width="220" height="50" as="geometry" />
        </mxCell>
        <mxCell id="7y8PsLZq6kF9a2uQAZg5-446" value="" style="rounded=0;whiteSpace=wrap;html=1;fontSize=20;strokeWidth=1;fillColor=#99FFCC;strokeColor=none;gradientColor=none;gradientDirection=north;sketch=1;sketchStyle=rough;fillStyle=dashed;perimeterSpacing=0;labelBackgroundColor=none;disableMultiStroke=0;disableMultiStrokeFill=0;dashOffset=10;dashGap=3;hachureGap=5;fillWeight=1;hachureAngle=-45;curveFitting=-5.05;simplification=1;zigzagOffset=-10;fontStyle=0;container=0;" parent="1" vertex="1">
          <mxGeometry x="230" y="375" width="80" height="40" as="geometry" />
        </mxCell>
        <mxCell id="7y8PsLZq6kF9a2uQAZg5-448" value="" style="rounded=0;whiteSpace=wrap;html=1;fontSize=20;strokeWidth=1;fillColor=#99FFCC;strokeColor=none;gradientColor=none;gradientDirection=north;sketch=1;sketchStyle=rough;fillStyle=dashed;perimeterSpacing=0;labelBackgroundColor=none;disableMultiStroke=0;disableMultiStrokeFill=0;dashOffset=10;dashGap=3;hachureGap=5;fillWeight=1;hachureAngle=-45;curveFitting=-5.05;simplification=1;zigzagOffset=-10;fontStyle=0;container=0;" parent="1" vertex="1">
          <mxGeometry x="110" y="375" width="80" height="40" as="geometry" />
        </mxCell>
        <mxCell id="7y8PsLZq6kF9a2uQAZg5-450" value="" style="rounded=0;whiteSpace=wrap;html=1;fillColor=#E6FFCC;" parent="1" vertex="1">
          <mxGeometry x="110" y="400" width="40" height="15" as="geometry" />
        </mxCell>
        <mxCell id="7y8PsLZq6kF9a2uQAZg5-451" value="" style="rounded=0;whiteSpace=wrap;html=1;fillColor=#E6FFCC;" parent="1" vertex="1">
          <mxGeometry x="110" y="380" width="20" height="20" as="geometry" />
        </mxCell>
        <mxCell id="7y8PsLZq6kF9a2uQAZg5-452" value="" style="rounded=0;whiteSpace=wrap;html=1;fillColor=#E6FFCC;" parent="1" vertex="1">
          <mxGeometry x="150" y="390" width="35" height="25" as="geometry" />
        </mxCell>
        <mxCell id="7y8PsLZq6kF9a2uQAZg5-454" value="" style="rounded=0;whiteSpace=wrap;html=1;fillColor=#CCFFFF;" parent="1" vertex="1">
          <mxGeometry x="150" y="375" width="30" height="15" as="geometry" />
        </mxCell>
        <mxCell id="7y8PsLZq6kF9a2uQAZg5-459" value="" style="rounded=0;whiteSpace=wrap;html=1;fillColor=#E6FFCC;" parent="1" vertex="1">
          <mxGeometry x="230" y="400" width="50" height="15" as="geometry" />
        </mxCell>
        <mxCell id="7y8PsLZq6kF9a2uQAZg5-461" value="" style="rounded=0;whiteSpace=wrap;html=1;fillColor=#E6FFCC;" parent="1" vertex="1">
          <mxGeometry x="280" y="405" width="30" height="10" as="geometry" />
        </mxCell>
        <mxCell id="7y8PsLZq6kF9a2uQAZg5-462" value="" style="endArrow=oval;html=1;rounded=0;fontSize=20;targetPerimeterSpacing=0;strokeWidth=1.5;startArrow=oval;startFill=1;endSize=5;startSize=5;endFill=0;movable=1;resizable=1;rotatable=1;deletable=1;editable=1;locked=0;connectable=1;" parent="1" edge="1">
          <mxGeometry width="50" height="50" relative="1" as="geometry">
            <mxPoint x="110" y="375" as="sourcePoint" />
            <mxPoint x="190" y="375" as="targetPoint" />
          </mxGeometry>
        </mxCell>
        <mxCell id="7y8PsLZq6kF9a2uQAZg5-463" value="" style="endArrow=oval;html=1;rounded=0;fontSize=20;targetPerimeterSpacing=0;strokeWidth=1.5;startArrow=oval;startFill=0;endSize=5;startSize=5;jumpStyle=none;jumpSize=6;dashed=1;dashPattern=1 1;endFill=1;movable=1;resizable=1;rotatable=1;deletable=1;editable=1;locked=0;connectable=1;" parent="1" edge="1">
          <mxGeometry width="50" height="50" relative="1" as="geometry">
            <mxPoint x="110" y="415" as="sourcePoint" />
            <mxPoint x="110" y="375" as="targetPoint" />
          </mxGeometry>
        </mxCell>
        <mxCell id="7y8PsLZq6kF9a2uQAZg5-464" value="" style="endArrow=oval;html=1;rounded=0;fontSize=20;targetPerimeterSpacing=0;strokeWidth=1.5;startArrow=oval;startFill=0;endSize=5;startSize=5;jumpStyle=none;jumpSize=6;dashed=1;dashPattern=1 1;endFill=1;movable=1;resizable=1;rotatable=1;deletable=1;editable=1;locked=0;connectable=1;" parent="1" edge="1">
          <mxGeometry width="50" height="50" relative="1" as="geometry">
            <mxPoint x="190" y="375" as="sourcePoint" />
            <mxPoint x="190" y="415" as="targetPoint" />
          </mxGeometry>
        </mxCell>
        <mxCell id="7y8PsLZq6kF9a2uQAZg5-465" value="" style="endArrow=oval;html=1;rounded=0;fontSize=20;targetPerimeterSpacing=0;strokeWidth=1.5;startArrow=oval;startFill=0;endSize=5;startSize=5;jumpStyle=none;jumpSize=6;dashed=1;dashPattern=1 1;endFill=1;movable=1;resizable=1;rotatable=1;deletable=1;editable=1;locked=0;connectable=1;" parent="1" edge="1">
          <mxGeometry width="50" height="50" relative="1" as="geometry">
            <mxPoint x="230" y="415" as="sourcePoint" />
            <mxPoint x="230" y="375" as="targetPoint" />
          </mxGeometry>
        </mxCell>
        <mxCell id="7y8PsLZq6kF9a2uQAZg5-466" value="" style="endArrow=none;html=1;rounded=0;fontSize=20;targetPerimeterSpacing=0;strokeWidth=1.5;startArrow=oval;startFill=1;endSize=5;startSize=5;endFill=0;movable=1;resizable=1;rotatable=1;deletable=1;editable=1;locked=0;connectable=1;" parent="1" edge="1">
          <mxGeometry width="50" height="50" relative="1" as="geometry">
            <mxPoint x="230" y="375.145" as="sourcePoint" />
            <mxPoint x="310" y="375" as="targetPoint" />
          </mxGeometry>
        </mxCell>
        <mxCell id="7y8PsLZq6kF9a2uQAZg5-476" value="" style="endArrow=oval;html=1;rounded=0;fontSize=20;targetPerimeterSpacing=0;strokeWidth=1.5;startArrow=oval;startFill=1;endSize=5;startSize=5;endFill=0;movable=1;resizable=1;rotatable=1;deletable=1;editable=1;locked=0;connectable=1;" parent="1" edge="1">
          <mxGeometry width="50" height="50" relative="1" as="geometry">
            <mxPoint x="190" y="415" as="sourcePoint" />
            <mxPoint x="230" y="415" as="targetPoint" />
          </mxGeometry>
        </mxCell>
        <mxCell id="7y8PsLZq6kF9a2uQAZg5-477" value="" style="endArrow=oval;html=1;rounded=0;fontSize=20;targetPerimeterSpacing=0;strokeWidth=1.5;startArrow=none;startFill=0;endSize=5;startSize=5;endFill=0;fontStyle=0" parent="1" edge="1">
          <mxGeometry width="50" height="50" relative="1" as="geometry">
            <mxPoint x="90" y="415.265" as="sourcePoint" />
            <mxPoint x="110" y="415.265" as="targetPoint" />
          </mxGeometry>
        </mxCell>
        <mxCell id="7y8PsLZq6kF9a2uQAZg5-481" value="" style="endArrow=none;html=1;rounded=0;fontSize=20;startSize=5;endSize=14;targetPerimeterSpacing=0;strokeWidth=1.5;jumpStyle=none;jumpSize=6;fontStyle=0;fontFamily=Verdana;endFill=0;labelBackgroundColor=none;spacingLeft=0;spacing=2;labelPosition=center;verticalLabelPosition=middle;align=center;verticalAlign=middle;movable=1;resizable=1;rotatable=1;deletable=1;editable=1;locked=0;connectable=1;entryX=1;entryY=1;entryDx=0;entryDy=0;" parent="1" target="7y8PsLZq6kF9a2uQAZg5-446" edge="1">
          <mxGeometry x="0.8179" y="-16" width="50" height="50" relative="1" as="geometry">
            <mxPoint x="232" y="415" as="sourcePoint" />
            <mxPoint x="270" y="415" as="targetPoint" />
            <mxPoint as="offset" />
          </mxGeometry>
        </mxCell>
        <mxCell id="7y8PsLZq6kF9a2uQAZg5-482" value="" style="endArrow=none;html=1;rounded=0;fontSize=20;startSize=5;endSize=14;targetPerimeterSpacing=0;strokeWidth=1.5;jumpStyle=none;jumpSize=6;fontStyle=0;fontFamily=Verdana;endFill=0;labelBackgroundColor=none;spacingLeft=0;spacing=2;labelPosition=center;verticalLabelPosition=middle;align=center;verticalAlign=middle;movable=1;resizable=1;rotatable=1;deletable=1;editable=1;locked=0;connectable=1;entryX=1;entryY=1;entryDx=0;entryDy=0;" parent="1" edge="1">
          <mxGeometry x="0.8179" y="-16" width="50" height="50" relative="1" as="geometry">
            <mxPoint x="112" y="415" as="sourcePoint" />
            <mxPoint x="190" y="415" as="targetPoint" />
            <mxPoint as="offset" />
          </mxGeometry>
        </mxCell>
        <mxCell id="v2SeikoonyQqtqL5z6n4-2" value="" style="endArrow=none;html=1;rounded=0;fontSize=20;startSize=5;endSize=14;targetPerimeterSpacing=0;strokeWidth=1.5;jumpStyle=none;jumpSize=6;fontStyle=0;fontFamily=Verdana;endFill=0;labelBackgroundColor=none;spacingLeft=0;spacing=2;labelPosition=center;verticalLabelPosition=middle;align=center;verticalAlign=middle;movable=1;resizable=1;rotatable=1;deletable=1;editable=1;locked=0;connectable=1;entryX=1;entryY=1;entryDx=0;entryDy=0;" edge="1" parent="1">
          <mxGeometry x="0.8179" y="-16" width="50" height="50" relative="1" as="geometry">
            <mxPoint x="512" y="95" as="sourcePoint" />
            <mxPoint x="590" y="95" as="targetPoint" />
            <mxPoint as="offset" />
          </mxGeometry>
        </mxCell>
        <mxCell id="7y8PsLZq6kF9a2uQAZg5-257" value="" style="rounded=0;whiteSpace=wrap;html=1;glass=0;sketch=0;fillStyle=auto;sketchStyle=rough;fontSize=20;strokeColor=default;strokeWidth=1;fillColor=#EDEDED;gradientColor=none;gradientDirection=north;container=0;movable=1;resizable=1;rotatable=1;deletable=1;editable=1;locked=0;connectable=1;opacity=70;" parent="1" vertex="1">
          <mxGeometry x="490" y="50" width="220" height="50" as="geometry" />
        </mxCell>
        <mxCell id="7y8PsLZq6kF9a2uQAZg5-255" value="\(\text{AUAU}_1 = 1.25\)" style="rounded=0;whiteSpace=wrap;html=1;" parent="1" vertex="1">
          <mxGeometry x="545" y="65" width="120" height="20" as="geometry" />
        </mxCell>
        <mxCell id="v2SeikoonyQqtqL5z6n4-3" value="" style="endArrow=none;html=1;rounded=0;fontSize=20;startSize=5;endSize=14;targetPerimeterSpacing=0;strokeWidth=1.5;jumpStyle=none;jumpSize=6;fontStyle=0;fontFamily=Verdana;endFill=0;labelBackgroundColor=none;spacingLeft=0;spacing=2;labelPosition=center;verticalLabelPosition=middle;align=center;verticalAlign=middle;movable=1;resizable=1;rotatable=1;deletable=1;editable=1;locked=0;connectable=1;" edge="1" parent="1">
          <mxGeometry x="0.8179" y="-16" width="50" height="50" relative="1" as="geometry">
            <mxPoint x="489" y="155" as="sourcePoint" />
            <mxPoint x="510" y="155" as="targetPoint" />
            <mxPoint as="offset" />
          </mxGeometry>
        </mxCell>
        <mxCell id="v2SeikoonyQqtqL5z6n4-4" value="" style="endArrow=none;html=1;rounded=0;fontSize=20;startSize=5;endSize=14;targetPerimeterSpacing=0;strokeWidth=1.5;jumpStyle=none;jumpSize=6;fontStyle=0;fontFamily=Verdana;endFill=0;labelBackgroundColor=none;spacingLeft=0;spacing=2;labelPosition=center;verticalLabelPosition=middle;align=center;verticalAlign=middle;movable=1;resizable=1;rotatable=1;deletable=1;editable=1;locked=0;connectable=1;" edge="1" parent="1">
          <mxGeometry x="0.8179" y="-16" width="50" height="50" relative="1" as="geometry">
            <mxPoint x="552" y="155" as="sourcePoint" />
            <mxPoint x="630" y="155" as="targetPoint" />
            <mxPoint as="offset" />
          </mxGeometry>
        </mxCell>
        <mxCell id="v2SeikoonyQqtqL5z6n4-5" value="" style="endArrow=none;html=1;rounded=0;fontSize=20;startSize=5;endSize=14;targetPerimeterSpacing=0;strokeWidth=1.5;jumpStyle=none;jumpSize=6;fontStyle=0;fontFamily=Verdana;endFill=0;labelBackgroundColor=none;spacingLeft=0;spacing=2;labelPosition=center;verticalLabelPosition=middle;align=center;verticalAlign=middle;movable=1;resizable=1;rotatable=1;deletable=1;editable=1;locked=0;connectable=1;" edge="1" parent="1">
          <mxGeometry x="0.8179" y="-16" width="50" height="50" relative="1" as="geometry">
            <mxPoint x="672" y="155" as="sourcePoint" />
            <mxPoint x="710" y="155" as="targetPoint" />
            <mxPoint as="offset" />
          </mxGeometry>
        </mxCell>
        <mxCell id="7y8PsLZq6kF9a2uQAZg5-256" value="" style="rounded=0;whiteSpace=wrap;html=1;glass=0;sketch=0;fillStyle=auto;sketchStyle=rough;fontSize=20;strokeColor=default;strokeWidth=1;fillColor=#FF9999;gradientColor=none;gradientDirection=north;container=0;movable=1;resizable=1;rotatable=1;deletable=1;editable=1;locked=0;connectable=1;opacity=70;" parent="1" vertex="1">
          <mxGeometry x="490" y="110" width="220" height="50" as="geometry" />
        </mxCell>
        <mxCell id="7y8PsLZq6kF9a2uQAZg5-254" value="\(\text{AUAU}_2 = \mathrm{1.43}\)" style="rounded=0;whiteSpace=wrap;html=1;fontStyle=0;fillColor=#FFE0E0;" parent="1" vertex="1">
          <mxGeometry x="545" y="125" width="120" height="20" as="geometry" />
        </mxCell>
      </root>
    </mxGraphModel>
  </diagram>
  <diagram name="ssira" id="ZdAsv95KRRJ9qsoQfgWd">
    <mxGraphModel dx="1212" dy="700" grid="1" gridSize="10" guides="1" tooltips="1" connect="1" arrows="1" fold="1" page="1" pageScale="1" pageWidth="827" pageHeight="1169" math="1" shadow="0">
      <root>
        <mxCell id="Ew1wF45J_AWvh-oqGIxm-0" />
        <mxCell id="Ew1wF45J_AWvh-oqGIxm-1" parent="Ew1wF45J_AWvh-oqGIxm-0" />
        <mxCell id="17Y7an61mM4vr6zxtQ1S-518" value="" style="rounded=0;whiteSpace=wrap;html=1;shadow=1;" vertex="1" parent="Ew1wF45J_AWvh-oqGIxm-1">
          <mxGeometry x="480" y="360" width="240" height="130" as="geometry" />
        </mxCell>
        <mxCell id="17Y7an61mM4vr6zxtQ1S-450" value="" style="rounded=0;whiteSpace=wrap;html=1;shadow=1;" vertex="1" parent="Ew1wF45J_AWvh-oqGIxm-1">
          <mxGeometry x="80" y="255" width="240" height="235" as="geometry" />
        </mxCell>
        <mxCell id="17Y7an61mM4vr6zxtQ1S-451" value="" style="rounded=0;whiteSpace=wrap;html=1;glass=0;sketch=0;fillStyle=auto;sketchStyle=rough;fontSize=20;strokeColor=none;strokeWidth=1;fillColor=#EDEDED;gradientColor=none;gradientDirection=north;container=0;movable=1;resizable=1;rotatable=1;deletable=1;editable=1;locked=0;connectable=1;" vertex="1" parent="Ew1wF45J_AWvh-oqGIxm-1">
          <mxGeometry x="90" y="405" width="220" height="75" as="geometry" />
        </mxCell>
        <mxCell id="17Y7an61mM4vr6zxtQ1S-375" value="" style="rounded=0;whiteSpace=wrap;html=1;shadow=1;" vertex="1" parent="Ew1wF45J_AWvh-oqGIxm-1">
          <mxGeometry x="480" y="40" width="240" height="210" as="geometry" />
        </mxCell>
        <mxCell id="17Y7an61mM4vr6zxtQ1S-374" value="" style="rounded=0;whiteSpace=wrap;html=1;glass=0;sketch=0;fillStyle=auto;sketchStyle=rough;fontSize=20;strokeColor=none;strokeWidth=1;fillColor=#EDEDED;gradientColor=none;gradientDirection=north;container=0;movable=1;resizable=1;rotatable=1;deletable=1;editable=1;locked=0;connectable=1;" vertex="1" parent="Ew1wF45J_AWvh-oqGIxm-1">
          <mxGeometry x="490" y="190" width="220" height="50" as="geometry" />
        </mxCell>
        <mxCell id="17Y7an61mM4vr6zxtQ1S-373" value="" style="rounded=0;whiteSpace=wrap;html=1;glass=0;sketch=0;fillStyle=auto;sketchStyle=rough;fontSize=20;strokeColor=none;strokeWidth=1;fillColor=#EDEDED;gradientColor=none;gradientDirection=north;container=0;movable=1;resizable=1;rotatable=1;deletable=1;editable=1;locked=0;connectable=1;" vertex="1" parent="Ew1wF45J_AWvh-oqGIxm-1">
          <mxGeometry x="490" y="130" width="220" height="50" as="geometry" />
        </mxCell>
        <mxCell id="17Y7an61mM4vr6zxtQ1S-390" value="" style="rounded=0;whiteSpace=wrap;html=1;fontSize=20;strokeWidth=1;fillColor=#B3B3B3;strokeColor=none;gradientColor=none;gradientDirection=north;sketch=1;sketchStyle=rough;fillStyle=dashed;perimeterSpacing=0;labelBackgroundColor=none;disableMultiStroke=0;disableMultiStrokeFill=0;dashOffset=10;dashGap=3;hachureGap=5;fillWeight=1;hachureAngle=-45;curveFitting=-5.05;simplification=1;zigzagOffset=-10;fontStyle=0;container=0;" vertex="1" parent="Ew1wF45J_AWvh-oqGIxm-1">
          <mxGeometry x="590" y="195" width="40" height="40" as="geometry" />
        </mxCell>
        <mxCell id="17Y7an61mM4vr6zxtQ1S-400" value="" style="rounded=0;whiteSpace=wrap;html=1;fontSize=20;strokeWidth=1;fillColor=#B3B3B3;strokeColor=none;gradientColor=none;gradientDirection=north;sketch=1;sketchStyle=rough;fillStyle=dashed;perimeterSpacing=0;labelBackgroundColor=none;disableMultiStroke=0;disableMultiStrokeFill=0;dashOffset=10;dashGap=3;hachureGap=5;fillWeight=1;hachureAngle=-45;curveFitting=-5.05;simplification=1;zigzagOffset=-10;fontStyle=0;container=0;" vertex="1" parent="Ew1wF45J_AWvh-oqGIxm-1">
          <mxGeometry x="670" y="195" width="40" height="40" as="geometry" />
        </mxCell>
        <mxCell id="17Y7an61mM4vr6zxtQ1S-401" value="" style="rounded=0;whiteSpace=wrap;html=1;fontSize=20;strokeWidth=1;fillColor=#B3B3B3;strokeColor=none;gradientColor=none;gradientDirection=north;sketch=1;sketchStyle=rough;fillStyle=dashed;perimeterSpacing=0;labelBackgroundColor=none;disableMultiStroke=0;disableMultiStrokeFill=0;dashOffset=10;dashGap=3;hachureGap=5;fillWeight=1;hachureAngle=-45;curveFitting=-5.05;simplification=1;zigzagOffset=-10;fontStyle=0;container=0;" vertex="1" parent="Ew1wF45J_AWvh-oqGIxm-1">
          <mxGeometry x="630" y="135" width="80" height="40" as="geometry" />
        </mxCell>
        <mxCell id="17Y7an61mM4vr6zxtQ1S-357" value="6" style="rounded=0;whiteSpace=wrap;html=1;fillColor=#CCCCCC;align=center;spacingRight=0;verticalAlign=middle;fontColor=none;strokeColor=#666666;noLabel=1;" vertex="1" parent="Ew1wF45J_AWvh-oqGIxm-1">
          <mxGeometry x="680" y="195" width="30" height="15" as="geometry" />
        </mxCell>
        <mxCell id="17Y7an61mM4vr6zxtQ1S-359" value="9" style="rounded=0;whiteSpace=wrap;html=1;fillColor=#CCCCCC;align=center;spacingRight=0;verticalAlign=middle;spacingTop=-3;fontColor=none;strokeColor=#666666;noLabel=1;" vertex="1" parent="Ew1wF45J_AWvh-oqGIxm-1">
          <mxGeometry x="670" y="210" width="20" height="25" as="geometry" />
        </mxCell>
        <mxCell id="17Y7an61mM4vr6zxtQ1S-364" value="5" style="rounded=0;whiteSpace=wrap;html=1;fillColor=#CCCCCC;align=center;spacingRight=0;verticalAlign=middle;fontColor=none;strokeColor=#666666;noLabel=1;" vertex="1" parent="Ew1wF45J_AWvh-oqGIxm-1">
          <mxGeometry x="630" y="160" width="50" height="15" as="geometry" />
        </mxCell>
        <mxCell id="17Y7an61mM4vr6zxtQ1S-365" value="6" style="rounded=0;whiteSpace=wrap;html=1;fillColor=#CCCCCC;align=center;spacingRight=0;verticalAlign=middle;fontColor=none;strokeColor=#666666;noLabel=1;" vertex="1" parent="Ew1wF45J_AWvh-oqGIxm-1">
          <mxGeometry x="680" y="165" width="30" height="10" as="geometry" />
        </mxCell>
        <mxCell id="17Y7an61mM4vr6zxtQ1S-396" value="" style="endArrow=oval;html=1;rounded=0;fontSize=20;targetPerimeterSpacing=0;strokeWidth=1;startArrow=oval;startFill=1;endSize=5;startSize=5;endFill=0;movable=1;resizable=1;rotatable=1;deletable=1;editable=1;locked=0;connectable=1;entryX=0;entryY=1;entryDx=0;entryDy=0;strokeColor=#666666;" edge="1" parent="Ew1wF45J_AWvh-oqGIxm-1">
          <mxGeometry width="50" height="50" relative="1" as="geometry">
            <mxPoint x="590" y="175" as="sourcePoint" />
            <mxPoint x="630" y="175" as="targetPoint" />
          </mxGeometry>
        </mxCell>
        <mxCell id="17Y7an61mM4vr6zxtQ1S-397" value="" style="endArrow=oval;html=1;rounded=0;fontSize=20;targetPerimeterSpacing=0;strokeWidth=1;startArrow=oval;startFill=0;endSize=5;startSize=5;jumpStyle=none;jumpSize=6;dashed=1;dashPattern=1 1;endFill=1;movable=1;resizable=1;rotatable=1;deletable=1;editable=1;locked=0;connectable=1;strokeColor=#666666;" edge="1" parent="Ew1wF45J_AWvh-oqGIxm-1">
          <mxGeometry width="50" height="50" relative="1" as="geometry">
            <mxPoint x="630" y="175" as="sourcePoint" />
            <mxPoint x="630" y="135" as="targetPoint" />
          </mxGeometry>
        </mxCell>
        <mxCell id="17Y7an61mM4vr6zxtQ1S-399" value="" style="endArrow=none;html=1;rounded=0;fontSize=20;targetPerimeterSpacing=0;strokeWidth=1;startArrow=oval;startFill=1;endSize=5;startSize=5;endFill=0;movable=1;resizable=1;rotatable=1;deletable=1;editable=1;locked=0;connectable=1;strokeColor=#666666;" edge="1" parent="Ew1wF45J_AWvh-oqGIxm-1">
          <mxGeometry width="50" height="50" relative="1" as="geometry">
            <mxPoint x="630" y="135" as="sourcePoint" />
            <mxPoint x="710" y="135" as="targetPoint" />
          </mxGeometry>
        </mxCell>
        <mxCell id="17Y7an61mM4vr6zxtQ1S-395" value="" style="endArrow=none;html=1;rounded=0;fontSize=20;targetPerimeterSpacing=0;strokeWidth=1;startArrow=oval;startFill=1;endSize=5;startSize=5;endFill=0;movable=1;resizable=1;rotatable=1;deletable=1;editable=1;locked=0;connectable=1;strokeColor=#666666;" edge="1" parent="Ew1wF45J_AWvh-oqGIxm-1">
          <mxGeometry width="50" height="50" relative="1" as="geometry">
            <mxPoint x="670" y="195.28999999999996" as="sourcePoint" />
            <mxPoint x="710" y="195" as="targetPoint" />
          </mxGeometry>
        </mxCell>
        <mxCell id="17Y7an61mM4vr6zxtQ1S-393" value="" style="endArrow=oval;html=1;rounded=0;fontSize=20;targetPerimeterSpacing=0;strokeWidth=1;startArrow=oval;startFill=1;endSize=5;startSize=5;endFill=0;movable=1;resizable=1;rotatable=1;deletable=1;editable=1;locked=0;connectable=1;entryX=0;entryY=1;entryDx=0;entryDy=0;strokeColor=#666666;" edge="1" parent="Ew1wF45J_AWvh-oqGIxm-1" target="17Y7an61mM4vr6zxtQ1S-359">
          <mxGeometry width="50" height="50" relative="1" as="geometry">
            <mxPoint x="630" y="235" as="sourcePoint" />
            <mxPoint x="660" y="235" as="targetPoint" />
          </mxGeometry>
        </mxCell>
        <mxCell id="17Y7an61mM4vr6zxtQ1S-389" value="" style="endArrow=oval;html=1;rounded=0;fontSize=20;targetPerimeterSpacing=0;strokeWidth=1;startArrow=oval;startFill=0;endSize=5;startSize=5;jumpStyle=none;jumpSize=6;dashed=1;dashPattern=1 1;endFill=1;movable=1;resizable=1;rotatable=1;deletable=1;editable=1;locked=0;connectable=1;strokeColor=#666666;" edge="1" parent="Ew1wF45J_AWvh-oqGIxm-1">
          <mxGeometry width="50" height="50" relative="1" as="geometry">
            <mxPoint x="630" y="195" as="sourcePoint" />
            <mxPoint x="630" y="235" as="targetPoint" />
          </mxGeometry>
        </mxCell>
        <mxCell id="17Y7an61mM4vr6zxtQ1S-388" value="" style="endArrow=oval;html=1;rounded=0;fontSize=20;targetPerimeterSpacing=0;strokeWidth=1;startArrow=none;startFill=0;endSize=5;startSize=5;endFill=0;fontStyle=0;strokeColor=#666666;" edge="1" parent="Ew1wF45J_AWvh-oqGIxm-1">
          <mxGeometry width="50" height="50" relative="1" as="geometry">
            <mxPoint x="590" y="195" as="sourcePoint" />
            <mxPoint x="630" y="195" as="targetPoint" />
          </mxGeometry>
        </mxCell>
        <mxCell id="17Y7an61mM4vr6zxtQ1S-394" value="" style="endArrow=oval;html=1;rounded=0;fontSize=20;targetPerimeterSpacing=0;strokeWidth=1;startArrow=oval;startFill=0;endSize=5;startSize=5;jumpStyle=none;jumpSize=6;dashed=1;dashPattern=1 1;endFill=1;movable=1;resizable=1;rotatable=1;deletable=1;editable=1;locked=0;connectable=1;strokeColor=#666666;" edge="1" parent="Ew1wF45J_AWvh-oqGIxm-1">
          <mxGeometry width="50" height="50" relative="1" as="geometry">
            <mxPoint x="670" y="235" as="sourcePoint" />
            <mxPoint x="670" y="195" as="targetPoint" />
          </mxGeometry>
        </mxCell>
        <mxCell id="17Y7an61mM4vr6zxtQ1S-391" value="" style="endArrow=none;html=1;rounded=0;fontSize=20;startSize=5;endSize=14;targetPerimeterSpacing=0;strokeWidth=1.5;jumpStyle=none;jumpSize=6;fontStyle=0;fontFamily=Verdana;endFill=0;labelBackgroundColor=none;spacingLeft=0;spacing=2;labelPosition=center;verticalLabelPosition=middle;align=center;verticalAlign=middle;movable=1;resizable=1;rotatable=1;deletable=1;editable=1;locked=0;connectable=1;" edge="1" parent="Ew1wF45J_AWvh-oqGIxm-1">
          <mxGeometry x="0.8179" y="-16" width="50" height="50" relative="1" as="geometry">
            <mxPoint x="552" y="235" as="sourcePoint" />
            <mxPoint x="590" y="235" as="targetPoint" />
            <mxPoint as="offset" />
          </mxGeometry>
        </mxCell>
        <mxCell id="17Y7an61mM4vr6zxtQ1S-392" value="" style="endArrow=none;html=1;rounded=0;fontSize=20;startSize=5;endSize=14;targetPerimeterSpacing=0;strokeWidth=1.5;jumpStyle=none;jumpSize=6;fontStyle=0;fontFamily=Verdana;endFill=0;labelBackgroundColor=none;spacingLeft=0;spacing=2;labelPosition=center;verticalLabelPosition=middle;align=center;verticalAlign=middle;movable=1;resizable=1;rotatable=1;deletable=1;editable=1;locked=0;connectable=1;strokeColor=#666666;" edge="1" parent="Ew1wF45J_AWvh-oqGIxm-1">
          <mxGeometry x="0.8179" y="-16" width="50" height="50" relative="1" as="geometry">
            <mxPoint x="590" y="235" as="sourcePoint" />
            <mxPoint x="628" y="235" as="targetPoint" />
            <mxPoint as="offset" />
          </mxGeometry>
        </mxCell>
        <mxCell id="17Y7an61mM4vr6zxtQ1S-382" value="" style="rounded=0;whiteSpace=wrap;html=1;fontSize=20;strokeWidth=1;fillColor=#99FFCC;strokeColor=none;gradientColor=none;gradientDirection=north;sketch=1;sketchStyle=rough;fillStyle=dashed;perimeterSpacing=0;labelBackgroundColor=none;disableMultiStroke=0;disableMultiStrokeFill=0;dashOffset=10;dashGap=3;hachureGap=5;fillWeight=1;hachureAngle=-45;curveFitting=-5.05;simplification=1;zigzagOffset=-10;fontStyle=0;container=0;" vertex="1" parent="Ew1wF45J_AWvh-oqGIxm-1">
          <mxGeometry x="510" y="135" width="80" height="40" as="geometry" />
        </mxCell>
        <mxCell id="17Y7an61mM4vr6zxtQ1S-383" value="" style="rounded=0;whiteSpace=wrap;html=1;fontSize=20;strokeWidth=1;fillColor=#99FFCC;strokeColor=none;gradientColor=none;gradientDirection=north;sketch=1;sketchStyle=rough;fillStyle=dashed;perimeterSpacing=0;labelBackgroundColor=none;disableMultiStroke=0;disableMultiStrokeFill=0;dashOffset=10;dashGap=3;hachureGap=5;fillWeight=1;hachureAngle=-45;curveFitting=-5.05;simplification=1;zigzagOffset=-10;fontStyle=0;container=0;" vertex="1" parent="Ew1wF45J_AWvh-oqGIxm-1">
          <mxGeometry x="550" y="195" width="40" height="40" as="geometry" />
        </mxCell>
        <mxCell id="17Y7an61mM4vr6zxtQ1S-344" value="" style="rounded=0;whiteSpace=wrap;html=1;glass=0;sketch=0;fillStyle=auto;sketchStyle=rough;fontSize=20;strokeColor=none;strokeWidth=1;fillColor=#EDEDED;gradientColor=none;gradientDirection=north;container=0;movable=1;resizable=1;rotatable=1;deletable=1;editable=1;locked=0;connectable=1;" vertex="1" parent="Ew1wF45J_AWvh-oqGIxm-1">
          <mxGeometry x="490" y="50" width="220" height="70" as="geometry" />
        </mxCell>
        <mxCell id="17Y7an61mM4vr6zxtQ1S-191" value="" style="rounded=0;whiteSpace=wrap;html=1;shadow=1;" vertex="1" parent="Ew1wF45J_AWvh-oqGIxm-1">
          <mxGeometry x="80" y="40" width="240" height="210" as="geometry" />
        </mxCell>
        <mxCell id="17Y7an61mM4vr6zxtQ1S-192" value="" style="rounded=0;whiteSpace=wrap;html=1;glass=0;sketch=0;fillStyle=auto;sketchStyle=rough;fontSize=20;strokeColor=none;strokeWidth=1;fillColor=#EDEDED;gradientColor=none;gradientDirection=north;container=0;movable=1;resizable=1;rotatable=1;deletable=1;editable=1;locked=0;connectable=1;" vertex="1" parent="Ew1wF45J_AWvh-oqGIxm-1">
          <mxGeometry x="90" y="190" width="220" height="50" as="geometry" />
        </mxCell>
        <mxCell id="17Y7an61mM4vr6zxtQ1S-193" value="" style="rounded=0;whiteSpace=wrap;html=1;glass=0;sketch=0;fillStyle=auto;sketchStyle=rough;fontSize=20;strokeColor=none;strokeWidth=1;fillColor=#EDEDED;gradientColor=none;gradientDirection=north;container=0;movable=1;resizable=1;rotatable=1;deletable=1;editable=1;locked=0;connectable=1;" vertex="1" parent="Ew1wF45J_AWvh-oqGIxm-1">
          <mxGeometry x="90" y="130" width="220" height="50" as="geometry" />
        </mxCell>
        <mxCell id="17Y7an61mM4vr6zxtQ1S-194" value="" style="rounded=0;whiteSpace=wrap;html=1;glass=0;sketch=0;fillStyle=auto;sketchStyle=rough;fontSize=20;strokeColor=none;strokeWidth=1;fillColor=#EDEDED;gradientColor=none;gradientDirection=north;container=0;movable=1;resizable=1;rotatable=1;deletable=1;editable=1;locked=0;connectable=1;" vertex="1" parent="Ew1wF45J_AWvh-oqGIxm-1">
          <mxGeometry x="90" y="50" width="220" height="70" as="geometry" />
        </mxCell>
        <mxCell id="17Y7an61mM4vr6zxtQ1S-195" value="" style="rounded=1;whiteSpace=wrap;html=1;fontStyle=0;fontSize=20;strokeWidth=2;fillColor=#E6FFCC;" vertex="1" parent="Ew1wF45J_AWvh-oqGIxm-1">
          <mxGeometry x="110" y="55" width="20" height="20" as="geometry" />
        </mxCell>
        <mxCell id="17Y7an61mM4vr6zxtQ1S-196" value="" style="rounded=1;whiteSpace=wrap;html=1;fontStyle=0;fontSize=20;strokeWidth=2;fillColor=#E6FFCC;" vertex="1" parent="Ew1wF45J_AWvh-oqGIxm-1">
          <mxGeometry x="150" y="55" width="35" height="20" as="geometry" />
        </mxCell>
        <mxCell id="17Y7an61mM4vr6zxtQ1S-197" value="" style="rounded=1;whiteSpace=wrap;html=1;fontStyle=0;fontSize=20;strokeWidth=2;fillColor=#E6FFCC;" vertex="1" parent="Ew1wF45J_AWvh-oqGIxm-1">
          <mxGeometry x="110" y="75" width="40" height="20" as="geometry" />
        </mxCell>
        <mxCell id="17Y7an61mM4vr6zxtQ1S-198" value="" style="rounded=1;whiteSpace=wrap;html=1;fontStyle=0;fontSize=20;strokeWidth=2;fillColor=#E6FFCC;" vertex="1" parent="Ew1wF45J_AWvh-oqGIxm-1">
          <mxGeometry x="230" y="75" width="50" height="20" as="geometry" />
        </mxCell>
        <mxCell id="17Y7an61mM4vr6zxtQ1S-199" value="" style="rounded=1;whiteSpace=wrap;html=1;fontStyle=0;fontSize=20;strokeWidth=2;fillColor=#E6FFCC;" vertex="1" parent="Ew1wF45J_AWvh-oqGIxm-1">
          <mxGeometry x="180" y="75" width="30" height="20" as="geometry" />
        </mxCell>
        <mxCell id="17Y7an61mM4vr6zxtQ1S-200" value="" style="rounded=1;whiteSpace=wrap;html=1;fontStyle=0;fontSize=20;strokeWidth=2;fillColor=#E6FFCC;strokeColor=#000000;shadow=0;" vertex="1" parent="Ew1wF45J_AWvh-oqGIxm-1">
          <mxGeometry x="280" y="55" width="30" height="20" as="geometry" />
        </mxCell>
        <mxCell id="17Y7an61mM4vr6zxtQ1S-201" value="" style="rounded=1;whiteSpace=wrap;html=1;fontStyle=0;fontSize=20;strokeWidth=2;fillColor=#CCFFFF;" vertex="1" parent="Ew1wF45J_AWvh-oqGIxm-1">
          <mxGeometry x="150" y="95" width="30" height="20" as="geometry" />
        </mxCell>
        <mxCell id="17Y7an61mM4vr6zxtQ1S-202" value="" style="rounded=1;whiteSpace=wrap;html=1;fontStyle=0;fontSize=20;strokeWidth=2;fillColor=#CCFFFF;" vertex="1" parent="Ew1wF45J_AWvh-oqGIxm-1">
          <mxGeometry x="185" y="95" width="40" height="20" as="geometry" />
        </mxCell>
        <mxCell id="17Y7an61mM4vr6zxtQ1S-203" value="" style="rounded=1;whiteSpace=wrap;html=1;fontStyle=0;fontSize=20;strokeWidth=2;fillColor=#CCFFFF;strokeColor=#000000;perimeterSpacing=0;glass=0;shadow=0;" vertex="1" parent="Ew1wF45J_AWvh-oqGIxm-1">
          <mxGeometry x="270" y="95" width="20" height="20" as="geometry" />
        </mxCell>
        <mxCell id="17Y7an61mM4vr6zxtQ1S-204" value="" style="rounded=0;whiteSpace=wrap;html=1;fontSize=20;strokeWidth=1;fillColor=#99FFCC;strokeColor=none;gradientColor=none;gradientDirection=north;sketch=1;sketchStyle=rough;fillStyle=dashed;perimeterSpacing=0;labelBackgroundColor=none;disableMultiStroke=0;disableMultiStrokeFill=0;dashOffset=10;dashGap=3;hachureGap=5;fillWeight=1;hachureAngle=-45;curveFitting=-5.05;simplification=1;zigzagOffset=-10;fontStyle=0;container=0;" vertex="1" parent="Ew1wF45J_AWvh-oqGIxm-1">
          <mxGeometry x="90" y="195" width="20" height="40" as="geometry" />
        </mxCell>
        <mxCell id="17Y7an61mM4vr6zxtQ1S-205" value="" style="rounded=0;whiteSpace=wrap;html=1;fontSize=20;strokeWidth=1;fillColor=#99FFCC;strokeColor=none;gradientColor=none;gradientDirection=north;sketch=1;sketchStyle=rough;fillStyle=dashed;perimeterSpacing=0;labelBackgroundColor=none;disableMultiStroke=0;disableMultiStrokeFill=0;dashOffset=10;dashGap=3;hachureGap=5;fillWeight=1;hachureAngle=-45;curveFitting=-5.05;simplification=1;zigzagOffset=-10;fontStyle=0;container=0;" vertex="1" parent="Ew1wF45J_AWvh-oqGIxm-1">
          <mxGeometry x="230" y="135" width="80" height="40" as="geometry" />
        </mxCell>
        <mxCell id="17Y7an61mM4vr6zxtQ1S-206" value="" style="rounded=0;whiteSpace=wrap;html=1;fontSize=20;strokeWidth=1;fillColor=#99FFCC;strokeColor=none;gradientColor=none;gradientDirection=north;sketch=1;sketchStyle=rough;fillStyle=dashed;perimeterSpacing=0;labelBackgroundColor=none;disableMultiStroke=0;disableMultiStrokeFill=0;dashOffset=10;dashGap=3;hachureGap=5;fillWeight=1;hachureAngle=-45;curveFitting=-5.05;simplification=1;zigzagOffset=-10;fontStyle=0;container=0;" vertex="1" parent="Ew1wF45J_AWvh-oqGIxm-1">
          <mxGeometry x="150" y="195" width="80" height="40" as="geometry" />
        </mxCell>
        <mxCell id="17Y7an61mM4vr6zxtQ1S-207" value="" style="rounded=0;whiteSpace=wrap;html=1;fontSize=20;strokeWidth=1;fillColor=#99FFCC;strokeColor=none;gradientColor=none;gradientDirection=north;sketch=1;sketchStyle=rough;fillStyle=dashed;perimeterSpacing=0;labelBackgroundColor=none;disableMultiStroke=0;disableMultiStrokeFill=0;dashOffset=10;dashGap=3;hachureGap=5;fillWeight=1;hachureAngle=-45;curveFitting=-5.05;simplification=1;zigzagOffset=-10;fontStyle=0;container=0;" vertex="1" parent="Ew1wF45J_AWvh-oqGIxm-1">
          <mxGeometry x="110" y="135" width="80" height="40" as="geometry" />
        </mxCell>
        <mxCell id="17Y7an61mM4vr6zxtQ1S-208" value="" style="rounded=0;whiteSpace=wrap;html=1;fontSize=20;strokeWidth=1;fillColor=#99FFCC;strokeColor=none;gradientColor=none;gradientDirection=north;sketch=1;sketchStyle=rough;fillStyle=dashed;perimeterSpacing=0;labelBackgroundColor=none;disableMultiStroke=0;disableMultiStrokeFill=0;dashOffset=10;dashGap=3;hachureGap=5;fillWeight=1;hachureAngle=-45;curveFitting=-5.05;simplification=1;zigzagOffset=-10;fontStyle=0;container=0;" vertex="1" parent="Ew1wF45J_AWvh-oqGIxm-1">
          <mxGeometry x="270" y="195" width="40" height="40" as="geometry" />
        </mxCell>
        <mxCell id="17Y7an61mM4vr6zxtQ1S-209" value="" style="rounded=0;whiteSpace=wrap;html=1;fillColor=#E6FFCC;" vertex="1" parent="Ew1wF45J_AWvh-oqGIxm-1">
          <mxGeometry x="110" y="160" width="40" height="15" as="geometry" />
        </mxCell>
        <mxCell id="17Y7an61mM4vr6zxtQ1S-210" value="" style="rounded=0;whiteSpace=wrap;html=1;fillColor=#E6FFCC;" vertex="1" parent="Ew1wF45J_AWvh-oqGIxm-1">
          <mxGeometry x="110" y="140" width="20" height="20" as="geometry" />
        </mxCell>
        <mxCell id="17Y7an61mM4vr6zxtQ1S-211" value="" style="rounded=0;whiteSpace=wrap;html=1;fillColor=#E6FFCC;" vertex="1" parent="Ew1wF45J_AWvh-oqGIxm-1">
          <mxGeometry x="150" y="150" width="35" height="25" as="geometry" />
        </mxCell>
        <mxCell id="17Y7an61mM4vr6zxtQ1S-212" value="" style="rounded=0;whiteSpace=wrap;html=1;fillColor=#E6FFCC;" vertex="1" parent="Ew1wF45J_AWvh-oqGIxm-1">
          <mxGeometry x="150" y="225" width="35" height="10" as="geometry" />
        </mxCell>
        <mxCell id="17Y7an61mM4vr6zxtQ1S-213" value="" style="rounded=0;whiteSpace=wrap;html=1;fillColor=#CCFFFF;" vertex="1" parent="Ew1wF45J_AWvh-oqGIxm-1">
          <mxGeometry x="150" y="135" width="30" height="15" as="geometry" />
        </mxCell>
        <mxCell id="17Y7an61mM4vr6zxtQ1S-214" value="" style="rounded=0;whiteSpace=wrap;html=1;fillColor=#CCFFFF;" vertex="1" parent="Ew1wF45J_AWvh-oqGIxm-1">
          <mxGeometry x="150" y="200" width="30" height="25" as="geometry" />
        </mxCell>
        <mxCell id="17Y7an61mM4vr6zxtQ1S-215" value="" style="rounded=0;whiteSpace=wrap;html=1;fillColor=#E6FFCC;" vertex="1" parent="Ew1wF45J_AWvh-oqGIxm-1">
          <mxGeometry x="180" y="195" width="30" height="30" as="geometry" />
        </mxCell>
        <mxCell id="17Y7an61mM4vr6zxtQ1S-216" value="" style="rounded=0;whiteSpace=wrap;html=1;fillColor=#CCFFFF;" vertex="1" parent="Ew1wF45J_AWvh-oqGIxm-1">
          <mxGeometry x="185" y="225" width="40" height="10" as="geometry" />
        </mxCell>
        <mxCell id="17Y7an61mM4vr6zxtQ1S-217" value="" style="rounded=0;whiteSpace=wrap;html=1;fillColor=#CCFFFF;" vertex="1" parent="Ew1wF45J_AWvh-oqGIxm-1">
          <mxGeometry x="270" y="210" width="20" height="25" as="geometry" />
        </mxCell>
        <mxCell id="17Y7an61mM4vr6zxtQ1S-218" value="" style="rounded=0;whiteSpace=wrap;html=1;fillColor=#E6FFCC;" vertex="1" parent="Ew1wF45J_AWvh-oqGIxm-1">
          <mxGeometry x="230" y="160" width="50" height="15" as="geometry" />
        </mxCell>
        <mxCell id="17Y7an61mM4vr6zxtQ1S-219" value="" style="rounded=0;whiteSpace=wrap;html=1;fillColor=#E6FFCC;" vertex="1" parent="Ew1wF45J_AWvh-oqGIxm-1">
          <mxGeometry x="280" y="195" width="30" height="15" as="geometry" />
        </mxCell>
        <mxCell id="17Y7an61mM4vr6zxtQ1S-220" value="" style="rounded=0;whiteSpace=wrap;html=1;fillColor=#E6FFCC;" vertex="1" parent="Ew1wF45J_AWvh-oqGIxm-1">
          <mxGeometry x="280" y="165" width="30" height="10" as="geometry" />
        </mxCell>
        <mxCell id="17Y7an61mM4vr6zxtQ1S-221" value="" style="endArrow=oval;html=1;rounded=0;fontSize=20;targetPerimeterSpacing=0;strokeWidth=1.5;startArrow=oval;startFill=1;endSize=5;startSize=5;endFill=0;movable=1;resizable=1;rotatable=1;deletable=1;editable=1;locked=0;connectable=1;" edge="1" parent="Ew1wF45J_AWvh-oqGIxm-1">
          <mxGeometry width="50" height="50" relative="1" as="geometry">
            <mxPoint x="110" y="135" as="sourcePoint" />
            <mxPoint x="190" y="135" as="targetPoint" />
          </mxGeometry>
        </mxCell>
        <mxCell id="17Y7an61mM4vr6zxtQ1S-222" value="" style="endArrow=oval;html=1;rounded=0;fontSize=20;targetPerimeterSpacing=0;strokeWidth=1.5;startArrow=oval;startFill=0;endSize=5;startSize=5;jumpStyle=none;jumpSize=6;dashed=1;dashPattern=1 1;endFill=1;movable=1;resizable=1;rotatable=1;deletable=1;editable=1;locked=0;connectable=1;" edge="1" parent="Ew1wF45J_AWvh-oqGIxm-1">
          <mxGeometry width="50" height="50" relative="1" as="geometry">
            <mxPoint x="110" y="175" as="sourcePoint" />
            <mxPoint x="110" y="135" as="targetPoint" />
          </mxGeometry>
        </mxCell>
        <mxCell id="17Y7an61mM4vr6zxtQ1S-223" value="" style="endArrow=oval;html=1;rounded=0;fontSize=20;targetPerimeterSpacing=0;strokeWidth=1.5;startArrow=oval;startFill=0;endSize=5;startSize=5;jumpStyle=none;jumpSize=6;dashed=1;dashPattern=1 1;endFill=1;movable=1;resizable=1;rotatable=1;deletable=1;editable=1;locked=0;connectable=1;" edge="1" parent="Ew1wF45J_AWvh-oqGIxm-1">
          <mxGeometry width="50" height="50" relative="1" as="geometry">
            <mxPoint x="190" y="135" as="sourcePoint" />
            <mxPoint x="190" y="175" as="targetPoint" />
          </mxGeometry>
        </mxCell>
        <mxCell id="17Y7an61mM4vr6zxtQ1S-224" value="" style="endArrow=oval;html=1;rounded=0;fontSize=20;targetPerimeterSpacing=0;strokeWidth=1.5;startArrow=oval;startFill=0;endSize=5;startSize=5;jumpStyle=none;jumpSize=6;dashed=1;dashPattern=1 1;endFill=1;movable=1;resizable=1;rotatable=1;deletable=1;editable=1;locked=0;connectable=1;" edge="1" parent="Ew1wF45J_AWvh-oqGIxm-1">
          <mxGeometry width="50" height="50" relative="1" as="geometry">
            <mxPoint x="230" y="175" as="sourcePoint" />
            <mxPoint x="230" y="135" as="targetPoint" />
          </mxGeometry>
        </mxCell>
        <mxCell id="17Y7an61mM4vr6zxtQ1S-225" value="" style="endArrow=none;html=1;rounded=0;fontSize=20;targetPerimeterSpacing=0;strokeWidth=1.5;startArrow=oval;startFill=1;endSize=5;startSize=5;endFill=0;movable=1;resizable=1;rotatable=1;deletable=1;editable=1;locked=0;connectable=1;" edge="1" parent="Ew1wF45J_AWvh-oqGIxm-1">
          <mxGeometry width="50" height="50" relative="1" as="geometry">
            <mxPoint x="230" y="135.14499999999998" as="sourcePoint" />
            <mxPoint x="310" y="135" as="targetPoint" />
          </mxGeometry>
        </mxCell>
        <mxCell id="17Y7an61mM4vr6zxtQ1S-226" value="" style="endArrow=oval;html=1;rounded=0;fontSize=20;targetPerimeterSpacing=0;strokeWidth=1.5;startArrow=oval;startFill=1;endSize=5;startSize=5;endFill=0;movable=1;resizable=1;rotatable=1;deletable=1;editable=1;locked=0;connectable=1;" edge="1" parent="Ew1wF45J_AWvh-oqGIxm-1">
          <mxGeometry width="50" height="50" relative="1" as="geometry">
            <mxPoint x="150" y="195" as="sourcePoint" />
            <mxPoint x="230" y="195" as="targetPoint" />
          </mxGeometry>
        </mxCell>
        <mxCell id="17Y7an61mM4vr6zxtQ1S-227" value="" style="endArrow=oval;html=1;rounded=0;fontSize=20;targetPerimeterSpacing=0;strokeWidth=1.5;startArrow=oval;startFill=0;endSize=5;startSize=5;jumpStyle=none;jumpSize=6;dashed=1;dashPattern=1 1;endFill=1;movable=1;resizable=1;rotatable=1;deletable=1;editable=1;locked=0;connectable=1;" edge="1" parent="Ew1wF45J_AWvh-oqGIxm-1">
          <mxGeometry width="50" height="50" relative="1" as="geometry">
            <mxPoint x="150" y="235" as="sourcePoint" />
            <mxPoint x="150" y="195" as="targetPoint" />
          </mxGeometry>
        </mxCell>
        <mxCell id="17Y7an61mM4vr6zxtQ1S-228" value="" style="endArrow=oval;html=1;rounded=0;fontSize=20;targetPerimeterSpacing=0;strokeWidth=1.5;startArrow=oval;startFill=0;endSize=5;startSize=5;jumpStyle=none;jumpSize=6;dashed=1;dashPattern=1 1;endFill=1;movable=1;resizable=1;rotatable=1;deletable=1;editable=1;locked=0;connectable=1;" edge="1" parent="Ew1wF45J_AWvh-oqGIxm-1">
          <mxGeometry width="50" height="50" relative="1" as="geometry">
            <mxPoint x="230" y="195" as="sourcePoint" />
            <mxPoint x="230" y="235" as="targetPoint" />
          </mxGeometry>
        </mxCell>
        <mxCell id="17Y7an61mM4vr6zxtQ1S-229" value="" style="endArrow=oval;html=1;rounded=0;fontSize=20;targetPerimeterSpacing=0;strokeWidth=1.5;startArrow=oval;startFill=0;endSize=5;startSize=5;jumpStyle=none;jumpSize=6;dashed=1;dashPattern=1 1;endFill=1;movable=1;resizable=1;rotatable=1;deletable=1;editable=1;locked=0;connectable=1;" edge="1" parent="Ew1wF45J_AWvh-oqGIxm-1">
          <mxGeometry width="50" height="50" relative="1" as="geometry">
            <mxPoint x="270" y="235" as="sourcePoint" />
            <mxPoint x="270" y="195" as="targetPoint" />
          </mxGeometry>
        </mxCell>
        <mxCell id="17Y7an61mM4vr6zxtQ1S-230" value="" style="endArrow=none;html=1;rounded=0;fontSize=20;targetPerimeterSpacing=0;strokeWidth=1.5;startArrow=oval;startFill=1;endSize=5;startSize=5;endFill=0;movable=1;resizable=1;rotatable=1;deletable=1;editable=1;locked=0;connectable=1;" edge="1" parent="Ew1wF45J_AWvh-oqGIxm-1">
          <mxGeometry width="50" height="50" relative="1" as="geometry">
            <mxPoint x="270" y="195.14499999999998" as="sourcePoint" />
            <mxPoint x="310" y="195" as="targetPoint" />
          </mxGeometry>
        </mxCell>
        <mxCell id="17Y7an61mM4vr6zxtQ1S-231" value="" style="endArrow=oval;html=1;rounded=0;fontSize=20;targetPerimeterSpacing=0;strokeWidth=1.5;startArrow=none;startFill=0;endSize=5;startSize=5;endFill=0;fontStyle=0" edge="1" parent="Ew1wF45J_AWvh-oqGIxm-1">
          <mxGeometry width="50" height="50" relative="1" as="geometry">
            <mxPoint x="90" y="195.265" as="sourcePoint" />
            <mxPoint x="110" y="195.265" as="targetPoint" />
          </mxGeometry>
        </mxCell>
        <mxCell id="17Y7an61mM4vr6zxtQ1S-232" value="" style="endArrow=oval;html=1;rounded=0;fontSize=20;targetPerimeterSpacing=0;strokeWidth=1.5;startArrow=oval;startFill=0;endSize=5;startSize=5;jumpStyle=none;jumpSize=6;dashed=1;dashPattern=1 1;endFill=1;movable=1;resizable=1;rotatable=1;deletable=1;editable=1;locked=0;connectable=1;" edge="1" parent="Ew1wF45J_AWvh-oqGIxm-1">
          <mxGeometry width="50" height="50" relative="1" as="geometry">
            <mxPoint x="110" y="195" as="sourcePoint" />
            <mxPoint x="110" y="235" as="targetPoint" />
          </mxGeometry>
        </mxCell>
        <mxCell id="17Y7an61mM4vr6zxtQ1S-233" value="" style="endArrow=oval;html=1;rounded=0;fontSize=20;targetPerimeterSpacing=0;strokeWidth=1.5;startArrow=oval;startFill=1;endSize=5;startSize=5;endFill=0;movable=1;resizable=1;rotatable=1;deletable=1;editable=1;locked=0;connectable=1;" edge="1" parent="Ew1wF45J_AWvh-oqGIxm-1">
          <mxGeometry width="50" height="50" relative="1" as="geometry">
            <mxPoint x="110" y="235" as="sourcePoint" />
            <mxPoint x="150" y="235" as="targetPoint" />
          </mxGeometry>
        </mxCell>
        <mxCell id="17Y7an61mM4vr6zxtQ1S-234" value="" style="endArrow=oval;html=1;rounded=0;fontSize=20;targetPerimeterSpacing=0;strokeWidth=1.5;startArrow=oval;startFill=1;endSize=5;startSize=5;endFill=0;movable=1;resizable=1;rotatable=1;deletable=1;editable=1;locked=0;connectable=1;" edge="1" parent="Ew1wF45J_AWvh-oqGIxm-1">
          <mxGeometry width="50" height="50" relative="1" as="geometry">
            <mxPoint x="230" y="235" as="sourcePoint" />
            <mxPoint x="270" y="235" as="targetPoint" />
          </mxGeometry>
        </mxCell>
        <mxCell id="17Y7an61mM4vr6zxtQ1S-235" value="" style="endArrow=oval;html=1;rounded=0;fontSize=20;targetPerimeterSpacing=0;strokeWidth=1.5;startArrow=oval;startFill=1;endSize=5;startSize=5;endFill=0;movable=1;resizable=1;rotatable=1;deletable=1;editable=1;locked=0;connectable=1;" edge="1" parent="Ew1wF45J_AWvh-oqGIxm-1">
          <mxGeometry width="50" height="50" relative="1" as="geometry">
            <mxPoint x="190" y="175" as="sourcePoint" />
            <mxPoint x="230" y="175" as="targetPoint" />
          </mxGeometry>
        </mxCell>
        <mxCell id="17Y7an61mM4vr6zxtQ1S-236" value="" style="endArrow=oval;html=1;rounded=0;fontSize=20;targetPerimeterSpacing=0;strokeWidth=1.5;startArrow=none;startFill=0;endSize=5;startSize=5;endFill=0;fontStyle=0" edge="1" parent="Ew1wF45J_AWvh-oqGIxm-1">
          <mxGeometry width="50" height="50" relative="1" as="geometry">
            <mxPoint x="90" y="175.265" as="sourcePoint" />
            <mxPoint x="110" y="175.265" as="targetPoint" />
          </mxGeometry>
        </mxCell>
        <mxCell id="17Y7an61mM4vr6zxtQ1S-237" value="" style="endArrow=none;html=1;rounded=0;fontSize=20;startSize=5;endSize=14;targetPerimeterSpacing=0;strokeWidth=1.5;jumpStyle=none;jumpSize=6;fontStyle=0;fontFamily=Verdana;endFill=0;labelBackgroundColor=none;spacingLeft=0;spacing=2;labelPosition=center;verticalLabelPosition=middle;align=center;verticalAlign=middle;movable=1;resizable=1;rotatable=1;deletable=1;editable=1;locked=0;connectable=1;" edge="1" parent="Ew1wF45J_AWvh-oqGIxm-1">
          <mxGeometry x="0.8179" y="-16" width="50" height="50" relative="1" as="geometry">
            <mxPoint x="89" y="235" as="sourcePoint" />
            <mxPoint x="110" y="235" as="targetPoint" />
            <mxPoint as="offset" />
          </mxGeometry>
        </mxCell>
        <mxCell id="17Y7an61mM4vr6zxtQ1S-238" value="" style="endArrow=none;html=1;rounded=0;fontSize=20;startSize=5;endSize=14;targetPerimeterSpacing=0;strokeWidth=1.5;jumpStyle=none;jumpSize=6;fontStyle=0;fontFamily=Verdana;endFill=0;labelBackgroundColor=none;spacingLeft=0;spacing=2;labelPosition=center;verticalLabelPosition=middle;align=center;verticalAlign=middle;movable=1;resizable=1;rotatable=1;deletable=1;editable=1;locked=0;connectable=1;" edge="1" parent="Ew1wF45J_AWvh-oqGIxm-1">
          <mxGeometry x="0.8179" y="-16" width="50" height="50" relative="1" as="geometry">
            <mxPoint x="152" y="235" as="sourcePoint" />
            <mxPoint x="230" y="235" as="targetPoint" />
            <mxPoint as="offset" />
          </mxGeometry>
        </mxCell>
        <mxCell id="17Y7an61mM4vr6zxtQ1S-239" value="" style="endArrow=none;html=1;rounded=0;fontSize=20;startSize=5;endSize=14;targetPerimeterSpacing=0;strokeWidth=1.5;jumpStyle=none;jumpSize=6;fontStyle=0;fontFamily=Verdana;endFill=0;labelBackgroundColor=none;spacingLeft=0;spacing=2;labelPosition=center;verticalLabelPosition=middle;align=center;verticalAlign=middle;movable=1;resizable=1;rotatable=1;deletable=1;editable=1;locked=0;connectable=1;" edge="1" parent="Ew1wF45J_AWvh-oqGIxm-1">
          <mxGeometry x="0.8179" y="-16" width="50" height="50" relative="1" as="geometry">
            <mxPoint x="272" y="235" as="sourcePoint" />
            <mxPoint x="310" y="235" as="targetPoint" />
            <mxPoint as="offset" />
          </mxGeometry>
        </mxCell>
        <mxCell id="17Y7an61mM4vr6zxtQ1S-240" value="" style="endArrow=none;html=1;rounded=0;fontSize=20;startSize=5;endSize=14;targetPerimeterSpacing=0;strokeWidth=1.5;jumpStyle=none;jumpSize=6;fontStyle=0;fontFamily=Verdana;endFill=0;labelBackgroundColor=none;spacingLeft=0;spacing=2;labelPosition=center;verticalLabelPosition=middle;align=center;verticalAlign=middle;movable=1;resizable=1;rotatable=1;deletable=1;editable=1;locked=0;connectable=1;entryX=1;entryY=1;entryDx=0;entryDy=0;" edge="1" target="17Y7an61mM4vr6zxtQ1S-205" parent="Ew1wF45J_AWvh-oqGIxm-1">
          <mxGeometry x="0.8179" y="-16" width="50" height="50" relative="1" as="geometry">
            <mxPoint x="232" y="175" as="sourcePoint" />
            <mxPoint x="270" y="175" as="targetPoint" />
            <mxPoint as="offset" />
          </mxGeometry>
        </mxCell>
        <mxCell id="17Y7an61mM4vr6zxtQ1S-241" value="" style="endArrow=none;html=1;rounded=0;fontSize=20;startSize=5;endSize=14;targetPerimeterSpacing=0;strokeWidth=1.5;jumpStyle=none;jumpSize=6;fontStyle=0;fontFamily=Verdana;endFill=0;labelBackgroundColor=none;spacingLeft=0;spacing=2;labelPosition=center;verticalLabelPosition=middle;align=center;verticalAlign=middle;movable=1;resizable=1;rotatable=1;deletable=1;editable=1;locked=0;connectable=1;entryX=1;entryY=1;entryDx=0;entryDy=0;" edge="1" parent="Ew1wF45J_AWvh-oqGIxm-1">
          <mxGeometry x="0.8179" y="-16" width="50" height="50" relative="1" as="geometry">
            <mxPoint x="112" y="175" as="sourcePoint" />
            <mxPoint x="190" y="175" as="targetPoint" />
            <mxPoint as="offset" />
          </mxGeometry>
        </mxCell>
        <mxCell id="17Y7an61mM4vr6zxtQ1S-243" value="&lt;span style=&quot;color: rgb(0, 0, 0); font-family: Helvetica; font-size: 12px; font-style: normal; font-variant-ligatures: normal; font-variant-caps: normal; font-weight: 400; letter-spacing: normal; orphans: 2; text-align: center; text-indent: 0px; text-transform: none; widows: 2; word-spacing: 0px; -webkit-text-stroke-width: 0px; text-decoration-thickness: initial; text-decoration-style: initial; text-decoration-color: initial; float: none; display: inline !important;&quot;&gt;Find improvement intervals in suffix-relaxed schedules&lt;br&gt;&lt;/span&gt;" style="rounded=0;whiteSpace=wrap;html=1;verticalAlign=middle;gradientColor=none;shadow=1;fillColor=#FFFFFF;labelBackgroundColor=none;" vertex="1" parent="Ew1wF45J_AWvh-oqGIxm-1">
          <mxGeometry x="330" y="40" width="140" height="60" as="geometry" />
        </mxCell>
        <mxCell id="17Y7an61mM4vr6zxtQ1S-329" value="1" style="rounded=1;whiteSpace=wrap;html=1;fontStyle=0;fontSize=20;strokeWidth=2;fillColor=#E6FFCC;fontColor=none;noLabel=1;" vertex="1" parent="Ew1wF45J_AWvh-oqGIxm-1">
          <mxGeometry x="510" y="55" width="20" height="20" as="geometry" />
        </mxCell>
        <mxCell id="17Y7an61mM4vr6zxtQ1S-330" value="2" style="rounded=1;whiteSpace=wrap;html=1;fontStyle=0;fontSize=20;strokeWidth=2;fillColor=#E6FFCC;fontColor=none;noLabel=1;" vertex="1" parent="Ew1wF45J_AWvh-oqGIxm-1">
          <mxGeometry x="550" y="55" width="35" height="20" as="geometry" />
        </mxCell>
        <mxCell id="17Y7an61mM4vr6zxtQ1S-331" value="3" style="rounded=1;whiteSpace=wrap;html=1;fontStyle=0;fontSize=20;strokeWidth=2;fillColor=#E6FFCC;fontColor=none;noLabel=1;" vertex="1" parent="Ew1wF45J_AWvh-oqGIxm-1">
          <mxGeometry x="510" y="75" width="40" height="20" as="geometry" />
        </mxCell>
        <mxCell id="17Y7an61mM4vr6zxtQ1S-332" value="4" style="rounded=1;whiteSpace=wrap;html=1;fontStyle=0;fontSize=20;strokeWidth=2;fillColor=#E6FFCC;fontColor=none;noLabel=1;" vertex="1" parent="Ew1wF45J_AWvh-oqGIxm-1">
          <mxGeometry x="580" y="75" width="30" height="20" as="geometry" />
        </mxCell>
        <mxCell id="17Y7an61mM4vr6zxtQ1S-333" value="7" style="rounded=1;whiteSpace=wrap;html=1;fontStyle=0;fontSize=20;strokeWidth=2;fillColor=#CCFFFF;fontColor=none;noLabel=1;" vertex="1" parent="Ew1wF45J_AWvh-oqGIxm-1">
          <mxGeometry x="550" y="95" width="30" height="20" as="geometry" />
        </mxCell>
        <mxCell id="17Y7an61mM4vr6zxtQ1S-334" value="8" style="rounded=1;whiteSpace=wrap;html=1;fontStyle=0;fontSize=20;strokeWidth=2;fillColor=#CCFFFF;fontColor=none;noLabel=1;" vertex="1" parent="Ew1wF45J_AWvh-oqGIxm-1">
          <mxGeometry x="585" y="95" width="40" height="20" as="geometry" />
        </mxCell>
        <mxCell id="17Y7an61mM4vr6zxtQ1S-335" value="5" style="rounded=1;whiteSpace=wrap;html=1;fontStyle=0;fontSize=20;strokeWidth=1;fillColor=#CCCCCC;align=center;spacingRight=0;verticalAlign=middle;fontColor=none;strokeColor=#666666;noLabel=1;" vertex="1" parent="Ew1wF45J_AWvh-oqGIxm-1">
          <mxGeometry x="630" y="75" width="50" height="20" as="geometry" />
        </mxCell>
        <mxCell id="17Y7an61mM4vr6zxtQ1S-336" value="6" style="rounded=1;whiteSpace=wrap;html=1;fontStyle=0;fontSize=20;strokeWidth=1;fillColor=#CCCCCC;strokeColor=#666666;shadow=0;align=center;spacingRight=0;verticalAlign=middle;fontColor=none;noLabel=1;" vertex="1" parent="Ew1wF45J_AWvh-oqGIxm-1">
          <mxGeometry x="680" y="55" width="30" height="20" as="geometry" />
        </mxCell>
        <mxCell id="17Y7an61mM4vr6zxtQ1S-337" value="9" style="rounded=1;whiteSpace=wrap;html=1;fontStyle=0;fontSize=20;strokeWidth=1;fillColor=#CCCCCC;strokeColor=#666666;perimeterSpacing=0;glass=0;shadow=0;align=center;spacingRight=0;verticalAlign=middle;fontColor=none;noLabel=1;" vertex="1" parent="Ew1wF45J_AWvh-oqGIxm-1">
          <mxGeometry x="670" y="95" width="20" height="20" as="geometry" />
        </mxCell>
        <mxCell id="17Y7an61mM4vr6zxtQ1S-338" value="5" style="rounded=1;whiteSpace=wrap;html=1;fontStyle=0;fontSize=20;strokeWidth=2;fillColor=#E6FFCC;perimeterSpacing=0;glass=0;fillStyle=solid;gradientColor=none;opacity=60;fontColor=none;noLabel=1;" vertex="1" parent="Ew1wF45J_AWvh-oqGIxm-1">
          <mxGeometry x="610" y="75" width="50" height="20" as="geometry" />
        </mxCell>
        <mxCell id="17Y7an61mM4vr6zxtQ1S-339" value="6" style="rounded=1;whiteSpace=wrap;html=1;fontStyle=0;fontSize=20;strokeWidth=2;fillColor=#E6FFCC;strokeColor=#000000;shadow=0;perimeterSpacing=0;glass=0;fillStyle=solid;gradientColor=none;opacity=60;fontColor=none;noLabel=1;" vertex="1" parent="Ew1wF45J_AWvh-oqGIxm-1">
          <mxGeometry x="660" y="55" width="30" height="20" as="geometry" />
        </mxCell>
        <mxCell id="17Y7an61mM4vr6zxtQ1S-340" value="9" style="rounded=1;whiteSpace=wrap;html=1;fontStyle=0;fontSize=20;strokeWidth=2;fillColor=#CCFFFF;strokeColor=#000000;perimeterSpacing=0;glass=0;shadow=0;fillStyle=solid;opacity=60;fontColor=none;noLabel=1;" vertex="1" parent="Ew1wF45J_AWvh-oqGIxm-1">
          <mxGeometry x="625" y="95" width="20" height="20" as="geometry" />
        </mxCell>
        <mxCell id="17Y7an61mM4vr6zxtQ1S-341" value="6" style="rounded=1;whiteSpace=wrap;html=1;fontStyle=0;fontSize=20;strokeWidth=2;fillColor=none;strokeColor=#000000;shadow=0;perimeterSpacing=0;glass=0;fillStyle=solid;gradientColor=none;fontColor=none;noLabel=1;" vertex="1" parent="Ew1wF45J_AWvh-oqGIxm-1">
          <mxGeometry x="660" y="55" width="30" height="20" as="geometry" />
        </mxCell>
        <mxCell id="17Y7an61mM4vr6zxtQ1S-342" value="5" style="rounded=1;whiteSpace=wrap;html=1;fontStyle=0;fontSize=20;strokeWidth=2;fillColor=none;perimeterSpacing=0;glass=0;fillStyle=solid;gradientColor=none;fontColor=none;noLabel=1;" vertex="1" parent="Ew1wF45J_AWvh-oqGIxm-1">
          <mxGeometry x="610" y="75" width="50" height="20" as="geometry" />
        </mxCell>
        <mxCell id="17Y7an61mM4vr6zxtQ1S-343" value="9" style="rounded=1;whiteSpace=wrap;html=1;fontStyle=0;fontSize=20;strokeWidth=2;fillColor=none;strokeColor=#000000;perimeterSpacing=0;glass=0;shadow=0;fillStyle=solid;fontColor=none;noLabel=1;" vertex="1" parent="Ew1wF45J_AWvh-oqGIxm-1">
          <mxGeometry x="625" y="95" width="20" height="20" as="geometry" />
        </mxCell>
        <mxCell id="17Y7an61mM4vr6zxtQ1S-347" value="2" style="rounded=0;whiteSpace=wrap;html=1;fillColor=#E6FFCC;fontColor=none;noLabel=1;" vertex="1" parent="Ew1wF45J_AWvh-oqGIxm-1">
          <mxGeometry x="550" y="225" width="35" height="10" as="geometry" />
        </mxCell>
        <mxCell id="17Y7an61mM4vr6zxtQ1S-349" value="7" style="rounded=0;whiteSpace=wrap;html=1;fillColor=#CCFFFF;fontColor=none;noLabel=1;" vertex="1" parent="Ew1wF45J_AWvh-oqGIxm-1">
          <mxGeometry x="550" y="200" width="30" height="25" as="geometry" />
        </mxCell>
        <mxCell id="17Y7an61mM4vr6zxtQ1S-350" value="4" style="rounded=0;whiteSpace=wrap;html=1;fillColor=#E6FFCC;fontColor=none;noLabel=1;" vertex="1" parent="Ew1wF45J_AWvh-oqGIxm-1">
          <mxGeometry x="580" y="195" width="30" height="30" as="geometry" />
        </mxCell>
        <mxCell id="17Y7an61mM4vr6zxtQ1S-351" value="8" style="rounded=0;whiteSpace=wrap;html=1;fillColor=#CCFFFF;fontColor=none;noLabel=1;" vertex="1" parent="Ew1wF45J_AWvh-oqGIxm-1">
          <mxGeometry x="585" y="225" width="40" height="10" as="geometry" />
        </mxCell>
        <mxCell id="17Y7an61mM4vr6zxtQ1S-352" value="9" style="rounded=0;whiteSpace=wrap;html=1;fillColor=#CCFFFF;fillStyle=solid;backgroundOutline=0;resizeHeight=0;strokeOpacity=100;direction=east;portConstraint=none;portConstraintRotation=0;gradientColor=none;zigzagOffset=-1;disableMultiStroke=0;disableMultiStrokeFill=0;fillWeight=2;strokeWidth=1;perimeterSpacing=0;opacity=60;fontColor=none;noLabel=1;" vertex="1" parent="Ew1wF45J_AWvh-oqGIxm-1">
          <mxGeometry x="625" y="210" width="20" height="25" as="geometry" />
        </mxCell>
        <mxCell id="17Y7an61mM4vr6zxtQ1S-355" value="9" style="rounded=0;whiteSpace=wrap;html=1;fillColor=none;fillStyle=solid;backgroundOutline=0;resizeHeight=0;strokeOpacity=100;direction=east;portConstraint=none;portConstraintRotation=0;gradientColor=none;zigzagOffset=-1;disableMultiStroke=0;disableMultiStrokeFill=0;fillWeight=2;strokeWidth=1;perimeterSpacing=0;fontColor=none;noLabel=1;" vertex="1" parent="Ew1wF45J_AWvh-oqGIxm-1">
          <mxGeometry x="625" y="210" width="20" height="25" as="geometry" />
        </mxCell>
        <mxCell id="17Y7an61mM4vr6zxtQ1S-345" value="1" style="rounded=0;whiteSpace=wrap;html=1;fillColor=#E6FFCC;fontColor=none;noLabel=1;" vertex="1" parent="Ew1wF45J_AWvh-oqGIxm-1">
          <mxGeometry x="510" y="140" width="20" height="20" as="geometry" />
        </mxCell>
        <mxCell id="17Y7an61mM4vr6zxtQ1S-346" value="2" style="rounded=0;whiteSpace=wrap;html=1;fillColor=#E6FFCC;fontColor=none;noLabel=1;" vertex="1" parent="Ew1wF45J_AWvh-oqGIxm-1">
          <mxGeometry x="550" y="150" width="35" height="25" as="geometry" />
        </mxCell>
        <mxCell id="17Y7an61mM4vr6zxtQ1S-348" value="7" style="rounded=0;whiteSpace=wrap;html=1;fillColor=#CCFFFF;fontColor=none;noLabel=1;" vertex="1" parent="Ew1wF45J_AWvh-oqGIxm-1">
          <mxGeometry x="550" y="135" width="30" height="15" as="geometry" />
        </mxCell>
        <mxCell id="17Y7an61mM4vr6zxtQ1S-363" value="3" style="rounded=0;whiteSpace=wrap;html=1;fillColor=#E6FFCC;fontColor=none;noLabel=1;" vertex="1" parent="Ew1wF45J_AWvh-oqGIxm-1">
          <mxGeometry x="510" y="160" width="40" height="15" as="geometry" />
        </mxCell>
        <mxCell id="17Y7an61mM4vr6zxtQ1S-366" value="5" style="rounded=0;whiteSpace=wrap;html=1;fillColor=#E6FFCC;fillStyle=solid;strokeWidth=1;perimeterSpacing=0;gradientColor=none;opacity=60;fontColor=none;noLabel=1;" vertex="1" parent="Ew1wF45J_AWvh-oqGIxm-1">
          <mxGeometry x="610" y="160" width="50" height="15" as="geometry" />
        </mxCell>
        <mxCell id="17Y7an61mM4vr6zxtQ1S-367" value="6" style="rounded=0;whiteSpace=wrap;html=1;fillColor=#E6FFCC;fillStyle=solid;strokeWidth=1;perimeterSpacing=0;gradientColor=none;opacity=60;fontColor=none;noLabel=1;" vertex="1" parent="Ew1wF45J_AWvh-oqGIxm-1">
          <mxGeometry x="660" y="165" width="30" height="10" as="geometry" />
        </mxCell>
        <mxCell id="17Y7an61mM4vr6zxtQ1S-368" value="5" style="rounded=0;whiteSpace=wrap;html=1;fillColor=none;fillStyle=solid;strokeWidth=1;perimeterSpacing=0;gradientColor=none;fontColor=none;noLabel=1;" vertex="1" parent="Ew1wF45J_AWvh-oqGIxm-1">
          <mxGeometry x="610" y="160" width="50" height="15" as="geometry" />
        </mxCell>
        <mxCell id="17Y7an61mM4vr6zxtQ1S-369" value="6" style="rounded=0;whiteSpace=wrap;html=1;fillColor=none;fillStyle=solid;strokeWidth=1;perimeterSpacing=0;gradientColor=none;fontColor=none;noLabel=1;" vertex="1" parent="Ew1wF45J_AWvh-oqGIxm-1">
          <mxGeometry x="660" y="165" width="30" height="10" as="geometry" />
        </mxCell>
        <mxCell id="17Y7an61mM4vr6zxtQ1S-376" value="" style="endArrow=none;html=1;rounded=0;fontSize=20;targetPerimeterSpacing=0;strokeWidth=1.5;startArrow=oval;startFill=1;endSize=5;startSize=5;endFill=0;movable=1;resizable=1;rotatable=1;deletable=1;editable=1;locked=0;connectable=1;" edge="1" parent="Ew1wF45J_AWvh-oqGIxm-1">
          <mxGeometry width="50" height="50" relative="1" as="geometry">
            <mxPoint x="550" y="195.14499999999998" as="sourcePoint" />
            <mxPoint x="590" y="195" as="targetPoint" />
          </mxGeometry>
        </mxCell>
        <mxCell id="17Y7an61mM4vr6zxtQ1S-379" value="" style="endArrow=oval;html=1;rounded=0;fontSize=20;targetPerimeterSpacing=0;strokeWidth=1.5;startArrow=oval;startFill=1;endSize=5;startSize=5;endFill=0;movable=1;resizable=1;rotatable=1;deletable=1;editable=1;locked=0;connectable=1;" edge="1" parent="Ew1wF45J_AWvh-oqGIxm-1">
          <mxGeometry width="50" height="50" relative="1" as="geometry">
            <mxPoint x="510" y="235" as="sourcePoint" />
            <mxPoint x="550" y="235" as="targetPoint" />
          </mxGeometry>
        </mxCell>
        <mxCell id="17Y7an61mM4vr6zxtQ1S-381" value="" style="endArrow=oval;html=1;rounded=0;fontSize=20;targetPerimeterSpacing=0;strokeWidth=1.5;startArrow=oval;startFill=0;endSize=5;startSize=5;jumpStyle=none;jumpSize=6;dashed=1;dashPattern=1 1;endFill=1;movable=1;resizable=1;rotatable=1;deletable=1;editable=1;locked=0;connectable=1;" edge="1" parent="Ew1wF45J_AWvh-oqGIxm-1">
          <mxGeometry width="50" height="50" relative="1" as="geometry">
            <mxPoint x="550" y="235" as="sourcePoint" />
            <mxPoint x="550" y="195" as="targetPoint" />
          </mxGeometry>
        </mxCell>
        <mxCell id="17Y7an61mM4vr6zxtQ1S-325" value="" style="endArrow=none;html=1;rounded=0;strokeWidth=2;strokeColor=#999999;fontColor=none;noLabel=1;" edge="1" parent="Ew1wF45J_AWvh-oqGIxm-1">
          <mxGeometry width="50" height="50" relative="1" as="geometry">
            <mxPoint x="590" y="240" as="sourcePoint" />
            <mxPoint x="590" y="50" as="targetPoint" />
          </mxGeometry>
        </mxCell>
        <mxCell id="17Y7an61mM4vr6zxtQ1S-326" value="" style="endArrow=none;dashed=1;html=1;rounded=0;strokeWidth=2;strokeColor=#CC0000;fontColor=none;noLabel=1;" edge="1" parent="Ew1wF45J_AWvh-oqGIxm-1">
          <mxGeometry width="50" height="50" relative="1" as="geometry">
            <mxPoint x="590" y="240" as="sourcePoint" />
            <mxPoint x="590" y="50" as="targetPoint" />
          </mxGeometry>
        </mxCell>
        <mxCell id="17Y7an61mM4vr6zxtQ1S-384" value="" style="endArrow=oval;html=1;rounded=0;fontSize=20;targetPerimeterSpacing=0;strokeWidth=1.5;startArrow=none;startFill=0;endSize=5;startSize=5;endFill=0;fontStyle=0" edge="1" parent="Ew1wF45J_AWvh-oqGIxm-1">
          <mxGeometry width="50" height="50" relative="1" as="geometry">
            <mxPoint x="490" y="175.265" as="sourcePoint" />
            <mxPoint x="510" y="175.265" as="targetPoint" />
          </mxGeometry>
        </mxCell>
        <mxCell id="17Y7an61mM4vr6zxtQ1S-385" value="" style="endArrow=oval;html=1;rounded=0;fontSize=20;targetPerimeterSpacing=0;strokeWidth=1.5;startArrow=oval;startFill=0;endSize=5;startSize=5;jumpStyle=none;jumpSize=6;dashed=1;dashPattern=1 1;endFill=1;movable=1;resizable=1;rotatable=1;deletable=1;editable=1;locked=0;connectable=1;" edge="1" parent="Ew1wF45J_AWvh-oqGIxm-1">
          <mxGeometry width="50" height="50" relative="1" as="geometry">
            <mxPoint x="510" y="175" as="sourcePoint" />
            <mxPoint x="510" y="135" as="targetPoint" />
          </mxGeometry>
        </mxCell>
        <mxCell id="17Y7an61mM4vr6zxtQ1S-387" value="" style="endArrow=none;html=1;rounded=0;fontSize=20;targetPerimeterSpacing=0;strokeWidth=1.5;startArrow=oval;startFill=1;endSize=5;startSize=5;endFill=0;movable=1;resizable=1;rotatable=1;deletable=1;editable=1;locked=0;connectable=1;" edge="1" parent="Ew1wF45J_AWvh-oqGIxm-1">
          <mxGeometry width="50" height="50" relative="1" as="geometry">
            <mxPoint x="510" y="135" as="sourcePoint" />
            <mxPoint x="590" y="135" as="targetPoint" />
          </mxGeometry>
        </mxCell>
        <mxCell id="17Y7an61mM4vr6zxtQ1S-361" value="6" style="rounded=0;whiteSpace=wrap;html=1;fillColor=#E6FFCC;fillStyle=solid;strokeWidth=1;perimeterSpacing=0;gradientColor=none;opacity=60;fontColor=none;noLabel=1;" vertex="1" parent="Ew1wF45J_AWvh-oqGIxm-1">
          <mxGeometry x="660" y="195" width="30" height="15" as="geometry" />
        </mxCell>
        <mxCell id="17Y7an61mM4vr6zxtQ1S-362" value="6" style="rounded=0;whiteSpace=wrap;html=1;fillColor=none;fillStyle=solid;strokeWidth=1;perimeterSpacing=0;gradientColor=none;fontColor=none;noLabel=1;" vertex="1" parent="Ew1wF45J_AWvh-oqGIxm-1">
          <mxGeometry x="660" y="195" width="30" height="15" as="geometry" />
        </mxCell>
        <mxCell id="17Y7an61mM4vr6zxtQ1S-402" value="" style="rounded=0;whiteSpace=wrap;html=1;glass=0;sketch=0;fillStyle=auto;sketchStyle=rough;fontSize=20;strokeColor=none;strokeWidth=1;fillColor=#EDEDED;gradientColor=none;gradientDirection=north;container=0;movable=1;resizable=1;rotatable=1;deletable=1;editable=1;locked=0;connectable=1;" vertex="1" parent="Ew1wF45J_AWvh-oqGIxm-1">
          <mxGeometry x="490" y="430" width="220" height="50" as="geometry" />
        </mxCell>
        <mxCell id="17Y7an61mM4vr6zxtQ1S-403" value="" style="rounded=0;whiteSpace=wrap;html=1;glass=0;sketch=0;fillStyle=auto;sketchStyle=rough;fontSize=20;strokeColor=none;strokeWidth=1;fillColor=#EDEDED;gradientColor=none;gradientDirection=north;container=0;movable=1;resizable=1;rotatable=1;deletable=1;editable=1;locked=0;connectable=1;" vertex="1" parent="Ew1wF45J_AWvh-oqGIxm-1">
          <mxGeometry x="490" y="370" width="220" height="50" as="geometry" />
        </mxCell>
        <mxCell id="17Y7an61mM4vr6zxtQ1S-404" value="" style="rounded=0;whiteSpace=wrap;html=1;fontSize=20;strokeWidth=1;fillColor=#99FFCC;strokeColor=none;gradientColor=none;gradientDirection=north;sketch=1;sketchStyle=rough;fillStyle=dashed;perimeterSpacing=0;labelBackgroundColor=none;disableMultiStroke=0;disableMultiStrokeFill=0;dashOffset=10;dashGap=3;hachureGap=5;fillWeight=1;hachureAngle=-45;curveFitting=-5.05;simplification=1;zigzagOffset=-10;fontStyle=0;container=0;" vertex="1" parent="Ew1wF45J_AWvh-oqGIxm-1">
          <mxGeometry x="490" y="435" width="20" height="40" as="geometry" />
        </mxCell>
        <mxCell id="17Y7an61mM4vr6zxtQ1S-405" value="" style="rounded=0;whiteSpace=wrap;html=1;fontSize=20;strokeWidth=1;fillColor=#99FFCC;strokeColor=none;gradientColor=none;gradientDirection=north;sketch=1;sketchStyle=rough;fillStyle=dashed;perimeterSpacing=0;labelBackgroundColor=none;disableMultiStroke=0;disableMultiStrokeFill=0;dashOffset=10;dashGap=3;hachureGap=5;fillWeight=1;hachureAngle=-45;curveFitting=-5.05;simplification=1;zigzagOffset=-10;fontStyle=0;container=0;" vertex="1" parent="Ew1wF45J_AWvh-oqGIxm-1">
          <mxGeometry x="630" y="375" width="80" height="40" as="geometry" />
        </mxCell>
        <mxCell id="17Y7an61mM4vr6zxtQ1S-406" value="" style="rounded=0;whiteSpace=wrap;html=1;fontSize=20;strokeWidth=1;fillColor=#99FFCC;strokeColor=none;gradientColor=none;gradientDirection=north;sketch=1;sketchStyle=rough;fillStyle=dashed;perimeterSpacing=0;labelBackgroundColor=none;disableMultiStroke=0;disableMultiStrokeFill=0;dashOffset=10;dashGap=3;hachureGap=5;fillWeight=1;hachureAngle=-45;curveFitting=-5.05;simplification=1;zigzagOffset=-10;fontStyle=0;container=0;" vertex="1" parent="Ew1wF45J_AWvh-oqGIxm-1">
          <mxGeometry x="550" y="435" width="80" height="40" as="geometry" />
        </mxCell>
        <mxCell id="17Y7an61mM4vr6zxtQ1S-407" value="" style="rounded=0;whiteSpace=wrap;html=1;fontSize=20;strokeWidth=1;fillColor=#99FFCC;strokeColor=none;gradientColor=none;gradientDirection=north;sketch=1;sketchStyle=rough;fillStyle=dashed;perimeterSpacing=0;labelBackgroundColor=none;disableMultiStroke=0;disableMultiStrokeFill=0;dashOffset=10;dashGap=3;hachureGap=5;fillWeight=1;hachureAngle=-45;curveFitting=-5.05;simplification=1;zigzagOffset=-10;fontStyle=0;container=0;" vertex="1" parent="Ew1wF45J_AWvh-oqGIxm-1">
          <mxGeometry x="510" y="375" width="80" height="40" as="geometry" />
        </mxCell>
        <mxCell id="17Y7an61mM4vr6zxtQ1S-408" value="" style="rounded=0;whiteSpace=wrap;html=1;fontSize=20;strokeWidth=1;fillColor=#99FFCC;strokeColor=none;gradientColor=none;gradientDirection=north;sketch=1;sketchStyle=rough;fillStyle=dashed;perimeterSpacing=0;labelBackgroundColor=none;disableMultiStroke=0;disableMultiStrokeFill=0;dashOffset=10;dashGap=3;hachureGap=5;fillWeight=1;hachureAngle=-45;curveFitting=-5.05;simplification=1;zigzagOffset=-10;fontStyle=0;container=0;" vertex="1" parent="Ew1wF45J_AWvh-oqGIxm-1">
          <mxGeometry x="670" y="435" width="40" height="40" as="geometry" />
        </mxCell>
        <mxCell id="17Y7an61mM4vr6zxtQ1S-421" value="" style="endArrow=oval;html=1;rounded=0;fontSize=20;targetPerimeterSpacing=0;strokeWidth=1.5;startArrow=oval;startFill=1;endSize=5;startSize=5;endFill=0;movable=1;resizable=1;rotatable=1;deletable=1;editable=1;locked=0;connectable=1;" edge="1" parent="Ew1wF45J_AWvh-oqGIxm-1">
          <mxGeometry width="50" height="50" relative="1" as="geometry">
            <mxPoint x="510" y="375" as="sourcePoint" />
            <mxPoint x="590" y="375" as="targetPoint" />
          </mxGeometry>
        </mxCell>
        <mxCell id="17Y7an61mM4vr6zxtQ1S-422" value="" style="endArrow=oval;html=1;rounded=0;fontSize=20;targetPerimeterSpacing=0;strokeWidth=1.5;startArrow=oval;startFill=0;endSize=5;startSize=5;jumpStyle=none;jumpSize=6;dashed=1;dashPattern=1 1;endFill=1;movable=1;resizable=1;rotatable=1;deletable=1;editable=1;locked=0;connectable=1;" edge="1" parent="Ew1wF45J_AWvh-oqGIxm-1">
          <mxGeometry width="50" height="50" relative="1" as="geometry">
            <mxPoint x="510" y="415" as="sourcePoint" />
            <mxPoint x="510" y="375" as="targetPoint" />
          </mxGeometry>
        </mxCell>
        <mxCell id="17Y7an61mM4vr6zxtQ1S-423" value="" style="endArrow=oval;html=1;rounded=0;fontSize=20;targetPerimeterSpacing=0;strokeWidth=1.5;startArrow=oval;startFill=0;endSize=5;startSize=5;jumpStyle=none;jumpSize=6;dashed=1;dashPattern=1 1;endFill=1;movable=1;resizable=1;rotatable=1;deletable=1;editable=1;locked=0;connectable=1;" edge="1" parent="Ew1wF45J_AWvh-oqGIxm-1">
          <mxGeometry width="50" height="50" relative="1" as="geometry">
            <mxPoint x="590" y="375" as="sourcePoint" />
            <mxPoint x="590" y="415" as="targetPoint" />
          </mxGeometry>
        </mxCell>
        <mxCell id="17Y7an61mM4vr6zxtQ1S-424" value="" style="endArrow=oval;html=1;rounded=0;fontSize=20;targetPerimeterSpacing=0;strokeWidth=1.5;startArrow=oval;startFill=0;endSize=5;startSize=5;jumpStyle=none;jumpSize=6;dashed=1;dashPattern=1 1;endFill=1;movable=1;resizable=1;rotatable=1;deletable=1;editable=1;locked=0;connectable=1;" edge="1" parent="Ew1wF45J_AWvh-oqGIxm-1">
          <mxGeometry width="50" height="50" relative="1" as="geometry">
            <mxPoint x="630" y="415" as="sourcePoint" />
            <mxPoint x="630" y="375" as="targetPoint" />
          </mxGeometry>
        </mxCell>
        <mxCell id="17Y7an61mM4vr6zxtQ1S-425" value="" style="endArrow=none;html=1;rounded=0;fontSize=20;targetPerimeterSpacing=0;strokeWidth=1.5;startArrow=oval;startFill=1;endSize=5;startSize=5;endFill=0;movable=1;resizable=1;rotatable=1;deletable=1;editable=1;locked=0;connectable=1;" edge="1" parent="Ew1wF45J_AWvh-oqGIxm-1">
          <mxGeometry width="50" height="50" relative="1" as="geometry">
            <mxPoint x="630" y="375.145" as="sourcePoint" />
            <mxPoint x="710" y="375" as="targetPoint" />
          </mxGeometry>
        </mxCell>
        <mxCell id="17Y7an61mM4vr6zxtQ1S-426" value="" style="endArrow=oval;html=1;rounded=0;fontSize=20;targetPerimeterSpacing=0;strokeWidth=1.5;startArrow=oval;startFill=1;endSize=5;startSize=5;endFill=0;movable=1;resizable=1;rotatable=1;deletable=1;editable=1;locked=0;connectable=1;" edge="1" parent="Ew1wF45J_AWvh-oqGIxm-1">
          <mxGeometry width="50" height="50" relative="1" as="geometry">
            <mxPoint x="550" y="435" as="sourcePoint" />
            <mxPoint x="630" y="435" as="targetPoint" />
          </mxGeometry>
        </mxCell>
        <mxCell id="17Y7an61mM4vr6zxtQ1S-427" value="" style="endArrow=oval;html=1;rounded=0;fontSize=20;targetPerimeterSpacing=0;strokeWidth=1.5;startArrow=oval;startFill=0;endSize=5;startSize=5;jumpStyle=none;jumpSize=6;dashed=1;dashPattern=1 1;endFill=1;movable=1;resizable=1;rotatable=1;deletable=1;editable=1;locked=0;connectable=1;" edge="1" parent="Ew1wF45J_AWvh-oqGIxm-1">
          <mxGeometry width="50" height="50" relative="1" as="geometry">
            <mxPoint x="550" y="475" as="sourcePoint" />
            <mxPoint x="550" y="435" as="targetPoint" />
          </mxGeometry>
        </mxCell>
        <mxCell id="17Y7an61mM4vr6zxtQ1S-428" value="" style="endArrow=oval;html=1;rounded=0;fontSize=20;targetPerimeterSpacing=0;strokeWidth=1.5;startArrow=oval;startFill=0;endSize=5;startSize=5;jumpStyle=none;jumpSize=6;dashed=1;dashPattern=1 1;endFill=1;movable=1;resizable=1;rotatable=1;deletable=1;editable=1;locked=0;connectable=1;" edge="1" parent="Ew1wF45J_AWvh-oqGIxm-1">
          <mxGeometry width="50" height="50" relative="1" as="geometry">
            <mxPoint x="630" y="435" as="sourcePoint" />
            <mxPoint x="630" y="475" as="targetPoint" />
          </mxGeometry>
        </mxCell>
        <mxCell id="17Y7an61mM4vr6zxtQ1S-429" value="" style="endArrow=oval;html=1;rounded=0;fontSize=20;targetPerimeterSpacing=0;strokeWidth=1.5;startArrow=oval;startFill=0;endSize=5;startSize=5;jumpStyle=none;jumpSize=6;dashed=1;dashPattern=1 1;endFill=1;movable=1;resizable=1;rotatable=1;deletable=1;editable=1;locked=0;connectable=1;" edge="1" parent="Ew1wF45J_AWvh-oqGIxm-1">
          <mxGeometry width="50" height="50" relative="1" as="geometry">
            <mxPoint x="670" y="475" as="sourcePoint" />
            <mxPoint x="670" y="435" as="targetPoint" />
          </mxGeometry>
        </mxCell>
        <mxCell id="17Y7an61mM4vr6zxtQ1S-430" value="" style="endArrow=none;html=1;rounded=0;fontSize=20;targetPerimeterSpacing=0;strokeWidth=1.5;startArrow=oval;startFill=1;endSize=5;startSize=5;endFill=0;movable=1;resizable=1;rotatable=1;deletable=1;editable=1;locked=0;connectable=1;" edge="1" parent="Ew1wF45J_AWvh-oqGIxm-1">
          <mxGeometry width="50" height="50" relative="1" as="geometry">
            <mxPoint x="670" y="435.145" as="sourcePoint" />
            <mxPoint x="710" y="435" as="targetPoint" />
          </mxGeometry>
        </mxCell>
        <mxCell id="17Y7an61mM4vr6zxtQ1S-431" value="" style="endArrow=oval;html=1;rounded=0;fontSize=20;targetPerimeterSpacing=0;strokeWidth=1.5;startArrow=none;startFill=0;endSize=5;startSize=5;endFill=0;fontStyle=0" edge="1" parent="Ew1wF45J_AWvh-oqGIxm-1">
          <mxGeometry width="50" height="50" relative="1" as="geometry">
            <mxPoint x="490" y="435.265" as="sourcePoint" />
            <mxPoint x="510" y="435.265" as="targetPoint" />
          </mxGeometry>
        </mxCell>
        <mxCell id="17Y7an61mM4vr6zxtQ1S-432" value="" style="endArrow=oval;html=1;rounded=0;fontSize=20;targetPerimeterSpacing=0;strokeWidth=1.5;startArrow=oval;startFill=0;endSize=5;startSize=5;jumpStyle=none;jumpSize=6;dashed=1;dashPattern=1 1;endFill=1;movable=1;resizable=1;rotatable=1;deletable=1;editable=1;locked=0;connectable=1;" edge="1" parent="Ew1wF45J_AWvh-oqGIxm-1">
          <mxGeometry width="50" height="50" relative="1" as="geometry">
            <mxPoint x="510" y="435" as="sourcePoint" />
            <mxPoint x="510" y="475" as="targetPoint" />
          </mxGeometry>
        </mxCell>
        <mxCell id="17Y7an61mM4vr6zxtQ1S-433" value="" style="endArrow=oval;html=1;rounded=0;fontSize=20;targetPerimeterSpacing=0;strokeWidth=1.5;startArrow=oval;startFill=1;endSize=5;startSize=5;endFill=0;movable=1;resizable=1;rotatable=1;deletable=1;editable=1;locked=0;connectable=1;" edge="1" parent="Ew1wF45J_AWvh-oqGIxm-1">
          <mxGeometry width="50" height="50" relative="1" as="geometry">
            <mxPoint x="510" y="475" as="sourcePoint" />
            <mxPoint x="550" y="475" as="targetPoint" />
          </mxGeometry>
        </mxCell>
        <mxCell id="17Y7an61mM4vr6zxtQ1S-434" value="" style="endArrow=oval;html=1;rounded=0;fontSize=20;targetPerimeterSpacing=0;strokeWidth=1.5;startArrow=oval;startFill=1;endSize=5;startSize=5;endFill=0;movable=1;resizable=1;rotatable=1;deletable=1;editable=1;locked=0;connectable=1;" edge="1" parent="Ew1wF45J_AWvh-oqGIxm-1">
          <mxGeometry width="50" height="50" relative="1" as="geometry">
            <mxPoint x="630" y="475" as="sourcePoint" />
            <mxPoint x="670" y="475" as="targetPoint" />
          </mxGeometry>
        </mxCell>
        <mxCell id="17Y7an61mM4vr6zxtQ1S-435" value="" style="endArrow=oval;html=1;rounded=0;fontSize=20;targetPerimeterSpacing=0;strokeWidth=1.5;startArrow=oval;startFill=1;endSize=5;startSize=5;endFill=0;movable=1;resizable=1;rotatable=1;deletable=1;editable=1;locked=0;connectable=1;" edge="1" parent="Ew1wF45J_AWvh-oqGIxm-1">
          <mxGeometry width="50" height="50" relative="1" as="geometry">
            <mxPoint x="590" y="415" as="sourcePoint" />
            <mxPoint x="630" y="415" as="targetPoint" />
          </mxGeometry>
        </mxCell>
        <mxCell id="17Y7an61mM4vr6zxtQ1S-436" value="" style="endArrow=oval;html=1;rounded=0;fontSize=20;targetPerimeterSpacing=0;strokeWidth=1.5;startArrow=none;startFill=0;endSize=5;startSize=5;endFill=0;fontStyle=0" edge="1" parent="Ew1wF45J_AWvh-oqGIxm-1">
          <mxGeometry width="50" height="50" relative="1" as="geometry">
            <mxPoint x="490" y="415.265" as="sourcePoint" />
            <mxPoint x="510" y="415.265" as="targetPoint" />
          </mxGeometry>
        </mxCell>
        <mxCell id="17Y7an61mM4vr6zxtQ1S-437" value="" style="endArrow=none;html=1;rounded=0;fontSize=20;startSize=5;endSize=14;targetPerimeterSpacing=0;strokeWidth=1.5;jumpStyle=none;jumpSize=6;fontStyle=0;fontFamily=Verdana;endFill=0;labelBackgroundColor=none;spacingLeft=0;spacing=2;labelPosition=center;verticalLabelPosition=middle;align=center;verticalAlign=middle;movable=1;resizable=1;rotatable=1;deletable=1;editable=1;locked=0;connectable=1;" edge="1" parent="Ew1wF45J_AWvh-oqGIxm-1">
          <mxGeometry x="0.8179" y="-16" width="50" height="50" relative="1" as="geometry">
            <mxPoint x="489" y="475" as="sourcePoint" />
            <mxPoint x="510" y="475" as="targetPoint" />
            <mxPoint as="offset" />
          </mxGeometry>
        </mxCell>
        <mxCell id="17Y7an61mM4vr6zxtQ1S-438" value="" style="endArrow=none;html=1;rounded=0;fontSize=20;startSize=5;endSize=14;targetPerimeterSpacing=0;strokeWidth=1.5;jumpStyle=none;jumpSize=6;fontStyle=0;fontFamily=Verdana;endFill=0;labelBackgroundColor=none;spacingLeft=0;spacing=2;labelPosition=center;verticalLabelPosition=middle;align=center;verticalAlign=middle;movable=1;resizable=1;rotatable=1;deletable=1;editable=1;locked=0;connectable=1;" edge="1" parent="Ew1wF45J_AWvh-oqGIxm-1">
          <mxGeometry x="0.8179" y="-16" width="50" height="50" relative="1" as="geometry">
            <mxPoint x="552" y="475" as="sourcePoint" />
            <mxPoint x="630" y="475" as="targetPoint" />
            <mxPoint as="offset" />
          </mxGeometry>
        </mxCell>
        <mxCell id="17Y7an61mM4vr6zxtQ1S-439" value="" style="endArrow=none;html=1;rounded=0;fontSize=20;startSize=5;endSize=14;targetPerimeterSpacing=0;strokeWidth=1.5;jumpStyle=none;jumpSize=6;fontStyle=0;fontFamily=Verdana;endFill=0;labelBackgroundColor=none;spacingLeft=0;spacing=2;labelPosition=center;verticalLabelPosition=middle;align=center;verticalAlign=middle;movable=1;resizable=1;rotatable=1;deletable=1;editable=1;locked=0;connectable=1;" edge="1" parent="Ew1wF45J_AWvh-oqGIxm-1">
          <mxGeometry x="0.8179" y="-16" width="50" height="50" relative="1" as="geometry">
            <mxPoint x="672" y="475" as="sourcePoint" />
            <mxPoint x="710" y="475" as="targetPoint" />
            <mxPoint as="offset" />
          </mxGeometry>
        </mxCell>
        <mxCell id="17Y7an61mM4vr6zxtQ1S-440" value="" style="endArrow=none;html=1;rounded=0;fontSize=20;startSize=5;endSize=14;targetPerimeterSpacing=0;strokeWidth=1.5;jumpStyle=none;jumpSize=6;fontStyle=0;fontFamily=Verdana;endFill=0;labelBackgroundColor=none;spacingLeft=0;spacing=2;labelPosition=center;verticalLabelPosition=middle;align=center;verticalAlign=middle;movable=1;resizable=1;rotatable=1;deletable=1;editable=1;locked=0;connectable=1;entryX=1;entryY=1;entryDx=0;entryDy=0;" edge="1" target="17Y7an61mM4vr6zxtQ1S-405" parent="Ew1wF45J_AWvh-oqGIxm-1">
          <mxGeometry x="0.8179" y="-16" width="50" height="50" relative="1" as="geometry">
            <mxPoint x="632" y="415" as="sourcePoint" />
            <mxPoint x="670" y="415" as="targetPoint" />
            <mxPoint as="offset" />
          </mxGeometry>
        </mxCell>
        <mxCell id="17Y7an61mM4vr6zxtQ1S-441" value="" style="endArrow=none;html=1;rounded=0;fontSize=20;startSize=5;endSize=14;targetPerimeterSpacing=0;strokeWidth=1.5;jumpStyle=none;jumpSize=6;fontStyle=0;fontFamily=Verdana;endFill=0;labelBackgroundColor=none;spacingLeft=0;spacing=2;labelPosition=center;verticalLabelPosition=middle;align=center;verticalAlign=middle;movable=1;resizable=1;rotatable=1;deletable=1;editable=1;locked=0;connectable=1;entryX=1;entryY=1;entryDx=0;entryDy=0;" edge="1" parent="Ew1wF45J_AWvh-oqGIxm-1">
          <mxGeometry x="0.8179" y="-16" width="50" height="50" relative="1" as="geometry">
            <mxPoint x="512" y="415" as="sourcePoint" />
            <mxPoint x="590" y="415" as="targetPoint" />
            <mxPoint as="offset" />
          </mxGeometry>
        </mxCell>
        <mxCell id="17Y7an61mM4vr6zxtQ1S-445" value="9" style="rounded=0;whiteSpace=wrap;html=1;fillColor=#9999FF;fillStyle=solid;backgroundOutline=0;resizeHeight=0;strokeOpacity=100;direction=east;portConstraint=none;portConstraintRotation=0;gradientColor=none;zigzagOffset=-1;disableMultiStroke=0;disableMultiStrokeFill=0;fillWeight=2;strokeWidth=1;perimeterSpacing=0;fontColor=none;noLabel=1;strokeColor=#000000;" vertex="1" parent="Ew1wF45J_AWvh-oqGIxm-1">
          <mxGeometry x="625" y="450" width="20" height="25" as="geometry" />
        </mxCell>
        <mxCell id="17Y7an61mM4vr6zxtQ1S-447" value="9" style="rounded=0;whiteSpace=wrap;html=1;fillColor=#99FFFF;fillStyle=solid;backgroundOutline=0;resizeHeight=0;strokeOpacity=100;direction=east;portConstraint=none;portConstraintRotation=0;gradientColor=none;zigzagOffset=-1;disableMultiStroke=0;disableMultiStrokeFill=0;fillWeight=2;strokeWidth=1;perimeterSpacing=0;fontColor=none;noLabel=1;strokeColor=#000000;" vertex="1" parent="Ew1wF45J_AWvh-oqGIxm-1">
          <mxGeometry x="580" y="466" width="40" height="9" as="geometry" />
        </mxCell>
        <mxCell id="17Y7an61mM4vr6zxtQ1S-448" value="9" style="rounded=0;whiteSpace=wrap;html=1;fillColor=#99FF99;fillStyle=solid;backgroundOutline=0;resizeHeight=0;strokeOpacity=100;direction=east;portConstraint=none;portConstraintRotation=0;gradientColor=none;zigzagOffset=-1;disableMultiStroke=0;disableMultiStrokeFill=0;fillWeight=2;strokeWidth=1;perimeterSpacing=0;fontColor=none;noLabel=1;strokeColor=#000000;" vertex="1" parent="Ew1wF45J_AWvh-oqGIxm-1">
          <mxGeometry x="530" y="466" width="35" height="9" as="geometry" />
        </mxCell>
        <mxCell id="17Y7an61mM4vr6zxtQ1S-449" value="9" style="rounded=0;whiteSpace=wrap;html=1;fillColor=#99FF99;fillStyle=solid;backgroundOutline=0;resizeHeight=0;strokeOpacity=100;direction=east;portConstraint=none;portConstraintRotation=0;gradientColor=none;zigzagOffset=-1;disableMultiStroke=0;disableMultiStrokeFill=0;fillWeight=2;strokeWidth=1;perimeterSpacing=0;fontColor=none;noLabel=1;strokeColor=#000000;" vertex="1" parent="Ew1wF45J_AWvh-oqGIxm-1">
          <mxGeometry x="530" y="390" width="35" height="25" as="geometry" />
        </mxCell>
        <mxCell id="17Y7an61mM4vr6zxtQ1S-453" value="" style="rounded=0;whiteSpace=wrap;html=1;fontSize=20;strokeWidth=1;fillColor=#99FFCC;strokeColor=none;gradientColor=none;gradientDirection=north;sketch=1;sketchStyle=rough;fillStyle=dashed;perimeterSpacing=0;labelBackgroundColor=none;disableMultiStroke=0;disableMultiStrokeFill=0;dashOffset=10;dashGap=3;hachureGap=5;fillWeight=1;hachureAngle=-45;curveFitting=-5.05;simplification=1;zigzagOffset=-10;fontStyle=0;container=0;" vertex="1" parent="Ew1wF45J_AWvh-oqGIxm-1">
          <mxGeometry x="90" y="435" width="20" height="40" as="geometry" />
        </mxCell>
        <mxCell id="17Y7an61mM4vr6zxtQ1S-454" value="" style="rounded=0;whiteSpace=wrap;html=1;fontSize=20;strokeWidth=1;fillColor=#99FFCC;strokeColor=none;gradientColor=none;gradientDirection=north;sketch=1;sketchStyle=rough;fillStyle=dashed;perimeterSpacing=0;labelBackgroundColor=none;disableMultiStroke=0;disableMultiStrokeFill=0;dashOffset=10;dashGap=3;hachureGap=5;fillWeight=1;hachureAngle=-45;curveFitting=-5.05;simplification=1;zigzagOffset=-10;fontStyle=0;container=0;" vertex="1" parent="Ew1wF45J_AWvh-oqGIxm-1">
          <mxGeometry x="150" y="435" width="80" height="40" as="geometry" />
        </mxCell>
        <mxCell id="17Y7an61mM4vr6zxtQ1S-455" value="" style="rounded=0;whiteSpace=wrap;html=1;fontSize=20;strokeWidth=1;fillColor=#99FFCC;strokeColor=none;gradientColor=none;gradientDirection=north;sketch=1;sketchStyle=rough;fillStyle=dashed;perimeterSpacing=0;labelBackgroundColor=none;disableMultiStroke=0;disableMultiStrokeFill=0;dashOffset=10;dashGap=3;hachureGap=5;fillWeight=1;hachureAngle=-45;curveFitting=-5.05;simplification=1;zigzagOffset=-10;fontStyle=0;container=0;" vertex="1" parent="Ew1wF45J_AWvh-oqGIxm-1">
          <mxGeometry x="270" y="435" width="40" height="40" as="geometry" />
        </mxCell>
        <mxCell id="17Y7an61mM4vr6zxtQ1S-457" value="" style="rounded=0;whiteSpace=wrap;html=1;fillColor=#E6FFCC;" vertex="1" parent="Ew1wF45J_AWvh-oqGIxm-1">
          <mxGeometry x="150" y="465" width="35" height="10" as="geometry" />
        </mxCell>
        <mxCell id="17Y7an61mM4vr6zxtQ1S-458" value="" style="rounded=0;whiteSpace=wrap;html=1;fillColor=#CCFFFF;" vertex="1" parent="Ew1wF45J_AWvh-oqGIxm-1">
          <mxGeometry x="150" y="440" width="30" height="25" as="geometry" />
        </mxCell>
        <mxCell id="17Y7an61mM4vr6zxtQ1S-459" value="" style="rounded=0;whiteSpace=wrap;html=1;fillColor=#E6FFCC;" vertex="1" parent="Ew1wF45J_AWvh-oqGIxm-1">
          <mxGeometry x="185" y="445" width="30" height="30" as="geometry" />
        </mxCell>
        <mxCell id="17Y7an61mM4vr6zxtQ1S-460" value="" style="rounded=0;whiteSpace=wrap;html=1;fillColor=#CCFFFF;" vertex="1" parent="Ew1wF45J_AWvh-oqGIxm-1">
          <mxGeometry x="180" y="435" width="40" height="10" as="geometry" />
        </mxCell>
        <mxCell id="17Y7an61mM4vr6zxtQ1S-461" value="" style="rounded=0;whiteSpace=wrap;html=1;fillColor=#CCFFFF;" vertex="1" parent="Ew1wF45J_AWvh-oqGIxm-1">
          <mxGeometry x="220" y="450" width="20" height="25" as="geometry" />
        </mxCell>
        <mxCell id="17Y7an61mM4vr6zxtQ1S-462" value="" style="rounded=0;whiteSpace=wrap;html=1;fillColor=#E6FFCC;" vertex="1" parent="Ew1wF45J_AWvh-oqGIxm-1">
          <mxGeometry x="280" y="460" width="30" height="15" as="geometry" />
        </mxCell>
        <mxCell id="17Y7an61mM4vr6zxtQ1S-463" value="" style="endArrow=oval;html=1;rounded=0;fontSize=20;targetPerimeterSpacing=0;strokeWidth=1.5;startArrow=oval;startFill=0;endSize=5;startSize=5;jumpStyle=none;jumpSize=6;dashed=1;dashPattern=1 1;endFill=1;movable=1;resizable=1;rotatable=1;deletable=1;editable=1;locked=0;connectable=1;" edge="1" parent="Ew1wF45J_AWvh-oqGIxm-1">
          <mxGeometry width="50" height="50" relative="1" as="geometry">
            <mxPoint x="150" y="475" as="sourcePoint" />
            <mxPoint x="150" y="435" as="targetPoint" />
          </mxGeometry>
        </mxCell>
        <mxCell id="17Y7an61mM4vr6zxtQ1S-464" value="" style="endArrow=oval;html=1;rounded=0;fontSize=20;targetPerimeterSpacing=0;strokeWidth=1.5;startArrow=none;startFill=0;endSize=5;startSize=5;endFill=0;fontStyle=0" edge="1" parent="Ew1wF45J_AWvh-oqGIxm-1">
          <mxGeometry width="50" height="50" relative="1" as="geometry">
            <mxPoint x="90" y="435.265" as="sourcePoint" />
            <mxPoint x="110" y="435.265" as="targetPoint" />
          </mxGeometry>
        </mxCell>
        <mxCell id="17Y7an61mM4vr6zxtQ1S-465" value="" style="endArrow=oval;html=1;rounded=0;fontSize=20;targetPerimeterSpacing=0;strokeWidth=1.5;startArrow=oval;startFill=0;endSize=5;startSize=5;jumpStyle=none;jumpSize=6;dashed=1;dashPattern=1 1;endFill=1;movable=1;resizable=1;rotatable=1;deletable=1;editable=1;locked=0;connectable=1;" edge="1" parent="Ew1wF45J_AWvh-oqGIxm-1">
          <mxGeometry width="50" height="50" relative="1" as="geometry">
            <mxPoint x="110" y="435" as="sourcePoint" />
            <mxPoint x="110" y="475" as="targetPoint" />
          </mxGeometry>
        </mxCell>
        <mxCell id="17Y7an61mM4vr6zxtQ1S-466" value="" style="endArrow=oval;html=1;rounded=0;fontSize=20;targetPerimeterSpacing=0;strokeWidth=1.5;startArrow=oval;startFill=1;endSize=5;startSize=5;endFill=0;movable=1;resizable=1;rotatable=1;deletable=1;editable=1;locked=0;connectable=1;" edge="1" parent="Ew1wF45J_AWvh-oqGIxm-1">
          <mxGeometry width="50" height="50" relative="1" as="geometry">
            <mxPoint x="110" y="475" as="sourcePoint" />
            <mxPoint x="150" y="475" as="targetPoint" />
          </mxGeometry>
        </mxCell>
        <mxCell id="17Y7an61mM4vr6zxtQ1S-467" value="" style="rounded=0;whiteSpace=wrap;html=1;glass=0;sketch=0;fillStyle=auto;sketchStyle=rough;fontSize=20;strokeColor=none;strokeWidth=1;fillColor=#EDEDED;gradientColor=none;gradientDirection=north;container=0;movable=1;resizable=1;rotatable=1;deletable=1;editable=1;locked=0;connectable=1;" vertex="1" parent="Ew1wF45J_AWvh-oqGIxm-1">
          <mxGeometry x="90" y="265" width="220" height="70" as="geometry" />
        </mxCell>
        <mxCell id="17Y7an61mM4vr6zxtQ1S-468" value="" style="rounded=1;whiteSpace=wrap;html=1;fontStyle=0;fontSize=20;strokeWidth=2;fillColor=#E6FFCC;" vertex="1" parent="Ew1wF45J_AWvh-oqGIxm-1">
          <mxGeometry x="110" y="270" width="20" height="20" as="geometry" />
        </mxCell>
        <mxCell id="17Y7an61mM4vr6zxtQ1S-469" value="" style="rounded=1;whiteSpace=wrap;html=1;fontStyle=0;fontSize=20;strokeWidth=2;fillColor=#E6FFCC;" vertex="1" parent="Ew1wF45J_AWvh-oqGIxm-1">
          <mxGeometry x="150" y="270" width="35" height="20" as="geometry" />
        </mxCell>
        <mxCell id="17Y7an61mM4vr6zxtQ1S-470" value="" style="rounded=1;whiteSpace=wrap;html=1;fontStyle=0;fontSize=20;strokeWidth=2;fillColor=#E6FFCC;" vertex="1" parent="Ew1wF45J_AWvh-oqGIxm-1">
          <mxGeometry x="110" y="290" width="40" height="20" as="geometry" />
        </mxCell>
        <mxCell id="17Y7an61mM4vr6zxtQ1S-471" value="" style="rounded=1;whiteSpace=wrap;html=1;fontStyle=0;fontSize=20;strokeWidth=2;fillColor=#E6FFCC;" vertex="1" parent="Ew1wF45J_AWvh-oqGIxm-1">
          <mxGeometry x="230" y="290" width="50" height="20" as="geometry" />
        </mxCell>
        <mxCell id="17Y7an61mM4vr6zxtQ1S-472" value="" style="rounded=1;whiteSpace=wrap;html=1;fontStyle=0;fontSize=20;strokeWidth=2;fillColor=#E6FFCC;" vertex="1" parent="Ew1wF45J_AWvh-oqGIxm-1">
          <mxGeometry x="185" y="290" width="30" height="20" as="geometry" />
        </mxCell>
        <mxCell id="17Y7an61mM4vr6zxtQ1S-473" value="" style="rounded=1;whiteSpace=wrap;html=1;fontStyle=0;fontSize=20;strokeWidth=2;fillColor=#E6FFCC;strokeColor=#000000;shadow=0;" vertex="1" parent="Ew1wF45J_AWvh-oqGIxm-1">
          <mxGeometry x="280" y="270" width="30" height="20" as="geometry" />
        </mxCell>
        <mxCell id="17Y7an61mM4vr6zxtQ1S-474" value="" style="rounded=1;whiteSpace=wrap;html=1;fontStyle=0;fontSize=20;strokeWidth=2;fillColor=#CCFFFF;" vertex="1" parent="Ew1wF45J_AWvh-oqGIxm-1">
          <mxGeometry x="150" y="310" width="30" height="20" as="geometry" />
        </mxCell>
        <mxCell id="17Y7an61mM4vr6zxtQ1S-475" value="" style="rounded=1;whiteSpace=wrap;html=1;fontStyle=0;fontSize=20;strokeWidth=2;fillColor=#CCFFFF;" vertex="1" parent="Ew1wF45J_AWvh-oqGIxm-1">
          <mxGeometry x="180" y="310" width="40" height="20" as="geometry" />
        </mxCell>
        <mxCell id="17Y7an61mM4vr6zxtQ1S-476" value="" style="rounded=1;whiteSpace=wrap;html=1;fontStyle=0;fontSize=20;strokeWidth=2;fillColor=#CCFFFF;strokeColor=#000000;perimeterSpacing=0;glass=0;shadow=0;" vertex="1" parent="Ew1wF45J_AWvh-oqGIxm-1">
          <mxGeometry x="220" y="310" width="20" height="20" as="geometry" />
        </mxCell>
        <mxCell id="17Y7an61mM4vr6zxtQ1S-478" value="" style="endArrow=none;html=1;rounded=0;fontSize=20;startSize=5;endSize=14;targetPerimeterSpacing=0;strokeWidth=1.5;jumpStyle=none;jumpSize=6;fontStyle=0;fontFamily=Verdana;endFill=0;labelBackgroundColor=none;spacingLeft=0;spacing=2;labelPosition=center;verticalLabelPosition=middle;align=center;verticalAlign=middle;movable=1;resizable=1;rotatable=1;deletable=1;editable=1;locked=0;connectable=1;" edge="1" parent="Ew1wF45J_AWvh-oqGIxm-1">
          <mxGeometry x="0.8179" y="-16" width="50" height="50" relative="1" as="geometry">
            <mxPoint x="89" y="475" as="sourcePoint" />
            <mxPoint x="110" y="475" as="targetPoint" />
            <mxPoint as="offset" />
          </mxGeometry>
        </mxCell>
        <mxCell id="17Y7an61mM4vr6zxtQ1S-479" value="" style="endArrow=none;html=1;rounded=0;fontSize=20;startSize=5;endSize=14;targetPerimeterSpacing=0;strokeWidth=1.5;jumpStyle=none;jumpSize=6;fontStyle=0;fontFamily=Verdana;endFill=0;labelBackgroundColor=none;spacingLeft=0;spacing=2;labelPosition=center;verticalLabelPosition=middle;align=center;verticalAlign=middle;movable=1;resizable=1;rotatable=1;deletable=1;editable=1;locked=0;connectable=1;entryX=1;entryY=1;entryDx=0;entryDy=0;" edge="1" target="17Y7an61mM4vr6zxtQ1S-455" parent="Ew1wF45J_AWvh-oqGIxm-1">
          <mxGeometry x="0.8179" y="-16" width="50" height="50" relative="1" as="geometry">
            <mxPoint x="152" y="475" as="sourcePoint" />
            <mxPoint x="173" y="475" as="targetPoint" />
            <mxPoint as="offset" />
          </mxGeometry>
        </mxCell>
        <mxCell id="17Y7an61mM4vr6zxtQ1S-480" value="" style="rounded=0;whiteSpace=wrap;html=1;glass=0;sketch=0;fillStyle=auto;sketchStyle=rough;fontSize=20;strokeColor=none;strokeWidth=1;fillColor=#EDEDED;gradientColor=none;gradientDirection=north;container=0;movable=1;resizable=1;rotatable=1;deletable=1;editable=1;locked=0;connectable=1;" vertex="1" parent="Ew1wF45J_AWvh-oqGIxm-1">
          <mxGeometry x="90" y="345" width="220" height="50" as="geometry" />
        </mxCell>
        <mxCell id="17Y7an61mM4vr6zxtQ1S-481" value="" style="rounded=0;whiteSpace=wrap;html=1;fontSize=20;strokeWidth=1;fillColor=#99FFCC;strokeColor=none;gradientColor=none;gradientDirection=north;sketch=1;sketchStyle=rough;fillStyle=dashed;perimeterSpacing=0;labelBackgroundColor=none;disableMultiStroke=0;disableMultiStrokeFill=0;dashOffset=10;dashGap=3;hachureGap=5;fillWeight=1;hachureAngle=-45;curveFitting=-5.05;simplification=1;zigzagOffset=-10;fontStyle=0;container=0;" vertex="1" parent="Ew1wF45J_AWvh-oqGIxm-1">
          <mxGeometry x="230" y="350" width="80" height="40" as="geometry" />
        </mxCell>
        <mxCell id="17Y7an61mM4vr6zxtQ1S-482" value="" style="rounded=0;whiteSpace=wrap;html=1;fontSize=20;strokeWidth=1;fillColor=#99FFCC;strokeColor=none;gradientColor=none;gradientDirection=north;sketch=1;sketchStyle=rough;fillStyle=dashed;perimeterSpacing=0;labelBackgroundColor=none;disableMultiStroke=0;disableMultiStrokeFill=0;dashOffset=10;dashGap=3;hachureGap=5;fillWeight=1;hachureAngle=-45;curveFitting=-5.05;simplification=1;zigzagOffset=-10;fontStyle=0;container=0;" vertex="1" parent="Ew1wF45J_AWvh-oqGIxm-1">
          <mxGeometry x="110" y="350" width="80" height="40" as="geometry" />
        </mxCell>
        <mxCell id="17Y7an61mM4vr6zxtQ1S-483" value="" style="rounded=0;whiteSpace=wrap;html=1;fillColor=#E6FFCC;" vertex="1" parent="Ew1wF45J_AWvh-oqGIxm-1">
          <mxGeometry x="110" y="375" width="40" height="15" as="geometry" />
        </mxCell>
        <mxCell id="17Y7an61mM4vr6zxtQ1S-484" value="" style="rounded=0;whiteSpace=wrap;html=1;fillColor=#E6FFCC;" vertex="1" parent="Ew1wF45J_AWvh-oqGIxm-1">
          <mxGeometry x="110" y="355" width="20" height="20" as="geometry" />
        </mxCell>
        <mxCell id="17Y7an61mM4vr6zxtQ1S-485" value="" style="rounded=0;whiteSpace=wrap;html=1;fillColor=#E6FFCC;" vertex="1" parent="Ew1wF45J_AWvh-oqGIxm-1">
          <mxGeometry x="150" y="365" width="35" height="25" as="geometry" />
        </mxCell>
        <mxCell id="17Y7an61mM4vr6zxtQ1S-486" value="" style="rounded=0;whiteSpace=wrap;html=1;fillColor=#CCFFFF;" vertex="1" parent="Ew1wF45J_AWvh-oqGIxm-1">
          <mxGeometry x="150" y="350" width="30" height="15" as="geometry" />
        </mxCell>
        <mxCell id="17Y7an61mM4vr6zxtQ1S-487" value="" style="rounded=0;whiteSpace=wrap;html=1;fillColor=#E6FFCC;" vertex="1" parent="Ew1wF45J_AWvh-oqGIxm-1">
          <mxGeometry x="230" y="375" width="50" height="15" as="geometry" />
        </mxCell>
        <mxCell id="17Y7an61mM4vr6zxtQ1S-488" value="" style="rounded=0;whiteSpace=wrap;html=1;fillColor=#E6FFCC;" vertex="1" parent="Ew1wF45J_AWvh-oqGIxm-1">
          <mxGeometry x="280" y="380" width="30" height="10" as="geometry" />
        </mxCell>
        <mxCell id="17Y7an61mM4vr6zxtQ1S-489" value="" style="endArrow=oval;html=1;rounded=0;fontSize=20;targetPerimeterSpacing=0;strokeWidth=1.5;startArrow=oval;startFill=1;endSize=5;startSize=5;endFill=0;movable=1;resizable=1;rotatable=1;deletable=1;editable=1;locked=0;connectable=1;" edge="1" parent="Ew1wF45J_AWvh-oqGIxm-1">
          <mxGeometry width="50" height="50" relative="1" as="geometry">
            <mxPoint x="110" y="350" as="sourcePoint" />
            <mxPoint x="190" y="350" as="targetPoint" />
          </mxGeometry>
        </mxCell>
        <mxCell id="17Y7an61mM4vr6zxtQ1S-490" value="" style="endArrow=oval;html=1;rounded=0;fontSize=20;targetPerimeterSpacing=0;strokeWidth=1.5;startArrow=oval;startFill=0;endSize=5;startSize=5;jumpStyle=none;jumpSize=6;dashed=1;dashPattern=1 1;endFill=1;movable=1;resizable=1;rotatable=1;deletable=1;editable=1;locked=0;connectable=1;" edge="1" parent="Ew1wF45J_AWvh-oqGIxm-1">
          <mxGeometry width="50" height="50" relative="1" as="geometry">
            <mxPoint x="110" y="390" as="sourcePoint" />
            <mxPoint x="110" y="350" as="targetPoint" />
          </mxGeometry>
        </mxCell>
        <mxCell id="17Y7an61mM4vr6zxtQ1S-491" value="" style="endArrow=oval;html=1;rounded=0;fontSize=20;targetPerimeterSpacing=0;strokeWidth=1.5;startArrow=oval;startFill=0;endSize=5;startSize=5;jumpStyle=none;jumpSize=6;dashed=1;dashPattern=1 1;endFill=1;movable=1;resizable=1;rotatable=1;deletable=1;editable=1;locked=0;connectable=1;" edge="1" parent="Ew1wF45J_AWvh-oqGIxm-1">
          <mxGeometry width="50" height="50" relative="1" as="geometry">
            <mxPoint x="190" y="350" as="sourcePoint" />
            <mxPoint x="190" y="390" as="targetPoint" />
          </mxGeometry>
        </mxCell>
        <mxCell id="17Y7an61mM4vr6zxtQ1S-492" value="" style="endArrow=oval;html=1;rounded=0;fontSize=20;targetPerimeterSpacing=0;strokeWidth=1.5;startArrow=oval;startFill=0;endSize=5;startSize=5;jumpStyle=none;jumpSize=6;dashed=1;dashPattern=1 1;endFill=1;movable=1;resizable=1;rotatable=1;deletable=1;editable=1;locked=0;connectable=1;" edge="1" parent="Ew1wF45J_AWvh-oqGIxm-1">
          <mxGeometry width="50" height="50" relative="1" as="geometry">
            <mxPoint x="230" y="390" as="sourcePoint" />
            <mxPoint x="230" y="350" as="targetPoint" />
          </mxGeometry>
        </mxCell>
        <mxCell id="17Y7an61mM4vr6zxtQ1S-493" value="" style="endArrow=none;html=1;rounded=0;fontSize=20;targetPerimeterSpacing=0;strokeWidth=1.5;startArrow=oval;startFill=1;endSize=5;startSize=5;endFill=0;movable=1;resizable=1;rotatable=1;deletable=1;editable=1;locked=0;connectable=1;" edge="1" parent="Ew1wF45J_AWvh-oqGIxm-1">
          <mxGeometry width="50" height="50" relative="1" as="geometry">
            <mxPoint x="230" y="350.145" as="sourcePoint" />
            <mxPoint x="310" y="350" as="targetPoint" />
          </mxGeometry>
        </mxCell>
        <mxCell id="17Y7an61mM4vr6zxtQ1S-494" value="" style="endArrow=oval;html=1;rounded=0;fontSize=20;targetPerimeterSpacing=0;strokeWidth=1.5;startArrow=oval;startFill=1;endSize=5;startSize=5;endFill=0;movable=1;resizable=1;rotatable=1;deletable=1;editable=1;locked=0;connectable=1;" edge="1" parent="Ew1wF45J_AWvh-oqGIxm-1">
          <mxGeometry width="50" height="50" relative="1" as="geometry">
            <mxPoint x="190" y="390" as="sourcePoint" />
            <mxPoint x="230" y="390" as="targetPoint" />
          </mxGeometry>
        </mxCell>
        <mxCell id="17Y7an61mM4vr6zxtQ1S-495" value="" style="endArrow=oval;html=1;rounded=0;fontSize=20;targetPerimeterSpacing=0;strokeWidth=1.5;startArrow=none;startFill=0;endSize=5;startSize=5;endFill=0;fontStyle=0" edge="1" parent="Ew1wF45J_AWvh-oqGIxm-1">
          <mxGeometry width="50" height="50" relative="1" as="geometry">
            <mxPoint x="90" y="390.265" as="sourcePoint" />
            <mxPoint x="110" y="390.265" as="targetPoint" />
          </mxGeometry>
        </mxCell>
        <mxCell id="17Y7an61mM4vr6zxtQ1S-496" value="" style="endArrow=none;html=1;rounded=0;fontSize=20;startSize=5;endSize=14;targetPerimeterSpacing=0;strokeWidth=1.5;jumpStyle=none;jumpSize=6;fontStyle=0;fontFamily=Verdana;endFill=0;labelBackgroundColor=none;spacingLeft=0;spacing=2;labelPosition=center;verticalLabelPosition=middle;align=center;verticalAlign=middle;movable=1;resizable=1;rotatable=1;deletable=1;editable=1;locked=0;connectable=1;entryX=1;entryY=1;entryDx=0;entryDy=0;" edge="1" target="17Y7an61mM4vr6zxtQ1S-481" parent="Ew1wF45J_AWvh-oqGIxm-1">
          <mxGeometry x="0.8179" y="-16" width="50" height="50" relative="1" as="geometry">
            <mxPoint x="232" y="390" as="sourcePoint" />
            <mxPoint x="270" y="390" as="targetPoint" />
            <mxPoint as="offset" />
          </mxGeometry>
        </mxCell>
        <mxCell id="17Y7an61mM4vr6zxtQ1S-497" value="" style="endArrow=none;html=1;rounded=0;fontSize=20;startSize=5;endSize=14;targetPerimeterSpacing=0;strokeWidth=1.5;jumpStyle=none;jumpSize=6;fontStyle=0;fontFamily=Verdana;endFill=0;labelBackgroundColor=none;spacingLeft=0;spacing=2;labelPosition=center;verticalLabelPosition=middle;align=center;verticalAlign=middle;movable=1;resizable=1;rotatable=1;deletable=1;editable=1;locked=0;connectable=1;entryX=1;entryY=1;entryDx=0;entryDy=0;" edge="1" parent="Ew1wF45J_AWvh-oqGIxm-1">
          <mxGeometry x="0.8179" y="-16" width="50" height="50" relative="1" as="geometry">
            <mxPoint x="112" y="390" as="sourcePoint" />
            <mxPoint x="190" y="390" as="targetPoint" />
            <mxPoint as="offset" />
          </mxGeometry>
        </mxCell>
        <mxCell id="17Y7an61mM4vr6zxtQ1S-498" value="" style="endArrow=oval;html=1;rounded=0;fontSize=20;targetPerimeterSpacing=0;strokeWidth=1.5;startArrow=oval;startFill=1;endSize=5;startSize=5;endFill=0;movable=1;resizable=1;rotatable=1;deletable=1;editable=1;locked=0;connectable=1;" edge="1" parent="Ew1wF45J_AWvh-oqGIxm-1">
          <mxGeometry width="50" height="50" relative="1" as="geometry">
            <mxPoint x="150" y="435" as="sourcePoint" />
            <mxPoint x="220" y="435" as="targetPoint" />
          </mxGeometry>
        </mxCell>
        <mxCell id="17Y7an61mM4vr6zxtQ1S-502" value="" style="endArrow=oval;html=1;rounded=0;fontSize=20;targetPerimeterSpacing=0;strokeWidth=1.5;startArrow=oval;startFill=1;endSize=5;startSize=5;endFill=0;movable=1;resizable=1;rotatable=1;deletable=1;editable=1;locked=0;connectable=1;" edge="1" parent="Ew1wF45J_AWvh-oqGIxm-1">
          <mxGeometry width="50" height="50" relative="1" as="geometry">
            <mxPoint x="230" y="450" as="sourcePoint" />
            <mxPoint x="240" y="450" as="targetPoint" />
          </mxGeometry>
        </mxCell>
        <mxCell id="17Y7an61mM4vr6zxtQ1S-503" value="" style="endArrow=oval;html=1;rounded=0;fontSize=20;targetPerimeterSpacing=0;strokeWidth=1.5;startArrow=oval;startFill=0;endSize=5;startSize=5;jumpStyle=none;jumpSize=6;dashed=1;dashPattern=1 1;endFill=1;movable=1;resizable=1;rotatable=1;deletable=1;editable=1;locked=0;connectable=1;" edge="1" parent="Ew1wF45J_AWvh-oqGIxm-1">
          <mxGeometry width="50" height="50" relative="1" as="geometry">
            <mxPoint x="240" y="450" as="sourcePoint" />
            <mxPoint x="240" y="475" as="targetPoint" />
          </mxGeometry>
        </mxCell>
        <mxCell id="17Y7an61mM4vr6zxtQ1S-504" value="" style="endArrow=none;html=1;rounded=0;fontSize=20;targetPerimeterSpacing=0;strokeWidth=1.5;startArrow=oval;startFill=1;endSize=5;startSize=5;endFill=0;movable=1;resizable=1;rotatable=1;deletable=1;editable=1;locked=0;connectable=1;" edge="1" parent="Ew1wF45J_AWvh-oqGIxm-1">
          <mxGeometry width="50" height="50" relative="1" as="geometry">
            <mxPoint x="270" y="435.145" as="sourcePoint" />
            <mxPoint x="310" y="435" as="targetPoint" />
          </mxGeometry>
        </mxCell>
        <mxCell id="17Y7an61mM4vr6zxtQ1S-505" value="" style="endArrow=oval;html=1;rounded=0;fontSize=20;targetPerimeterSpacing=0;strokeWidth=1.5;startArrow=oval;startFill=0;endSize=5;startSize=5;jumpStyle=none;jumpSize=6;dashed=1;dashPattern=1 1;endFill=1;movable=1;resizable=1;rotatable=1;deletable=1;editable=1;locked=0;connectable=1;" edge="1" parent="Ew1wF45J_AWvh-oqGIxm-1">
          <mxGeometry width="50" height="50" relative="1" as="geometry">
            <mxPoint x="270" y="475" as="sourcePoint" />
            <mxPoint x="270" y="435" as="targetPoint" />
          </mxGeometry>
        </mxCell>
        <mxCell id="17Y7an61mM4vr6zxtQ1S-507" value="" style="rounded=0;whiteSpace=wrap;html=1;fontSize=20;strokeWidth=1;fillColor=#CCFFCC;strokeColor=none;gradientColor=none;gradientDirection=north;sketchStyle=rough;fillStyle=auto;perimeterSpacing=0;labelBackgroundColor=none;disableMultiStroke=0;disableMultiStrokeFill=0;dashOffset=10;dashGap=3;hachureGap=5;fillWeight=1;hachureAngle=-45;simplification=1;zigzagOffset=-10;fontStyle=0;container=0;" vertex="1" parent="Ew1wF45J_AWvh-oqGIxm-1">
          <mxGeometry x="220" y="410" width="10" height="25" as="geometry" />
        </mxCell>
        <mxCell id="17Y7an61mM4vr6zxtQ1S-508" value="" style="rounded=0;whiteSpace=wrap;html=1;fontSize=20;strokeWidth=1;fillColor=#00FF00;strokeColor=none;gradientColor=none;gradientDirection=north;sketch=1;sketchStyle=rough;fillStyle=dashed;perimeterSpacing=0;labelBackgroundColor=none;disableMultiStroke=0;disableMultiStrokeFill=0;dashOffset=10;dashGap=3;hachureGap=5;fillWeight=1;hachureAngle=-45;curveFitting=-5.05;simplification=1;zigzagOffset=-10;fontStyle=0;container=0;" vertex="1" parent="Ew1wF45J_AWvh-oqGIxm-1">
          <mxGeometry x="220" y="410" width="10" height="25" as="geometry" />
        </mxCell>
        <mxCell id="17Y7an61mM4vr6zxtQ1S-499" value="" style="endArrow=oval;html=1;rounded=0;fontSize=20;targetPerimeterSpacing=0;strokeWidth=1.5;startArrow=oval;startFill=0;endSize=5;startSize=5;jumpStyle=none;jumpSize=6;dashed=1;dashPattern=1 1;endFill=1;movable=1;resizable=1;rotatable=1;deletable=1;editable=1;locked=0;connectable=1;" edge="1" parent="Ew1wF45J_AWvh-oqGIxm-1">
          <mxGeometry width="50" height="50" relative="1" as="geometry">
            <mxPoint x="230" y="410" as="sourcePoint" />
            <mxPoint x="230" y="450" as="targetPoint" />
          </mxGeometry>
        </mxCell>
        <mxCell id="17Y7an61mM4vr6zxtQ1S-500" value="" style="endArrow=oval;html=1;rounded=0;fontSize=20;targetPerimeterSpacing=0;strokeWidth=1.5;startArrow=oval;startFill=0;endSize=5;startSize=5;jumpStyle=none;jumpSize=6;dashed=1;dashPattern=1 1;endFill=1;movable=1;resizable=1;rotatable=1;deletable=1;editable=1;locked=0;connectable=1;" edge="1" parent="Ew1wF45J_AWvh-oqGIxm-1">
          <mxGeometry width="50" height="50" relative="1" as="geometry">
            <mxPoint x="220" y="435" as="sourcePoint" />
            <mxPoint x="220" y="410" as="targetPoint" />
          </mxGeometry>
        </mxCell>
        <mxCell id="17Y7an61mM4vr6zxtQ1S-501" value="" style="endArrow=oval;html=1;rounded=0;fontSize=20;targetPerimeterSpacing=0;strokeWidth=1.5;startArrow=oval;startFill=1;endSize=5;startSize=5;endFill=0;movable=1;resizable=1;rotatable=1;deletable=1;editable=1;locked=0;connectable=1;" edge="1" parent="Ew1wF45J_AWvh-oqGIxm-1">
          <mxGeometry width="50" height="50" relative="1" as="geometry">
            <mxPoint x="220" y="410" as="sourcePoint" />
            <mxPoint x="230" y="410" as="targetPoint" />
          </mxGeometry>
        </mxCell>
        <mxCell id="17Y7an61mM4vr6zxtQ1S-520" value="&lt;span style=&quot;color: rgb(0, 0, 0); font-family: Helvetica; font-size: 12px; font-style: normal; font-variant-ligatures: normal; font-variant-caps: normal; font-weight: 400; letter-spacing: normal; orphans: 2; text-align: center; text-indent: 0px; text-transform: none; widows: 2; word-spacing: 0px; -webkit-text-stroke-width: 0px; text-decoration-thickness: initial; text-decoration-style: initial; text-decoration-color: initial; float: none; display: inline !important;&quot;&gt;Select improvement intervals by selected sorting order&lt;br&gt;&lt;/span&gt;" style="rounded=0;whiteSpace=wrap;html=1;verticalAlign=middle;gradientColor=none;shadow=1;fillColor=#FFFFFF;labelBackgroundColor=none;" vertex="1" parent="Ew1wF45J_AWvh-oqGIxm-1">
          <mxGeometry x="620" y="260" width="100" height="90" as="geometry" />
        </mxCell>
        <mxCell id="17Y7an61mM4vr6zxtQ1S-522" value="" style="shape=step;perimeter=stepPerimeter;whiteSpace=wrap;html=1;fixedSize=1;shadow=1;fillColor=#66B2FF;" vertex="1" parent="Ew1wF45J_AWvh-oqGIxm-1">
          <mxGeometry x="330" y="110" width="140" height="20" as="geometry" />
        </mxCell>
        <mxCell id="17Y7an61mM4vr6zxtQ1S-526" value="" style="shape=step;perimeter=stepPerimeter;whiteSpace=wrap;html=1;fixedSize=1;shadow=1;fillColor=#66B2FF;rotation=90;" vertex="1" parent="Ew1wF45J_AWvh-oqGIxm-1">
          <mxGeometry x="557.5" y="292.5" width="85" height="20" as="geometry" />
        </mxCell>
        <mxCell id="17Y7an61mM4vr6zxtQ1S-527" value="" style="shape=step;perimeter=stepPerimeter;whiteSpace=wrap;html=1;fixedSize=1;shadow=1;fillColor=#66B2FF;rotation=-180;" vertex="1" parent="Ew1wF45J_AWvh-oqGIxm-1">
          <mxGeometry x="330" y="410" width="140" height="20" as="geometry" />
        </mxCell>
        <mxCell id="17Y7an61mM4vr6zxtQ1S-531" value="Relax capacities during selected improvement intervals" style="rounded=0;whiteSpace=wrap;html=1;verticalAlign=middle;gradientColor=none;shadow=1;fillColor=#FFFFFF;labelBackgroundColor=none;" vertex="1" parent="Ew1wF45J_AWvh-oqGIxm-1">
          <mxGeometry x="330" y="440" width="140" height="50" as="geometry" />
        </mxCell>
        <mxCell id="17Y7an61mM4vr6zxtQ1S-532" value="Selected by time&amp;nbsp; period sorting" style="shape=callout;whiteSpace=wrap;html=1;perimeter=calloutPerimeter;size=70;position=0.41;shadow=1;position2=0.28;base=9;" vertex="1" parent="Ew1wF45J_AWvh-oqGIxm-1">
          <mxGeometry x="605" y="355" width="110" height="105" as="geometry" />
        </mxCell>
        <mxCell id="lZfQHL8CrhGnbEkwI4Dm-1" value="" style="endArrow=none;html=1;rounded=0;fontSize=20;startSize=5;endSize=14;targetPerimeterSpacing=0;strokeWidth=1;jumpStyle=none;jumpSize=6;fontStyle=0;fontFamily=Verdana;endFill=0;labelBackgroundColor=none;spacingLeft=0;spacing=2;labelPosition=center;verticalLabelPosition=middle;align=center;verticalAlign=middle;movable=1;resizable=1;rotatable=1;deletable=1;editable=1;locked=0;connectable=1;strokeColor=#666666;" edge="1" parent="Ew1wF45J_AWvh-oqGIxm-1">
          <mxGeometry x="0.8179" y="-16" width="50" height="50" relative="1" as="geometry">
            <mxPoint x="672" y="235" as="sourcePoint" />
            <mxPoint x="710" y="235" as="targetPoint" />
            <mxPoint as="offset" />
          </mxGeometry>
        </mxCell>
        <mxCell id="lZfQHL8CrhGnbEkwI4Dm-2" value="" style="rounded=0;whiteSpace=wrap;html=1;fontSize=20;strokeWidth=1;fillColor=#99FFCC;strokeColor=none;gradientColor=none;gradientDirection=north;sketch=1;sketchStyle=rough;fillStyle=dashed;perimeterSpacing=0;labelBackgroundColor=none;disableMultiStroke=0;disableMultiStrokeFill=0;dashOffset=10;dashGap=3;hachureGap=5;fillWeight=1;hachureAngle=-45;curveFitting=-5.05;simplification=1;zigzagOffset=-10;fontStyle=0;container=0;" vertex="1" parent="Ew1wF45J_AWvh-oqGIxm-1">
          <mxGeometry x="490" y="195" width="20" height="40" as="geometry" />
        </mxCell>
        <mxCell id="17Y7an61mM4vr6zxtQ1S-377" value="" style="endArrow=oval;html=1;rounded=0;fontSize=20;targetPerimeterSpacing=0;strokeWidth=1.5;startArrow=none;startFill=0;endSize=5;startSize=5;endFill=0;fontStyle=0" edge="1" parent="Ew1wF45J_AWvh-oqGIxm-1">
          <mxGeometry width="50" height="50" relative="1" as="geometry">
            <mxPoint x="490" y="195.265" as="sourcePoint" />
            <mxPoint x="510" y="195.265" as="targetPoint" />
          </mxGeometry>
        </mxCell>
        <mxCell id="17Y7an61mM4vr6zxtQ1S-378" value="" style="endArrow=oval;html=1;rounded=0;fontSize=20;targetPerimeterSpacing=0;strokeWidth=1.5;startArrow=oval;startFill=0;endSize=5;startSize=5;jumpStyle=none;jumpSize=6;dashed=1;dashPattern=1 1;endFill=1;movable=1;resizable=1;rotatable=1;deletable=1;editable=1;locked=0;connectable=1;" edge="1" parent="Ew1wF45J_AWvh-oqGIxm-1">
          <mxGeometry width="50" height="50" relative="1" as="geometry">
            <mxPoint x="510" y="195" as="sourcePoint" />
            <mxPoint x="510" y="235" as="targetPoint" />
          </mxGeometry>
        </mxCell>
        <mxCell id="17Y7an61mM4vr6zxtQ1S-380" value="" style="endArrow=none;html=1;rounded=0;fontSize=20;startSize=5;endSize=14;targetPerimeterSpacing=0;strokeWidth=1.5;jumpStyle=none;jumpSize=6;fontStyle=0;fontFamily=Verdana;endFill=0;labelBackgroundColor=none;spacingLeft=0;spacing=2;labelPosition=center;verticalLabelPosition=middle;align=center;verticalAlign=middle;movable=1;resizable=1;rotatable=1;deletable=1;editable=1;locked=0;connectable=1;" edge="1" parent="Ew1wF45J_AWvh-oqGIxm-1">
          <mxGeometry x="0.8179" y="-16" width="50" height="50" relative="1" as="geometry">
            <mxPoint x="489" y="235" as="sourcePoint" />
            <mxPoint x="510" y="235" as="targetPoint" />
            <mxPoint as="offset" />
          </mxGeometry>
        </mxCell>
      </root>
    </mxGraphModel>
  </diagram>
</mxfile>
